if (_typeface_js && _typeface_js.loadFace) _typeface_js.loadFace({"glyphs":{"0":{"ha":833,"x_min":0,"x_max":0,"o":"m 415 160 b 528 485 486 160 528 231 b 415 815 528 738 486 815 b 307 485 347 815 307 738 b 415 160 307 231 347 160 m 415 -21 b 32 485 182 -21 32 139 b 415 993 32 838 179 993 b 801 485 654 993 801 838 b 415 -21 801 139 651 -21 "},"1":{"ha":833,"x_min":0,"x_max":0,"o":"m 332 724 l 117 617 l 117 851 l 354 972 l 600 972 l 600 0 l 332 0 "},"2":{"ha":833,"x_min":0,"x_max":0,"o":"m 47 683 b 435 993 74 874 233 993 b 785 713 650 993 785 875 b 522 303 785 571 721 490 l 421 207 l 783 207 l 783 0 l 75 0 l 75 207 l 310 421 b 513 710 468 565 513 628 b 428 800 513 771 478 800 b 322 683 379 800 338 764 "},"3":{"ha":833,"x_min":0,"x_max":0,"o":"m 410 168 b 513 283 467 168 513 207 b 381 417 513 382 450 417 l 268 417 l 268 593 l 382 593 b 494 713 447 593 494 632 b 413 806 494 775 460 806 b 317 715 365 806 331 778 l 57 715 b 426 993 83 889 224 993 b 765 735 631 993 765 899 b 599 517 765 628 701 546 b 786 279 707 488 786 392 b 417 -21 786 74 601 -21 b 36 275 193 -21 53 106 l 303 275 b 410 168 311 208 350 168 "},"4":{"ha":833,"x_min":0,"x_max":0,"o":"m 704 972 l 704 367 l 804 367 l 804 176 l 704 176 l 704 0 l 446 0 l 446 176 l 35 176 l 35 376 l 329 972 m 446 390 l 467 746 l 293 367 l 446 367 "},"5":{"ha":833,"x_min":0,"x_max":0,"o":"m 303 272 b 410 168 318 200 356 168 b 518 324 471 168 518 218 b 404 479 518 436 475 479 b 297 426 372 479 328 464 l 83 426 l 110 972 l 729 972 l 729 788 l 356 788 l 346 617 b 497 654 390 642 440 654 b 794 332 665 654 794 540 b 415 -21 794 114 635 -21 b 43 272 219 -21 74 81 "},"6":{"ha":833,"x_min":0,"x_max":0,"o":"m 426 476 b 310 315 358 476 310 415 b 418 168 310 239 347 168 b 532 325 485 168 532 229 b 426 476 532 429 494 476 m 436 811 b 297 574 369 811 311 747 b 501 661 342 625 413 661 b 801 339 685 661 801 543 b 425 -21 801 132 651 -21 b 32 449 185 -21 32 147 b 442 993 32 836 214 993 b 796 754 635 993 756 893 l 514 754 b 436 811 503 790 476 811 "},"7":{"ha":833,"x_min":0,"x_max":0,"o":"m 415 0 l 133 0 l 496 776 l 63 776 l 63 972 l 771 972 l 771 786 "},"8":{"ha":833,"x_min":0,"x_max":0,"o":"m 772 739 b 629 517 772 631 706 563 b 804 276 719 471 804 399 b 418 -21 804 110 669 -21 b 28 269 169 -21 28 107 b 196 507 28 389 89 457 b 61 725 114 554 61 615 b 418 993 61 897 204 993 b 772 739 604 993 772 910 m 525 276 b 403 421 525 360 461 396 b 308 276 356 396 308 356 b 414 167 308 203 361 167 b 525 276 469 167 525 203 m 325 724 b 431 596 325 649 376 615 b 507 721 474 618 507 661 b 418 821 507 794 460 821 b 325 724 379 821 325 801 "},"9":{"ha":833,"x_min":0,"x_max":0,"o":"m 410 493 b 524 654 476 493 524 554 b 415 808 524 735 497 808 b 301 656 336 808 301 747 b 410 493 301 554 333 493 m 411 160 b 535 393 478 160 525 221 b 339 307 492 343 426 307 b 32 644 140 307 32 440 b 413 993 32 860 197 993 b 801 526 650 993 801 840 b 406 -21 801 133 643 -21 b 40 231 207 -21 79 79 l 325 231 b 411 160 335 185 368 160 "},"\u0000":{"ha":0,"x_min":0,"x_max":0,"o":""},"\r":{"ha":311,"x_min":0,"x_max":0,"o":""}," ":{"ha":311,"x_min":0,"x_max":0,"o":""},"!":{"ha":449,"x_min":0,"x_max":0,"o":"m 99 336 l 64 1008 l 383 1008 l 349 336 m 78 0 l 78 251 l 369 251 l 369 0 "},"\"":{"ha":833,"x_min":0,"x_max":0,"o":"m 264 651 l 92 651 l 69 869 l 69 1008 l 286 1008 l 286 869 m 544 651 l 372 651 l 350 869 l 350 1008 l 567 1008 l 567 869 "},"#":{"ha":833,"x_min":0,"x_max":0,"o":"m 79 760 l 161 760 l 179 972 l 394 972 l 375 760 l 504 760 l 522 972 l 738 972 l 718 760 l 781 760 l 781 582 l 704 582 l 685 390 l 753 390 l 753 213 l 671 213 l 653 0 l 439 0 l 456 213 l 329 213 l 310 0 l 96 0 l 113 213 l 51 213 l 51 390 l 128 390 l 144 582 l 79 582 m 342 390 l 471 390 l 488 582 l 361 582 "},"$":{"ha":833,"x_min":0,"x_max":0,"o":"m 838 293 b 529 -14 838 160 764 18 l 529 -187 l 299 -187 l 299 -10 b -6 307 83 32 14 183 l 274 307 b 425 176 288 224 340 176 b 547 260 503 176 547 203 b 356 386 547 328 501 350 b 29 701 129 443 29 533 b 299 983 29 838 111 951 l 299 1151 l 529 1151 l 529 983 b 817 697 715 954 792 843 l 546 697 b 418 801 531 781 482 801 b 319 726 360 801 319 776 b 474 618 319 665 349 646 b 838 293 731 560 838 468 "},"%":{"ha":1181,"x_min":0,"x_max":0,"o":"m 454 0 l 247 0 l 724 972 l 931 972 m 522 753 b 275 513 522 607 431 513 b 28 753 121 513 28 607 b 275 993 28 899 121 993 b 522 753 431 993 522 899 m 339 753 b 275 858 339 832 311 858 b 213 753 239 858 213 832 b 275 647 213 674 239 647 b 339 753 311 647 339 674 m 1153 219 b 906 -21 1153 74 1060 -21 b 658 219 750 -21 658 74 b 906 460 658 365 750 460 b 1153 219 1060 460 1153 365 m 968 219 b 906 325 968 299 942 325 b 842 219 869 325 842 299 b 906 114 842 140 869 114 b 968 219 942 114 968 140 "},"&":{"ha":951,"x_min":0,"x_max":0,"o":"m 889 474 b 807 233 878 390 850 307 l 928 119 l 767 -29 l 665 67 b 406 -21 603 13 519 -21 b 44 249 167 -21 44 89 b 207 499 44 361 107 440 b 90 740 132 574 90 642 b 396 993 90 863 175 993 b 697 754 615 993 697 871 b 531 488 697 635 626 560 l 628 400 b 654 506 642 433 649 468 m 429 163 b 526 199 465 163 501 176 l 361 350 b 318 263 329 318 318 294 b 429 163 318 194 369 163 m 329 746 b 385 633 329 703 347 672 b 461 754 444 681 461 713 b 397 832 461 811 435 832 b 329 746 354 832 329 804 "},"'":{"ha":375,"x_min":0,"x_max":0,"o":"m 271 651 l 97 651 l 75 869 l 75 1008 l 292 1008 l 292 869 "},"(":{"ha":472,"x_min":0,"x_max":0,"o":"m 269 446 b 469 -236 269 242 328 21 l 249 -236 b 31 446 150 -92 31 171 b 254 1125 31 718 154 981 l 475 1125 b 269 446 333 868 269 647 "},")":{"ha":472,"x_min":0,"x_max":0,"o":"m 193 446 b -12 1125 193 647 129 868 l 208 1125 b 432 446 307 981 432 718 b 214 -236 432 171 313 -92 l -7 -236 b 193 446 135 21 193 242 "},"*":{"ha":690,"x_min":0,"x_max":0,"o":"m 343 608 l 276 449 l 88 588 l 215 701 l 43 715 l 117 938 l 264 851 l 224 1021 l 457 1021 l 421 850 l 572 938 l 644 715 l 471 701 l 600 586 l 410 449 "},"+":{"ha":833,"x_min":0,"x_max":0,"o":"m 522 750 l 522 542 l 731 542 l 731 346 l 522 346 l 522 135 l 308 135 l 308 346 l 103 346 l 103 542 l 308 542 l 308 750 "},",":{"ha":375,"x_min":0,"x_max":0,"o":"m 340 58 b 22 -244 340 -133 224 -231 l 22 -122 b 144 0 97 -112 144 -72 l 47 0 l 47 251 l 340 251 "},"-":{"ha":750,"x_min":0,"x_max":0,"o":"m 642 347 l 93 347 l 93 542 l 642 542 "},".":{"ha":421,"x_min":0,"x_max":0,"o":"m 64 0 l 64 251 l 357 251 l 357 0 "},"/":{"ha":472,"x_min":0,"x_max":0,"o":"m 206 -125 l -22 -125 l 258 1021 l 486 1021 "},":":{"ha":421,"x_min":0,"x_max":0,"o":"m 64 471 l 64 722 l 357 722 l 357 471 m 64 0 l 64 251 l 357 251 l 357 0 "},";":{"ha":421,"x_min":0,"x_max":0,"o":"m 64 471 l 64 722 l 357 722 l 357 471 m 357 58 b 39 -244 357 -133 240 -231 l 39 -122 b 161 0 114 -112 161 -72 l 64 0 l 64 251 l 357 251 "},"<":{"ha":833,"x_min":0,"x_max":0,"o":"m 103 531 l 731 831 l 731 597 l 369 442 l 731 293 l 731 60 l 103 360 "},"=":{"ha":833,"x_min":0,"x_max":0,"o":"m 731 482 l 103 482 l 103 676 l 731 676 m 731 210 l 103 210 l 103 404 l 731 404 "},">":{"ha":833,"x_min":0,"x_max":0,"o":"m 731 360 l 103 60 l 103 293 l 463 442 l 103 597 l 103 831 l 731 531 "},"?":{"ha":772,"x_min":0,"x_max":0,"o":"m 54 743 b 408 1021 72 893 213 1021 b 732 776 615 1021 732 922 b 572 474 732 665 686 607 b 531 331 538 433 531 389 l 269 331 b 356 604 269 469 283 517 b 456 765 433 697 456 726 b 403 824 456 803 435 824 b 333 743 369 824 344 800 m 256 0 l 256 251 l 549 251 l 549 0 "},"@":{"ha":1279,"x_min":0,"x_max":0,"o":"m 915 119 b 751 253 815 119 756 192 b 557 133 729 194 654 133 b 340 386 414 133 340 243 b 626 756 340 643 492 756 b 736 700 678 756 722 732 l 757 735 l 926 735 l 885 417 b 876 339 879 379 876 356 b 924 267 876 285 894 267 b 1018 535 993 267 1018 401 b 664 856 1018 750 914 856 b 260 436 497 856 260 775 b 682 25 260 113 463 25 b 897 63 772 25 839 44 l 939 -96 b 671 -140 882 -117 794 -140 b 49 436 346 -140 49 49 b 664 1021 49 875 396 1021 b 1229 536 997 1021 1229 844 b 915 119 1229 308 1111 119 m 604 282 b 690 549 661 282 690 428 b 647 603 690 579 678 603 b 553 378 588 603 553 490 l 553 347 b 604 282 556 310 569 282 "},"A":{"ha":1028,"x_min":0,"x_max":0,"o":"m 725 0 l 661 218 l 351 218 l 288 0 l -4 0 l 363 1000 l 663 1000 l 1032 0 m 407 410 l 607 410 l 508 749 "},"B":{"ha":954,"x_min":0,"x_max":0,"o":"m 444 1000 b 874 736 750 1000 874 913 b 706 532 874 640 801 561 b 913 292 828 508 913 417 b 475 0 913 107 790 0 l 79 0 l 79 1000 m 369 433 l 369 189 l 483 189 b 621 307 578 189 621 226 b 490 433 621 388 569 433 m 369 811 l 369 610 l 469 610 b 583 714 543 610 583 646 b 465 811 583 775 538 811 "},"C":{"ha":1061,"x_min":0,"x_max":0,"o":"m 539 178 b 724 383 644 178 713 242 l 1017 383 b 535 -21 982 110 811 -21 b 47 503 249 -21 47 160 b 546 1021 47 838 238 1021 b 1010 654 790 1021 971 892 l 721 654 b 546 822 696 775 629 822 b 347 503 431 822 347 732 b 539 178 347 269 433 178 "},"D":{"ha":1050,"x_min":0,"x_max":0,"o":"m 479 1000 b 1003 500 818 1000 1003 839 b 482 0 1003 168 826 0 l 79 0 l 79 1000 m 369 803 l 369 199 l 482 199 b 711 500 618 199 711 288 b 479 803 711 710 618 803 "},"E":{"ha":853,"x_min":0,"x_max":0,"o":"m 764 408 l 369 408 l 369 203 l 804 203 l 804 0 l 79 0 l 79 1000 l 804 1000 l 804 794 l 369 794 l 369 600 l 764 600 "},"F":{"ha":807,"x_min":0,"x_max":0,"o":"m 722 389 l 369 389 l 369 0 l 79 0 l 79 1000 l 765 1000 l 765 797 l 369 797 l 369 581 l 722 581 "},"G":{"ha":1072,"x_min":0,"x_max":0,"o":"m 1007 0 l 810 0 l 775 92 b 496 -21 718 25 628 -21 b 47 503 251 -21 47 158 b 554 1021 47 842 246 1021 b 1007 692 772 1021 961 921 l 719 692 b 554 822 697 782 639 822 b 347 503 439 822 347 735 b 557 176 347 272 443 176 b 750 342 668 176 750 246 l 750 382 l 536 382 l 536 569 l 1007 569 "},"H":{"ha":1042,"x_min":0,"x_max":0,"o":"m 963 1000 l 963 0 l 674 0 l 674 407 l 369 407 l 369 0 l 79 0 l 79 1000 l 369 1000 l 369 604 l 674 604 l 674 1000 "},"I":{"ha":449,"x_min":0,"x_max":0,"o":"m 369 1000 l 369 0 l 79 0 l 79 1000 "},"J":{"ha":824,"x_min":0,"x_max":0,"o":"m 299 318 b 389 179 306 211 346 179 b 469 301 435 179 469 204 l 469 1000 l 751 1000 l 751 325 b 393 -21 751 111 633 -21 b 19 318 192 -21 42 86 "},"K":{"ha":1057,"x_min":0,"x_max":0,"o":"m 688 0 l 369 375 l 369 0 l 79 0 l 79 1000 l 369 1000 l 369 638 l 676 1000 l 1010 1000 l 589 531 l 1057 0 "},"L":{"ha":874,"x_min":0,"x_max":0,"o":"m 369 1000 l 369 210 l 846 210 l 846 0 l 79 0 l 79 1000 "},"M":{"ha":1272,"x_min":0,"x_max":0,"o":"m 515 0 l 325 564 l 325 0 l 79 0 l 79 1000 l 389 1000 l 636 274 l 878 1000 l 1193 1000 l 1193 0 l 933 0 l 933 551 l 749 0 "},"N":{"ha":1039,"x_min":0,"x_max":0,"o":"m 960 1000 l 960 0 l 672 0 l 326 617 l 326 0 l 79 0 l 79 1000 l 385 1000 l 713 413 l 713 1000 "},"O":{"ha":1115,"x_min":0,"x_max":0,"o":"m 557 183 b 775 500 667 183 775 260 b 557 818 775 740 665 818 b 340 499 446 818 340 740 b 557 183 340 258 451 183 m 557 -21 b 47 499 303 -21 47 113 b 557 1021 47 878 301 1021 b 1068 500 814 1021 1068 886 b 557 -21 1068 121 813 -21 "},"P":{"ha":960,"x_min":0,"x_max":0,"o":"m 464 1000 b 919 658 786 1000 919 886 b 472 318 919 431 779 318 l 368 318 l 368 0 l 79 0 l 79 1000 m 368 804 l 368 513 l 474 513 b 626 658 568 513 626 564 b 467 804 626 758 568 804 "},"Q":{"ha":1135,"x_min":0,"x_max":0,"o":"m 557 -21 b 47 499 303 -21 47 113 b 557 1021 47 878 301 1021 b 1068 500 814 1021 1068 886 b 922 111 1068 319 1010 194 l 1088 -64 l 853 -222 l 718 0 b 557 -21 667 -14 611 -21 m 557 183 b 775 500 667 183 775 260 b 557 818 775 740 665 818 b 340 499 446 818 340 740 b 557 183 340 258 451 183 "},"R":{"ha":1001,"x_min":0,"x_max":0,"o":"m 653 0 l 438 347 l 358 347 l 358 0 l 68 0 l 68 1000 l 461 1000 b 911 675 763 1000 911 883 b 722 399 911 533 840 449 l 994 0 m 358 803 l 358 544 l 474 544 b 613 675 554 544 613 593 b 464 803 613 764 560 803 "},"S":{"ha":979,"x_min":0,"x_max":0,"o":"m 494 -21 b 29 315 182 -21 54 146 l 310 315 b 497 176 325 232 385 176 b 653 268 603 176 653 215 b 428 403 653 344 594 367 b 67 721 196 454 67 533 b 485 1021 67 896 197 1021 b 924 708 732 1021 892 903 l 650 708 b 482 825 636 788 574 825 b 358 747 399 825 358 793 b 538 642 358 689 404 668 b 944 293 793 590 944 486 b 494 -21 944 128 811 -21 "},"T":{"ha":883,"x_min":0,"x_max":0,"o":"m 876 790 l 585 790 l 585 0 l 294 0 l 294 790 l 7 790 l 7 1000 l 876 1000 "},"U":{"ha":1032,"x_min":0,"x_max":0,"o":"m 363 1000 l 363 328 b 517 181 363 233 419 181 b 678 328 614 181 678 233 l 678 1000 l 960 1000 l 960 344 b 515 -21 960 119 801 -21 b 72 344 229 -21 72 121 l 72 1000 "},"V":{"ha":978,"x_min":0,"x_max":0,"o":"m 978 1000 l 651 0 l 329 0 l 0 1000 l 300 1000 l 496 247 l 694 1000 "},"W":{"ha":1415,"x_min":0,"x_max":0,"o":"m 1415 1000 l 1193 0 l 872 0 l 707 711 l 550 0 l 239 0 l 0 1000 l 299 1000 l 417 335 l 567 1000 l 864 1000 l 1025 329 l 1138 1000 "},"X":{"ha":1042,"x_min":0,"x_max":0,"o":"m 678 529 l 1035 0 l 692 0 l 506 314 l 322 0 l 7 0 l 364 517 l 31 1000 l 368 1000 l 539 725 l 707 1000 l 1011 1000 "},"Y":{"ha":1006,"x_min":0,"x_max":0,"o":"m 364 0 l 364 400 l 0 1000 l 313 1000 l 508 619 l 721 1000 l 1006 1000 l 642 400 l 642 0 "},"Z":{"ha":899,"x_min":0,"x_max":0,"o":"m 381 201 l 860 201 l 860 0 l 31 0 l 31 189 l 517 799 l 57 799 l 57 1000 l 868 1000 l 868 814 "},"[":{"ha":472,"x_min":0,"x_max":0,"o":"m 439 -236 l 64 -236 l 64 1125 l 439 1125 l 439 957 l 288 957 l 288 -68 l 439 -68 "},"\\":{"ha":472,"x_min":0,"x_max":0,"o":"m -24 1021 l 203 1021 l 483 -125 l 257 -125 "},"]":{"ha":472,"x_min":0,"x_max":0,"o":"m 22 -68 l 174 -68 l 174 957 l 22 957 l 22 1125 l 399 1125 l 399 -236 l 22 -236 "},"^":{"ha":722,"x_min":0,"x_max":0,"o":"m 265 532 l 19 532 l 246 989 l 476 989 l 703 532 l 458 532 l 363 758 "},"_":{"ha":817,"x_min":0,"x_max":0,"o":"m 792 -197 l 25 -197 l 25 -4 l 792 -4 "},"`":{"ha":503,"x_min":0,"x_max":0,"o":"m 461 803 l 264 803 l 42 1017 l 311 1017 "},"a":{"ha":811,"x_min":0,"x_max":0,"o":"m 47 497 b 410 743 92 669 222 743 b 753 469 621 743 753 640 l 753 0 l 546 0 b 514 76 535 25 524 50 b 285 -21 463 18 389 -21 b 32 206 129 -21 32 67 b 338 436 32 324 103 399 l 485 460 l 485 488 b 403 568 485 539 454 568 b 315 497 353 568 325 543 m 368 154 b 485 296 444 154 485 211 l 485 322 b 296 219 335 292 296 276 b 368 154 296 178 321 154 "},"b":{"ha":893,"x_min":0,"x_max":0,"o":"m 64 0 l 64 1000 l 333 1000 l 333 656 b 540 743 383 710 453 743 b 853 376 726 743 853 621 b 524 -21 853 118 718 -21 b 315 78 442 -21 367 17 l 276 0 m 583 367 b 457 551 583 499 532 551 b 326 369 381 551 326 493 b 453 171 326 221 382 171 b 583 367 526 171 583 229 "},"c":{"ha":843,"x_min":0,"x_max":0,"o":"m 806 271 b 425 -21 769 106 647 -21 b 40 354 176 -21 40 115 b 429 743 40 594 189 743 b 806 468 632 743 778 631 l 528 468 b 433 564 518 528 476 564 b 317 353 364 564 317 510 b 425 158 317 211 367 158 b 528 271 476 158 517 200 "},"d":{"ha":894,"x_min":0,"x_max":0,"o":"m 617 0 l 575 88 b 360 -21 524 25 449 -21 b 40 354 174 -21 40 113 b 363 743 40 606 175 743 b 561 661 450 743 515 711 l 561 1000 l 831 1000 l 831 0 m 311 356 b 442 171 311 226 364 171 b 567 357 513 171 567 225 b 443 551 567 508 510 551 b 311 356 367 551 311 489 "},"e":{"ha":863,"x_min":0,"x_max":0,"o":"m 815 229 b 435 -21 782 88 650 -21 b 40 367 196 -21 40 131 b 431 743 40 601 193 743 b 821 303 669 743 821 592 l 313 303 b 444 163 325 197 372 163 b 543 229 499 163 535 190 m 428 575 b 313 444 367 575 325 540 l 546 444 b 428 575 538 536 493 575 "},"f":{"ha":539,"x_min":0,"x_max":0,"o":"m 557 810 b 453 826 511 821 478 826 b 382 760 403 826 382 806 l 382 722 l 519 722 l 519 540 l 382 540 l 382 0 l 114 0 l 114 540 l 8 540 l 8 722 l 114 722 l 114 768 b 383 1021 114 932 207 1021 b 557 996 447 1021 504 1011 "},"g":{"ha":881,"x_min":0,"x_max":0,"o":"m 329 -31 b 439 -90 346 -74 376 -90 b 549 31 511 -90 549 -53 l 549 104 b 360 32 501 60 439 32 b 40 382 178 32 40 156 b 365 743 40 607 179 743 b 569 654 453 743 522 710 l 608 722 l 817 722 l 817 58 b 439 -271 817 -139 688 -271 b 60 -31 206 -271 88 -187 m 311 383 b 442 224 311 275 365 224 b 567 382 517 224 567 278 b 440 553 567 501 518 553 b 311 383 367 553 311 496 "},"h":{"ha":844,"x_min":0,"x_max":0,"o":"m 64 1000 l 332 1000 l 332 663 b 531 743 379 714 446 743 b 788 463 692 743 788 647 l 788 0 l 518 0 l 518 463 b 438 558 518 531 489 558 b 332 424 371 558 332 500 l 332 0 l 64 0 "},"i":{"ha":399,"x_min":0,"x_max":0,"o":"m 57 797 l 57 1000 l 342 1000 l 342 797 m 65 0 l 65 722 l 333 722 l 333 0 "},"j":{"ha":404,"x_min":0,"x_max":0,"o":"m -60 -65 b 8 -75 -32 -72 -8 -75 b 68 -12 50 -75 68 -60 l 68 722 l 336 722 l 336 -22 b 82 -271 336 -175 251 -271 b -60 -253 33 -271 -21 -264 m 61 797 l 61 1000 l 344 1000 l 344 797 "},"k":{"ha":865,"x_min":0,"x_max":0,"o":"m 64 0 l 64 1000 l 332 1000 l 332 499 l 540 722 l 850 722 l 536 414 l 871 0 l 532 0 l 332 279 l 332 0 "},"l":{"ha":397,"x_min":0,"x_max":0,"o":"m 333 0 l 64 0 l 64 1000 l 333 1000 "},"m":{"ha":1272,"x_min":0,"x_max":0,"o":"m 64 0 l 64 722 l 282 722 l 310 642 b 517 743 358 707 428 743 b 729 640 610 743 685 710 b 954 743 782 708 858 743 b 1215 463 1111 743 1215 657 l 1215 0 l 947 0 l 947 468 b 867 558 947 532 915 558 b 774 419 800 558 774 496 l 774 0 l 506 0 l 506 468 b 426 558 506 532 474 558 b 333 424 363 558 333 496 l 333 0 "},"n":{"ha":844,"x_min":0,"x_max":0,"o":"m 64 0 l 64 722 l 292 722 l 313 642 b 531 743 361 704 433 743 b 788 463 692 743 788 647 l 788 0 l 518 0 l 518 463 b 438 558 518 531 488 558 b 332 422 369 558 332 499 l 332 0 "},"o":{"ha":876,"x_min":0,"x_max":0,"o":"m 40 364 b 438 743 40 624 204 743 b 836 364 671 743 836 624 b 438 -21 836 104 672 -21 b 40 364 208 -21 40 103 m 315 364 b 439 157 315 214 360 157 b 563 364 522 157 563 211 b 438 565 563 517 519 565 b 315 364 354 565 315 514 "},"p":{"ha":893,"x_min":0,"x_max":0,"o":"m 529 -21 b 333 60 453 -21 385 10 l 333 -250 l 64 -250 l 64 722 l 272 722 l 317 636 b 540 743 368 701 443 743 b 853 371 726 743 853 615 b 529 -21 853 118 717 -21 m 583 367 b 457 553 583 499 532 553 b 326 369 381 553 326 493 b 453 169 326 221 382 169 b 583 367 526 169 583 229 "},"q":{"ha":894,"x_min":0,"x_max":0,"o":"m 831 722 l 831 -250 l 561 -250 l 561 72 b 360 -21 511 17 442 -21 b 40 354 174 -21 40 113 b 363 743 40 606 175 743 b 578 640 461 743 531 703 l 621 722 m 311 356 b 442 171 311 226 364 171 b 567 357 513 171 567 225 b 443 551 567 508 510 551 b 311 356 367 551 311 489 "},"r":{"ha":590,"x_min":0,"x_max":0,"o":"m 64 0 l 64 722 l 293 722 l 318 611 b 492 743 357 699 418 743 b 582 732 518 743 549 740 l 582 493 b 482 510 540 506 515 510 b 333 289 397 510 333 436 l 333 0 "},"s":{"ha":813,"x_min":0,"x_max":0,"o":"m 406 156 b 501 207 472 156 501 174 b 368 274 501 240 475 256 b 56 510 151 311 56 374 b 401 743 56 649 171 743 b 763 508 597 743 735 650 l 501 508 b 397 568 490 544 456 568 b 322 524 340 568 322 550 b 454 458 322 492 347 478 b 768 232 650 422 768 369 b 407 -21 768 83 650 -21 b 31 219 199 -21 60 78 l 293 219 b 406 156 303 183 343 156 "},"t":{"ha":551,"x_min":0,"x_max":0,"o":"m 531 0 b 376 -21 478 -14 421 -21 b 118 211 215 -21 118 61 l 118 540 l 14 540 l 14 722 l 118 722 l 135 906 l 388 906 l 388 722 l 531 722 l 531 540 l 388 540 l 388 219 b 447 167 388 182 407 167 b 531 181 467 167 499 172 "},"u":{"ha":836,"x_min":0,"x_max":0,"o":"m 325 722 l 325 251 b 407 164 325 192 356 164 b 504 296 471 164 504 219 l 504 722 l 772 722 l 772 0 l 546 0 l 525 74 b 314 -21 478 15 408 -21 b 57 258 149 -21 57 75 l 57 722 "},"v":{"ha":821,"x_min":0,"x_max":0,"o":"m 822 722 l 564 0 l 256 0 l -1 722 l 289 722 l 417 218 l 542 722 "},"w":{"ha":1193,"x_min":0,"x_max":0,"o":"m 1188 722 l 989 0 l 685 0 l 596 471 l 494 0 l 197 0 l 6 722 l 283 722 l 361 254 l 467 722 l 747 722 l 840 257 l 926 722 "},"x":{"ha":847,"x_min":0,"x_max":0,"o":"m 569 382 l 849 0 l 526 0 l 410 197 l 290 0 l -1 0 l 271 379 l 11 722 l 326 722 l 429 549 l 525 722 l 813 722 "},"y":{"ha":828,"x_min":0,"x_max":0,"o":"m 829 722 l 568 1 b 281 -271 494 -203 419 -271 b 138 -251 240 -271 192 -264 l 138 -71 b 236 -87 194 -85 221 -87 b 313 0 275 -87 293 -67 l 268 0 l -1 722 l 285 722 l 417 192 l 558 722 "},"z":{"ha":732,"x_min":0,"x_max":0,"o":"m 367 192 l 696 192 l 696 0 l 24 0 l 24 188 l 369 531 l 47 531 l 47 722 l 708 722 l 708 535 "},"{":{"ha":472,"x_min":0,"x_max":0,"o":"m 3 533 b 115 635 81 533 115 571 l 115 861 b 451 1125 115 1096 240 1125 l 451 957 b 343 868 375 957 343 947 l 343 638 b 236 442 343 525 300 472 b 343 244 300 411 343 357 l 343 22 b 451 -68 343 -58 375 -67 l 451 -236 b 115 28 240 -236 115 -207 l 115 247 b 3 349 115 310 81 349 "},"|":{"ha":472,"x_min":0,"x_max":0,"o":"m 343 1090 l 343 -194 l 119 -194 l 119 1090 "},"}":{"ha":472,"x_min":0,"x_max":0,"o":"m 458 349 b 347 247 382 349 347 310 l 347 28 b 10 -236 347 -207 222 -236 l 10 -68 b 119 22 88 -67 119 -58 l 119 244 b 226 442 119 357 163 411 b 119 638 163 472 119 525 l 119 868 b 10 957 119 947 88 957 l 10 1125 b 347 861 222 1125 347 1096 l 347 635 b 458 533 347 571 382 533 "},"~":{"ha":833,"x_min":0,"x_max":0,"o":"m 536 315 b 283 388 429 315 365 388 b 103 321 225 388 175 365 l 103 519 b 297 575 143 543 217 575 b 550 501 404 575 468 501 b 731 569 608 501 658 524 l 731 371 b 536 315 690 346 617 315 "}," ":{"ha":311,"x_min":0,"x_max":0,"o":""},"¡":{"ha":449,"x_min":0,"x_max":0,"o":"m 349 422 l 383 -250 l 64 -250 l 99 422 m 369 758 l 369 507 l 78 507 l 78 758 "},"¢":{"ha":833,"x_min":0,"x_max":0,"o":"m 300 -7 b 36 354 128 29 36 157 b 300 726 36 549 133 683 l 300 915 l 532 915 l 532 731 b 799 468 676 699 776 600 l 524 468 b 428 557 514 538 467 557 b 313 351 360 557 313 501 b 421 158 313 211 363 158 b 525 271 472 158 513 199 l 803 271 b 532 -8 771 135 685 25 l 532 -187 l 300 -187 "},"£":{"ha":833,"x_min":0,"x_max":0,"o":"m 399 560 l 629 560 l 629 393 l 399 393 l 399 338 b 328 210 399 281 374 238 l 767 210 l 767 0 l 58 0 l 58 203 b 122 314 115 219 122 254 l 122 393 l 49 393 l 49 560 l 122 560 l 122 678 b 449 993 122 883 232 993 b 783 707 646 993 774 871 l 533 707 b 463 794 525 771 503 794 b 399 675 418 794 399 758 "},"¤":{"ha":833,"x_min":0,"x_max":0,"o":"m 101 303 b 63 465 76 350 63 404 b 101 628 63 526 76 581 l 19 711 l 167 860 l 253 774 b 415 813 301 799 360 813 b 578 774 469 813 528 799 b 664 860 607 801 635 831 l 813 711 b 729 628 785 683 756 656 b 769 465 754 581 769 526 b 729 303 769 404 754 350 l 813 221 l 664 72 b 578 157 636 101 607 129 b 415 119 528 133 471 119 b 251 157 360 119 301 133 l 167 72 l 19 221 m 569 465 b 415 625 569 565 503 625 b 263 465 328 625 263 565 b 415 307 263 367 328 307 b 569 465 503 307 569 367 "},"¥":{"ha":833,"x_min":0,"x_max":0,"o":"m 286 0 l 286 144 l 111 144 l 111 306 l 286 306 l 286 364 l 111 364 l 111 525 l 218 525 l -31 972 l 274 972 l 422 597 l 588 972 l 864 972 l 613 525 l 722 525 l 722 364 l 546 364 l 546 306 l 722 306 l 722 144 l 546 144 l 546 0 "},"¦":{"ha":472,"x_min":0,"x_max":0,"o":"m 343 1089 l 343 532 l 119 532 l 119 1089 m 343 357 l 343 -194 l 119 -194 l 119 357 "},"§":{"ha":833,"x_min":0,"x_max":0,"o":"m 89 424 b 214 601 89 493 133 565 b 122 772 156 644 122 700 b 415 992 122 918 244 992 b 717 760 603 992 710 858 l 496 760 b 421 824 485 803 457 824 b 368 779 392 824 368 807 b 425 726 368 754 388 740 b 743 446 569 674 743 614 b 619 274 743 372 701 313 b 706 118 674 236 706 181 b 418 -117 706 -26 597 -117 b 107 114 221 -117 118 4 l 328 114 b 404 51 338 71 365 51 b 461 96 435 51 461 68 b 404 147 461 122 439 133 l 343 171 b 89 424 211 221 89 281 m 336 440 b 451 338 336 390 369 367 b 494 411 469 354 494 378 b 379 515 494 461 461 486 b 336 440 361 497 336 472 "},"¨":{"ha":654,"x_min":0,"x_max":0,"o":"m 42 813 l 42 1013 l 282 1013 l 282 813 m 372 813 l 372 1013 l 613 1013 l 613 813 "},"©":{"ha":1171,"x_min":0,"x_max":0,"o":"m 189 504 b 572 100 189 236 369 100 b 956 504 775 100 956 236 b 572 908 956 772 775 908 b 189 504 369 908 189 772 m 1097 504 b 572 -12 1097 157 836 -12 b 47 504 308 -12 47 157 b 572 1021 47 851 308 1021 b 1097 504 836 1021 1097 851 m 860 442 b 578 225 832 319 743 225 b 293 503 397 225 293 322 b 582 792 293 682 403 792 b 858 589 731 792 836 708 l 656 589 b 585 660 649 632 617 660 b 496 501 532 660 496 619 b 578 358 496 396 535 358 b 656 442 617 358 646 388 "},"ª":{"ha":708,"x_min":0,"x_max":0,"o":"m 90 831 b 368 1021 114 942 226 1021 b 629 793 526 1021 629 938 l 629 421 l 463 421 l 443 469 b 293 404 408 429 354 404 b 78 590 178 404 78 458 b 331 786 78 700 164 769 l 399 793 l 399 822 b 361 872 399 858 382 872 b 314 831 336 872 318 858 m 635 0 l 85 0 l 85 194 l 635 194 m 349 560 b 399 619 381 560 399 588 l 399 667 l 369 661 b 303 601 319 651 303 631 b 349 560 303 575 324 560 "},"«":{"ha":817,"x_min":0,"x_max":0,"o":"m 42 435 l 222 722 l 431 722 l 299 428 l 414 119 l 208 119 m 383 435 l 564 722 l 772 722 l 640 428 l 756 119 l 550 119 "},"¬":{"ha":833,"x_min":0,"x_max":0,"o":"m 731 542 l 731 136 l 515 136 l 515 347 l 103 347 l 103 542 "},"­":{"ha":750,"x_min":0,"x_max":0,"o":"m 642 347 l 93 347 l 93 542 l 642 542 "},"®":{"ha":872,"x_min":0,"x_max":0,"o":"m 775 693 b 435 365 775 463 600 365 b 96 693 271 365 96 463 b 435 1021 96 925 271 1021 b 775 693 600 1021 775 925 m 435 446 b 676 693 553 446 676 513 b 435 942 676 875 553 942 b 193 693 315 942 193 875 b 435 446 193 513 315 446 m 494 539 l 424 653 l 397 653 l 397 539 l 304 539 l 304 864 l 432 864 b 578 758 522 864 578 831 b 515 668 578 708 550 683 l 604 539 m 397 800 l 397 715 l 435 715 b 482 758 458 715 482 728 b 432 800 482 790 458 800 "},"¯":{"ha":485,"x_min":0,"x_max":0,"o":"m 42 821 l 42 999 l 443 999 l 443 821 "},"°":{"ha":833,"x_min":0,"x_max":0,"o":"m 263 757 b 315 678 263 701 285 678 b 368 757 347 678 368 701 b 315 835 368 813 347 835 b 263 757 285 835 263 813 m 569 757 b 315 518 569 604 453 518 b 61 757 179 518 61 604 b 315 996 61 910 179 996 b 569 757 453 996 569 910 "},"±":{"ha":833,"x_min":0,"x_max":0,"o":"m 524 785 l 524 575 l 731 575 l 731 381 l 524 381 l 524 249 l 308 249 l 308 381 l 103 381 l 103 575 l 308 575 l 308 785 m 731 0 l 103 0 l 103 194 l 731 194 "},"²":{"ha":472,"x_min":0,"x_max":0,"o":"m 15 932 b 235 1107 32 1035 114 1107 b 435 935 351 1107 435 1042 b 278 701 435 839 343 772 l 432 701 l 432 558 l 39 558 l 39 690 l 181 831 b 250 938 217 865 250 897 b 219 972 250 960 239 972 b 181 932 200 972 186 958 "},"³":{"ha":472,"x_min":0,"x_max":0,"o":"m 21 956 b 239 1107 43 1040 119 1107 b 424 956 339 1107 424 1060 b 356 846 424 914 399 869 b 444 721 401 829 444 793 b 231 550 444 618 353 550 b 18 714 114 550 33 624 l 188 714 b 224 685 189 696 206 685 b 263 728 250 685 263 701 b 204 776 263 763 243 776 l 168 776 l 168 903 l 213 903 b 249 944 233 903 249 919 b 218 982 249 968 240 982 b 183 956 201 982 189 972 "},"´":{"ha":503,"x_min":0,"x_max":0,"o":"m 192 1017 l 461 1017 l 238 803 l 42 803 "},"µ":{"ha":843,"x_min":0,"x_max":0,"o":"m 332 722 l 332 251 b 417 164 332 192 365 164 b 511 288 479 164 511 213 l 511 722 l 779 722 l 779 0 l 569 0 l 551 57 b 383 -21 511 4 451 -21 b 332 -14 364 -21 347 -18 l 332 -250 l 64 -250 l 64 722 "},"¶":{"ha":981,"x_min":0,"x_max":0,"o":"m 521 1000 l 521 -249 l 267 -249 l 267 431 b 25 713 183 440 25 494 b 296 1000 25 917 169 1000 m 900 1000 l 900 -249 l 644 -249 l 644 1000 "},"·":{"ha":411,"x_min":0,"x_max":0,"o":"m 64 306 l 64 549 l 346 549 l 346 306 "},"¸":{"ha":564,"x_min":0,"x_max":0,"o":"m 518 -197 b 286 -372 518 -299 438 -372 b 46 -192 144 -372 60 -300 l 222 -192 b 283 -243 226 -217 242 -243 b 342 -196 322 -243 342 -221 b 210 -139 342 -160 304 -139 l 224 31 l 375 31 l 378 -49 b 518 -197 474 -69 518 -124 "},"¹":{"ha":472,"x_min":0,"x_max":0,"o":"m 51 558 l 51 704 l 156 704 l 156 919 l 51 861 l 51 1026 l 164 1094 l 338 1094 l 338 704 l 428 704 l 428 558 "},"º":{"ha":725,"x_min":0,"x_max":0,"o":"m 56 715 b 354 1019 56 961 213 1019 b 653 715 496 1019 653 964 b 354 404 653 464 496 404 b 56 715 213 404 56 467 m 285 715 b 356 560 285 599 308 560 b 425 715 401 560 425 599 b 354 864 425 831 400 864 b 285 715 308 864 285 831 m 639 0 l 72 0 l 72 194 l 639 194 "},"»":{"ha":817,"x_min":0,"x_max":0,"o":"m 607 119 l 401 119 l 517 428 l 385 722 l 593 722 l 775 435 m 267 119 l 61 119 l 176 428 l 44 722 l 253 722 l 433 435 "},"¼":{"ha":1222,"x_min":0,"x_max":0,"o":"m 431 -125 l 226 -125 l 832 1097 l 1038 1097 m 88 436 l 88 582 l 192 582 l 192 797 l 88 739 l 88 904 l 200 972 l 374 972 l 374 582 l 464 582 l 464 436 m 1086 350 l 1086 239 l 1133 239 l 1133 94 l 1086 94 l 1086 0 l 924 0 l 924 94 l 696 94 l 696 231 l 814 536 l 985 536 l 878 239 l 924 239 l 924 269 l 944 350 "},"½":{"ha":1222,"x_min":0,"x_max":0,"o":"m 418 -125 l 214 -125 l 819 1097 l 1025 1097 m 81 436 l 81 582 l 185 582 l 185 797 l 81 739 l 81 904 l 193 972 l 367 972 l 367 582 l 457 582 l 457 436 m 721 374 b 940 549 738 476 819 549 b 1140 376 1057 549 1140 483 b 983 143 1140 281 1049 214 l 1138 143 l 1138 0 l 744 0 l 744 132 l 886 272 b 956 379 922 307 956 339 b 925 414 956 401 944 414 b 886 374 906 414 892 400 "},"¾":{"ha":1222,"x_min":0,"x_max":0,"o":"m 428 -125 l 224 -125 l 829 1097 l 1035 1097 m 1090 350 l 1090 239 l 1138 239 l 1138 94 l 1090 94 l 1090 0 l 928 0 l 928 94 l 700 94 l 700 231 l 818 536 l 989 536 l 882 239 l 928 239 l 928 269 l 949 350 m 88 842 b 306 993 110 926 186 993 b 490 842 406 993 490 946 b 422 732 490 800 465 756 b 511 607 468 715 511 679 b 297 436 511 504 419 436 b 85 600 181 436 100 510 l 254 600 b 290 571 256 582 272 571 b 329 614 317 571 329 588 b 271 663 329 649 310 663 l 235 663 l 235 789 l 279 789 b 315 831 300 789 315 806 b 285 868 315 854 307 868 b 250 842 268 868 256 858 "},"¿":{"ha":772,"x_min":0,"x_max":0,"o":"m 718 7 b 365 -271 700 -143 560 -271 b 40 -26 157 -271 40 -172 b 200 276 40 85 86 143 b 242 419 235 317 242 361 l 503 419 b 417 146 503 281 490 233 b 317 -15 333 46 317 24 b 369 -74 317 -53 338 -74 b 439 7 403 -74 428 -50 m 517 750 l 517 499 l 224 499 l 224 750 "},"À":{"ha":1028,"x_min":0,"x_max":0,"o":"m 725 0 l 661 218 l 351 218 l 288 0 l -4 0 l 363 1000 l 663 1000 l 1032 0 m 407 410 l 607 410 l 508 749 m 696 1075 l 499 1075 l 276 1289 l 546 1289 "},"Á":{"ha":1028,"x_min":0,"x_max":0,"o":"m 725 0 l 661 218 l 351 218 l 288 0 l -4 0 l 363 1000 l 663 1000 l 1032 0 m 407 410 l 607 410 l 508 749 m 478 1289 l 747 1289 l 524 1075 l 328 1075 "},"Â":{"ha":1028,"x_min":0,"x_max":0,"o":"m 725 0 l 661 218 l 351 218 l 288 0 l -4 0 l 363 1000 l 663 1000 l 1032 0 m 407 410 l 607 410 l 508 749 m 458 1079 l 211 1079 l 400 1293 l 614 1293 l 803 1079 l 556 1079 l 507 1158 "},"Ã":{"ha":1028,"x_min":0,"x_max":0,"o":"m 725 0 l 661 218 l 351 218 l 288 0 l -4 0 l 363 1000 l 663 1000 l 1032 0 m 407 410 l 607 410 l 508 749 m 603 1072 b 413 1122 519 1072 475 1122 b 286 1076 379 1122 343 1108 l 286 1250 b 418 1290 333 1278 369 1290 b 608 1239 499 1290 544 1239 b 729 1285 640 1239 672 1253 l 729 1111 b 603 1072 682 1083 647 1072 "},"Ä":{"ha":1028,"x_min":0,"x_max":0,"o":"m 725 0 l 661 218 l 351 218 l 288 0 l -4 0 l 363 1000 l 663 1000 l 1032 0 m 407 410 l 607 410 l 508 749 m 222 1085 l 222 1285 l 463 1285 l 463 1085 m 553 1085 l 553 1285 l 793 1285 l 793 1085 "},"Å":{"ha":1028,"x_min":0,"x_max":0,"o":"m 729 1099 b 675 967 729 1047 711 1001 l 1032 0 l 725 0 l 661 218 l 351 218 l 288 0 l -4 0 l 347 961 b 289 1099 308 996 289 1044 b 508 1285 289 1199 360 1285 b 729 1099 657 1285 729 1199 m 407 410 l 607 410 l 508 749 m 460 1099 b 508 1040 460 1058 479 1040 b 557 1099 536 1040 557 1058 b 508 1157 557 1139 538 1157 b 460 1099 479 1157 460 1139 "},"Æ":{"ha":1400,"x_min":0,"x_max":0,"o":"m 1351 0 l 676 0 l 676 218 l 397 218 l 297 0 l -4 0 l 490 1000 l 1351 1000 l 1351 794 l 967 794 l 967 600 l 1311 600 l 1311 407 l 967 407 l 967 203 l 1351 203 m 676 410 l 676 825 l 483 410 "},"Ç":{"ha":1061,"x_min":0,"x_max":0,"o":"m 753 -197 b 519 -372 753 -299 671 -372 b 281 -192 378 -372 293 -300 l 457 -192 b 518 -243 460 -217 475 -243 b 576 -196 557 -243 576 -221 b 443 -139 576 -160 539 -139 l 454 -15 b 47 503 211 15 47 193 b 546 1021 47 838 238 1021 b 1010 654 790 1021 971 892 l 721 654 b 546 822 696 775 629 822 b 347 503 431 822 347 732 b 539 178 347 269 433 178 b 724 383 644 178 713 242 l 1017 383 b 611 -17 985 136 843 6 l 613 -49 b 753 -197 708 -69 753 -124 "},"È":{"ha":853,"x_min":0,"x_max":0,"o":"m 764 408 l 369 408 l 369 203 l 804 203 l 804 0 l 79 0 l 79 1000 l 804 1000 l 804 794 l 369 794 l 369 600 l 764 600 m 597 1075 l 400 1075 l 178 1289 l 447 1289 "},"É":{"ha":853,"x_min":0,"x_max":0,"o":"m 764 408 l 369 408 l 369 203 l 804 203 l 804 0 l 79 0 l 79 1000 l 804 1000 l 804 794 l 369 794 l 369 600 l 764 600 m 456 1289 l 725 1289 l 501 1075 l 306 1075 "},"Ê":{"ha":853,"x_min":0,"x_max":0,"o":"m 764 408 l 369 408 l 369 203 l 804 203 l 804 0 l 79 0 l 79 1000 l 804 1000 l 804 794 l 369 794 l 369 600 l 764 600 m 394 1079 l 147 1079 l 336 1293 l 550 1293 l 739 1079 l 492 1079 l 443 1158 "},"Ë":{"ha":853,"x_min":0,"x_max":0,"o":"m 764 408 l 369 408 l 369 203 l 804 203 l 804 0 l 79 0 l 79 1000 l 804 1000 l 804 794 l 369 794 l 369 600 l 764 600 m 157 1085 l 157 1285 l 397 1285 l 397 1085 m 488 1085 l 488 1285 l 728 1285 l 728 1085 "},"Ì":{"ha":449,"x_min":0,"x_max":0,"o":"m 369 1000 l 369 0 l 79 0 l 79 1000 m 422 1075 l 225 1075 l 3 1289 l 272 1289 "},"Í":{"ha":449,"x_min":0,"x_max":0,"o":"m 369 1000 l 369 0 l 79 0 l 79 1000 m 193 1289 l 463 1289 l 239 1075 l 43 1075 "},"Î":{"ha":449,"x_min":0,"x_max":0,"o":"m 369 1000 l 369 0 l 79 0 l 79 1000 m 175 1079 l -72 1079 l 117 1293 l 331 1293 l 519 1079 l 272 1079 l 224 1158 "},"Ï":{"ha":449,"x_min":0,"x_max":0,"o":"m 369 1000 l 369 0 l 79 0 l 79 1000 m -60 1085 l -60 1285 l 181 1285 l 181 1085 m 271 1085 l 271 1285 l 511 1285 l 511 1085 "},"Ð":{"ha":1054,"x_min":0,"x_max":0,"o":"m 83 426 l 10 426 l 10 625 l 83 625 l 83 1000 l 483 1000 b 1007 500 822 1000 1007 838 b 486 0 1007 168 829 0 l 83 0 m 374 426 l 374 197 l 486 197 b 714 500 622 197 714 288 b 483 803 714 708 621 803 l 374 803 l 374 625 l 508 625 l 508 426 "},"Ñ":{"ha":1039,"x_min":0,"x_max":0,"o":"m 960 1000 l 960 0 l 672 0 l 326 617 l 326 0 l 79 0 l 79 1000 l 385 1000 l 713 413 l 713 1000 m 618 1072 b 428 1122 535 1072 490 1122 b 301 1076 394 1122 358 1108 l 301 1250 b 433 1290 349 1278 385 1290 b 624 1239 514 1290 560 1239 b 744 1285 656 1239 688 1253 l 744 1111 b 618 1072 697 1083 663 1072 "},"Ò":{"ha":1115,"x_min":0,"x_max":0,"o":"m 557 183 b 775 500 667 183 775 260 b 557 818 775 740 665 818 b 340 499 446 818 340 740 b 557 183 340 258 451 183 m 557 -21 b 47 499 303 -21 47 113 b 557 1021 47 878 301 1021 b 1068 500 814 1021 1068 886 b 557 -21 1068 121 813 -21 m 708 1075 l 511 1075 l 289 1289 l 558 1289 "},"Ó":{"ha":1115,"x_min":0,"x_max":0,"o":"m 557 183 b 775 500 667 183 775 260 b 557 818 775 740 665 818 b 340 499 446 818 340 740 b 557 183 340 258 451 183 m 557 -21 b 47 499 303 -21 47 113 b 557 1021 47 878 301 1021 b 1068 500 814 1021 1068 886 b 557 -21 1068 121 813 -21 m 563 1289 l 832 1289 l 608 1075 l 413 1075 "},"Ô":{"ha":1115,"x_min":0,"x_max":0,"o":"m 557 183 b 775 500 667 183 775 260 b 557 818 775 740 665 818 b 340 499 446 818 340 740 b 557 183 340 258 451 183 m 557 -21 b 47 499 303 -21 47 113 b 557 1021 47 878 301 1021 b 1068 500 814 1021 1068 886 b 557 -21 1068 121 813 -21 m 507 1079 l 260 1079 l 449 1293 l 663 1293 l 851 1079 l 604 1079 l 556 1158 "},"Õ":{"ha":1115,"x_min":0,"x_max":0,"o":"m 557 183 b 775 500 667 183 775 260 b 557 818 775 740 665 818 b 340 499 446 818 340 740 b 557 183 340 258 451 183 m 557 -21 b 47 499 303 -21 47 113 b 557 1021 47 878 301 1021 b 1068 500 814 1021 1068 886 b 557 -21 1068 121 813 -21 m 653 1072 b 463 1122 569 1072 525 1122 b 336 1076 429 1122 393 1108 l 336 1250 b 468 1290 383 1278 419 1290 b 658 1239 549 1290 594 1239 b 779 1285 690 1239 722 1253 l 779 1111 b 653 1072 732 1083 697 1072 "},"Ö":{"ha":1115,"x_min":0,"x_max":0,"o":"m 557 183 b 775 500 667 183 775 260 b 557 818 775 740 665 818 b 340 499 446 818 340 740 b 557 183 340 258 451 183 m 557 -21 b 47 499 303 -21 47 113 b 557 1021 47 878 301 1021 b 1068 500 814 1021 1068 886 b 557 -21 1068 121 813 -21 m 271 1085 l 271 1285 l 511 1285 l 511 1085 m 601 1085 l 601 1285 l 842 1285 l 842 1085 "},"×":{"ha":833,"x_min":0,"x_max":0,"o":"m 267 735 l 415 586 l 565 735 l 707 593 l 558 444 l 707 294 l 565 153 l 415 301 l 267 153 l 125 294 l 274 444 l 125 593 "},"Ø":{"ha":1115,"x_min":0,"x_max":0,"o":"m 557 -21 b 432 -10 515 -21 472 -17 l 368 -153 l 161 -153 l 258 57 b 47 499 133 133 47 272 b 557 1021 47 878 301 1021 b 700 1004 606 1021 653 1015 l 763 1139 l 968 1139 l 872 932 b 1068 500 988 854 1068 717 b 557 -21 1068 121 813 -21 m 340 499 b 389 289 340 401 358 335 l 619 808 b 557 818 599 814 578 818 b 340 499 446 818 340 740 m 557 183 b 775 500 667 183 775 260 b 731 699 775 589 757 654 l 506 190 b 557 183 522 185 539 183 "},"Ù":{"ha":1032,"x_min":0,"x_max":0,"o":"m 363 1000 l 363 328 b 517 181 363 233 419 181 b 678 328 614 181 678 233 l 678 1000 l 960 1000 l 960 344 b 515 -21 960 119 801 -21 b 72 344 229 -21 72 121 l 72 1000 m 629 1075 l 432 1075 l 210 1289 l 479 1289 "},"Ú":{"ha":1032,"x_min":0,"x_max":0,"o":"m 363 1000 l 363 328 b 517 181 363 233 419 181 b 678 328 614 181 678 233 l 678 1000 l 960 1000 l 960 344 b 515 -21 960 119 801 -21 b 72 344 229 -21 72 121 l 72 1000 m 560 1289 l 829 1289 l 606 1075 l 410 1075 "},"Û":{"ha":1032,"x_min":0,"x_max":0,"o":"m 363 1000 l 363 328 b 517 181 363 233 419 181 b 678 328 614 181 678 233 l 678 1000 l 960 1000 l 960 344 b 515 -21 960 119 801 -21 b 72 344 229 -21 72 121 l 72 1000 m 465 1079 l 218 1079 l 407 1293 l 621 1293 l 810 1079 l 563 1079 l 514 1158 "},"Ü":{"ha":1032,"x_min":0,"x_max":0,"o":"m 363 1000 l 363 328 b 517 181 363 233 419 181 b 678 328 614 181 678 233 l 678 1000 l 960 1000 l 960 344 b 515 -21 960 119 801 -21 b 72 344 229 -21 72 121 l 72 1000 m 231 1085 l 231 1285 l 471 1285 l 471 1085 m 561 1085 l 561 1285 l 801 1285 l 801 1085 "},"Ý":{"ha":1006,"x_min":0,"x_max":0,"o":"m 364 0 l 364 400 l 0 1000 l 313 1000 l 508 619 l 721 1000 l 1006 1000 l 642 400 l 642 0 m 549 1289 l 818 1289 l 594 1075 l 399 1075 "},"Þ":{"ha":922,"x_min":0,"x_max":0,"o":"m 369 1000 l 369 850 l 431 850 b 886 510 713 850 886 765 b 439 169 886 263 718 169 l 369 169 l 369 0 l 79 0 l 79 1000 m 369 654 l 369 364 l 442 364 b 593 510 519 364 593 401 b 433 654 593 618 524 654 "},"ß":{"ha":922,"x_min":0,"x_max":0,"o":"m 625 -19 b 333 213 444 -19 354 74 l 564 213 b 611 139 567 164 583 139 b 663 213 640 139 663 165 b 551 339 663 264 626 299 b 414 526 444 397 414 454 b 503 753 414 633 503 661 b 424 833 503 806 471 833 b 332 683 363 833 332 794 l 332 483 l 283 0 l 64 0 l 64 711 b 408 1021 64 888 176 1021 b 749 790 628 1021 749 932 b 649 571 749 661 649 636 b 725 479 649 539 665 511 b 906 235 850 413 906 339 b 625 -19 906 104 821 -19 "},"à":{"ha":811,"x_min":0,"x_max":0,"o":"m 47 497 b 410 743 92 669 222 743 b 753 469 621 743 753 640 l 753 0 l 546 0 b 514 76 535 25 524 50 b 285 -21 463 18 389 -21 b 32 206 129 -21 32 67 b 338 436 32 324 103 399 l 485 460 l 485 488 b 403 568 485 539 454 568 b 315 497 353 568 325 543 m 368 154 b 485 296 444 154 485 211 l 485 322 b 296 219 335 292 296 276 b 368 154 296 178 321 154 m 563 803 l 365 803 l 143 1017 l 413 1017 "},"á":{"ha":811,"x_min":0,"x_max":0,"o":"m 47 497 b 410 743 92 669 222 743 b 753 469 621 743 753 640 l 753 0 l 546 0 b 514 76 535 25 524 50 b 285 -21 463 18 389 -21 b 32 206 129 -21 32 67 b 338 436 32 324 103 399 l 485 460 l 485 488 b 403 568 485 539 454 568 b 315 497 353 568 325 543 m 368 154 b 485 296 444 154 485 211 l 485 322 b 296 219 335 292 296 276 b 368 154 296 178 321 154 m 449 1017 l 718 1017 l 494 803 l 299 803 "},"â":{"ha":811,"x_min":0,"x_max":0,"o":"m 47 497 b 410 743 92 669 222 743 b 753 469 621 743 753 640 l 753 0 l 546 0 b 514 76 535 25 524 50 b 285 -21 463 18 389 -21 b 32 206 129 -21 32 67 b 338 436 32 324 103 399 l 485 460 l 485 488 b 403 568 485 539 454 568 b 315 497 353 568 325 543 m 368 154 b 485 296 444 154 485 211 l 485 322 b 296 219 335 292 296 276 b 368 154 296 178 321 154 m 358 807 l 111 807 l 300 1021 l 514 1021 l 703 807 l 456 807 l 407 886 "},"ã":{"ha":811,"x_min":0,"x_max":0,"o":"m 47 497 b 410 743 92 669 222 743 b 753 469 621 743 753 640 l 753 0 l 546 0 b 514 76 535 25 524 50 b 285 -21 463 18 389 -21 b 32 206 129 -21 32 67 b 338 436 32 324 103 399 l 485 460 l 485 488 b 403 568 485 539 454 568 b 315 497 353 568 325 543 m 368 154 b 485 296 444 154 485 211 l 485 322 b 296 219 335 292 296 276 b 368 154 296 178 321 154 m 500 800 b 310 850 417 800 372 850 b 183 804 276 850 240 836 l 183 978 b 315 1018 231 1006 267 1018 b 506 967 396 1018 442 967 b 626 1013 538 967 569 981 l 626 839 b 500 800 579 811 544 800 "},"ä":{"ha":811,"x_min":0,"x_max":0,"o":"m 47 497 b 410 743 92 669 222 743 b 753 469 621 743 753 640 l 753 0 l 546 0 b 514 76 535 25 524 50 b 285 -21 463 18 389 -21 b 32 206 129 -21 32 67 b 338 436 32 324 103 399 l 485 460 l 485 488 b 403 568 485 539 454 568 b 315 497 353 568 325 543 m 368 154 b 485 296 444 154 485 211 l 485 322 b 296 219 335 292 296 276 b 368 154 296 178 321 154 m 113 813 l 113 1013 l 353 1013 l 353 813 m 443 813 l 443 1013 l 683 1013 l 683 813 "},"å":{"ha":811,"x_min":0,"x_max":0,"o":"m 47 497 b 410 743 92 669 222 743 b 753 469 621 743 753 640 l 753 0 l 546 0 b 514 76 535 25 524 50 b 285 -21 463 18 389 -21 b 32 206 129 -21 32 67 b 338 436 32 324 103 399 l 485 460 l 485 488 b 403 568 485 539 454 568 b 315 497 353 568 325 543 m 368 154 b 485 296 444 154 485 211 l 485 322 b 296 219 335 292 296 276 b 368 154 296 178 321 154 m 353 979 b 401 921 353 940 372 921 b 450 979 429 921 450 939 b 401 1038 450 1021 431 1038 b 353 979 372 1038 353 1019 m 621 979 b 401 793 621 878 551 793 b 181 979 253 793 181 878 b 401 1167 181 1081 253 1167 b 621 979 550 1167 621 1081 "},"æ":{"ha":1300,"x_min":0,"x_max":0,"o":"m 1251 229 b 876 -21 1222 101 1114 -21 b 575 118 747 -21 643 33 b 292 -21 521 39 428 -21 b 32 206 132 -21 32 61 b 338 444 32 326 103 407 l 485 468 l 485 488 b 403 568 485 539 454 568 b 315 497 353 568 325 543 l 47 497 b 410 743 92 669 222 743 b 638 669 500 743 579 714 b 871 743 700 715 778 743 b 1257 296 1113 743 1257 597 l 757 296 b 885 161 771 194 815 161 b 979 229 939 161 971 190 m 867 574 b 757 444 807 574 768 542 l 981 444 b 867 574 974 538 933 574 m 485 322 l 383 300 b 296 219 315 285 296 258 b 368 154 296 176 322 154 b 485 282 433 154 485 204 "},"ç":{"ha":843,"x_min":0,"x_max":0,"o":"m 643 -197 b 410 -372 643 -299 561 -372 b 171 -192 268 -372 183 -300 l 347 -192 b 408 -243 350 -217 365 -243 b 467 -196 447 -243 467 -221 b 333 -139 467 -160 429 -139 l 344 -15 b 40 354 147 11 40 142 b 429 743 40 594 189 743 b 806 468 632 743 778 631 l 528 468 b 433 564 518 528 476 564 b 317 353 364 564 317 510 b 425 158 317 211 367 158 b 528 271 476 158 517 200 l 806 271 b 501 -15 772 125 675 10 l 503 -49 b 643 -197 599 -69 643 -124 "},"è":{"ha":863,"x_min":0,"x_max":0,"o":"m 815 229 b 435 -21 782 88 650 -21 b 40 367 196 -21 40 131 b 431 743 40 601 193 743 b 821 303 669 743 821 592 l 313 303 b 444 163 325 197 372 163 b 543 229 499 163 535 190 m 428 575 b 313 444 367 575 325 540 l 546 444 b 428 575 538 536 493 575 m 572 803 l 375 803 l 153 1017 l 422 1017 "},"é":{"ha":863,"x_min":0,"x_max":0,"o":"m 815 229 b 435 -21 782 88 650 -21 b 40 367 196 -21 40 131 b 431 743 40 601 193 743 b 821 303 669 743 821 592 l 313 303 b 444 163 325 197 372 163 b 543 229 499 163 535 190 m 428 575 b 313 444 367 575 325 540 l 546 444 b 428 575 538 536 493 575 m 438 1017 l 707 1017 l 483 803 l 288 803 "},"ê":{"ha":863,"x_min":0,"x_max":0,"o":"m 815 229 b 435 -21 782 88 650 -21 b 40 367 196 -21 40 131 b 431 743 40 601 193 743 b 821 303 669 743 821 592 l 313 303 b 444 163 325 197 372 163 b 543 229 499 163 535 190 m 428 575 b 313 444 367 575 325 540 l 546 444 b 428 575 538 536 493 575 m 371 807 l 124 807 l 313 1021 l 526 1021 l 715 807 l 468 807 l 419 886 "},"ë":{"ha":863,"x_min":0,"x_max":0,"o":"m 815 229 b 435 -21 782 88 650 -21 b 40 367 196 -21 40 131 b 431 743 40 601 193 743 b 821 303 669 743 821 592 l 313 303 b 444 163 325 197 372 163 b 543 229 499 163 535 190 m 428 575 b 313 444 367 575 325 540 l 546 444 b 428 575 538 536 493 575 m 135 813 l 135 1013 l 375 1013 l 375 813 m 465 813 l 465 1013 l 706 1013 l 706 813 "},"ì":{"ha":399,"x_min":0,"x_max":0,"o":"m 382 803 l 185 803 l -37 1017 l 232 1017 m 65 0 l 65 722 l 333 722 l 333 0 "},"í":{"ha":399,"x_min":0,"x_max":0,"o":"m 168 1017 l 438 1017 l 214 803 l 18 803 m 65 0 l 65 722 l 333 722 l 333 0 "},"î":{"ha":399,"x_min":0,"x_max":0,"o":"m 65 0 l 65 722 l 333 722 l 333 0 m 151 807 l -96 807 l 93 1021 l 307 1021 l 496 807 l 249 807 l 200 886 "},"ï":{"ha":399,"x_min":0,"x_max":0,"o":"m -86 813 l -86 1013 l 154 1013 l 154 813 m 244 813 l 244 1013 l 485 1013 l 485 813 m 65 0 l 65 722 l 333 722 l 333 0 "},"ð":{"ha":818,"x_min":0,"x_max":0,"o":"m 143 1046 b 432 974 247 1036 346 1013 l 460 1001 l 668 1001 l 564 894 b 778 449 700 789 778 633 b 417 -21 778 153 669 -21 b 40 325 203 -21 40 85 b 351 674 40 535 164 674 b 471 636 393 674 447 658 b 413 740 457 679 438 713 l 392 719 l 182 719 l 285 824 b 142 868 240 843 190 857 m 407 492 b 321 325 346 492 321 439 b 414 161 321 221 347 161 b 499 354 468 161 499 218 b 407 492 499 439 471 492 "},"ñ":{"ha":844,"x_min":0,"x_max":0,"o":"m 64 0 l 64 722 l 292 722 l 313 642 b 531 743 361 704 433 743 b 788 463 692 743 788 647 l 788 0 l 518 0 l 518 463 b 438 558 518 531 488 558 b 332 422 369 558 332 499 l 332 0 m 522 800 b 332 850 439 800 394 850 b 206 804 299 850 263 836 l 206 978 b 338 1018 253 1006 289 1018 b 528 967 418 1018 464 967 b 649 1013 560 967 592 981 l 649 839 b 522 800 601 811 567 800 "},"ò":{"ha":876,"x_min":0,"x_max":0,"o":"m 40 364 b 438 743 40 624 204 743 b 836 364 671 743 836 624 b 438 -21 836 104 672 -21 b 40 364 208 -21 40 103 m 315 364 b 439 157 315 214 360 157 b 563 364 522 157 563 211 b 438 565 563 517 519 565 b 315 364 354 565 315 514 m 583 803 l 386 803 l 164 1017 l 433 1017 "},"ó":{"ha":876,"x_min":0,"x_max":0,"o":"m 40 364 b 438 743 40 624 204 743 b 836 364 671 743 836 624 b 438 -21 836 104 672 -21 b 40 364 208 -21 40 103 m 315 364 b 439 157 315 214 360 157 b 563 364 522 157 563 211 b 438 565 563 517 519 565 b 315 364 354 565 315 514 m 450 1017 l 719 1017 l 496 803 l 300 803 "},"ô":{"ha":876,"x_min":0,"x_max":0,"o":"m 40 364 b 438 743 40 624 204 743 b 836 364 671 743 836 624 b 438 -21 836 104 672 -21 b 40 364 208 -21 40 103 m 315 364 b 439 157 315 214 360 157 b 563 364 522 157 563 211 b 438 565 563 517 519 565 b 315 364 354 565 315 514 m 389 807 l 142 807 l 331 1021 l 544 1021 l 733 807 l 486 807 l 438 886 "},"õ":{"ha":876,"x_min":0,"x_max":0,"o":"m 40 364 b 438 743 40 624 204 743 b 836 364 671 743 836 624 b 438 -21 836 104 672 -21 b 40 364 208 -21 40 103 m 315 364 b 439 157 315 214 360 157 b 563 364 522 157 563 211 b 438 565 563 517 519 565 b 315 364 354 565 315 514 m 533 800 b 343 850 450 800 406 850 b 217 804 310 850 274 836 l 217 978 b 349 1018 264 1006 300 1018 b 539 967 429 1018 475 967 b 660 1013 571 967 603 981 l 660 839 b 533 800 613 811 578 800 "},"ö":{"ha":876,"x_min":0,"x_max":0,"o":"m 40 364 b 438 743 40 624 204 743 b 836 364 671 743 836 624 b 438 -21 836 104 672 -21 b 40 364 208 -21 40 103 m 315 364 b 439 157 315 214 360 157 b 563 364 522 157 563 211 b 438 565 563 517 519 565 b 315 364 354 565 315 514 m 153 813 l 153 1013 l 393 1013 l 393 813 m 483 813 l 483 1013 l 724 1013 l 724 813 "},"÷":{"ha":833,"x_min":0,"x_max":0,"o":"m 290 83 l 290 303 l 543 303 l 543 83 m 290 586 l 290 806 l 543 806 l 543 586 m 731 347 l 103 347 l 103 542 l 731 542 "},"ø":{"ha":876,"x_min":0,"x_max":0,"o":"m 40 364 b 438 743 40 624 204 743 b 533 735 471 743 504 740 l 604 875 l 792 875 l 692 675 b 836 364 782 615 836 513 b 438 -21 836 104 672 -21 b 346 -14 406 -21 375 -18 l 276 -153 l 85 -153 l 185 47 b 40 364 94 110 40 214 m 315 364 b 329 256 315 318 321 285 l 478 560 b 438 565 465 563 453 565 b 315 364 354 565 315 514 m 563 364 b 549 465 563 407 557 439 l 401 163 b 439 157 414 158 425 157 b 563 364 522 157 563 211 "},"ù":{"ha":836,"x_min":0,"x_max":0,"o":"m 325 722 l 325 251 b 407 164 325 192 356 164 b 504 296 471 164 504 219 l 504 722 l 772 722 l 772 0 l 546 0 l 525 74 b 314 -21 478 15 408 -21 b 57 258 149 -21 57 75 l 57 722 m 522 803 l 325 803 l 103 1017 l 372 1017 "},"ú":{"ha":836,"x_min":0,"x_max":0,"o":"m 325 722 l 325 251 b 407 164 325 192 356 164 b 504 296 471 164 504 219 l 504 722 l 772 722 l 772 0 l 546 0 l 525 74 b 314 -21 478 15 408 -21 b 57 258 149 -21 57 75 l 57 722 m 463 1017 l 732 1017 l 508 803 l 313 803 "},"û":{"ha":836,"x_min":0,"x_max":0,"o":"m 325 722 l 325 251 b 407 164 325 192 356 164 b 504 296 471 164 504 219 l 504 722 l 772 722 l 772 0 l 546 0 l 525 74 b 314 -21 478 15 408 -21 b 57 258 149 -21 57 75 l 57 722 m 363 807 l 115 807 l 304 1021 l 518 1021 l 707 807 l 460 807 l 411 886 "},"ü":{"ha":836,"x_min":0,"x_max":0,"o":"m 325 722 l 325 251 b 407 164 325 192 356 164 b 504 296 471 164 504 219 l 504 722 l 772 722 l 772 0 l 546 0 l 525 74 b 314 -21 478 15 408 -21 b 57 258 149 -21 57 75 l 57 722 m 129 813 l 129 1013 l 369 1013 l 369 813 m 460 813 l 460 1013 l 700 1013 l 700 813 "},"ý":{"ha":828,"x_min":0,"x_max":0,"o":"m 829 722 l 568 1 b 281 -271 494 -203 419 -271 b 138 -251 240 -271 192 -264 l 138 -71 b 236 -87 194 -85 221 -87 b 313 0 275 -87 293 -67 l 268 0 l -1 722 l 285 722 l 417 192 l 558 722 m 469 1017 l 739 1017 l 515 803 l 319 803 "},"þ":{"ha":893,"x_min":0,"x_max":0,"o":"m 64 -249 l 64 1000 l 333 1000 l 333 661 b 539 743 383 710 451 743 b 853 371 728 743 853 615 b 525 -21 853 104 703 -21 b 335 51 449 -21 383 7 l 335 -249 m 583 367 b 457 551 583 497 533 551 b 326 369 381 551 326 493 b 453 171 326 221 382 171 b 583 367 526 171 583 229 "},"ÿ":{"ha":828,"x_min":0,"x_max":0,"o":"m 829 722 l 568 1 b 281 -271 494 -203 419 -271 b 138 -251 240 -271 192 -264 l 138 -71 b 236 -87 194 -85 221 -87 b 313 0 275 -87 293 -67 l 268 0 l -1 722 l 285 722 l 417 192 l 558 722 m 128 813 l 128 1013 l 368 1013 l 368 813 m 458 813 l 458 1013 l 699 1013 l 699 813 "},"Ā":{"ha":1028,"x_min":0,"x_max":0,"o":"m 725 0 l 661 218 l 351 218 l 288 0 l -4 0 l 363 1000 l 663 1000 l 1032 0 m 407 410 l 607 410 l 508 749 m 306 1093 l 306 1271 l 707 1271 l 707 1093 "},"ā":{"ha":811,"x_min":0,"x_max":0,"o":"m 47 497 b 410 743 92 669 222 743 b 753 469 621 743 753 640 l 753 0 l 546 0 b 514 76 535 25 524 50 b 285 -21 463 18 389 -21 b 32 206 129 -21 32 67 b 338 436 32 324 103 399 l 485 460 l 485 488 b 403 568 485 539 454 568 b 315 497 353 568 325 543 m 368 154 b 485 296 444 154 485 211 l 485 322 b 296 219 335 292 296 276 b 368 154 296 178 321 154 m 213 821 l 213 999 l 614 999 l 614 821 "},"Ă":{"ha":1028,"x_min":0,"x_max":0,"o":"m 725 0 l 661 218 l 351 218 l 288 0 l -4 0 l 363 1000 l 663 1000 l 1032 0 m 407 410 l 607 410 l 508 749 m 517 1082 b 279 1293 381 1082 296 1149 l 471 1293 b 517 1224 472 1246 489 1224 b 561 1293 544 1224 560 1246 l 754 1293 b 517 1082 738 1143 649 1082 "},"ă":{"ha":811,"x_min":0,"x_max":0,"o":"m 47 497 b 410 743 92 669 222 743 b 753 469 621 743 753 640 l 753 0 l 546 0 b 514 76 535 25 524 50 b 285 -21 463 18 389 -21 b 32 206 129 -21 32 67 b 338 436 32 324 103 399 l 485 460 l 485 488 b 403 568 485 539 454 568 b 315 497 353 568 325 543 m 368 154 b 485 296 444 154 485 211 l 485 322 b 296 219 335 292 296 276 b 368 154 296 178 321 154 m 400 810 b 163 1021 264 810 179 876 l 354 1021 b 400 951 356 974 372 951 b 444 1021 428 951 443 974 l 638 1021 b 400 810 621 871 532 810 "},"Ą":{"ha":1028,"x_min":0,"x_max":0,"o":"m 792 -365 b 571 -192 654 -365 571 -301 b 722 8 571 -112 628 -36 l 661 218 l 351 218 l 288 0 l -4 0 l 363 1000 l 663 1000 l 1032 0 l 878 0 b 746 -167 813 -39 746 -97 b 806 -236 746 -215 776 -236 b 853 -200 829 -236 847 -224 l 1038 -200 b 792 -365 1011 -287 942 -365 m 407 410 l 607 410 l 508 749 "},"ą":{"ha":811,"x_min":0,"x_max":0,"o":"m 847 -200 b 601 -365 821 -287 751 -365 b 381 -190 464 -365 381 -301 b 540 11 381 -110 440 -31 l 514 76 b 285 -21 463 18 389 -21 b 32 206 129 -21 32 67 b 338 436 32 324 103 399 l 485 460 l 485 488 b 403 568 485 539 454 568 b 315 497 353 568 325 543 l 47 497 b 410 743 92 669 222 743 b 753 469 621 743 753 640 l 753 0 l 688 0 b 556 -167 622 -39 556 -96 b 615 -235 556 -215 586 -235 b 663 -200 639 -235 657 -222 l 847 -200 m 485 322 b 296 219 338 292 296 276 b 368 154 296 178 321 154 b 485 282 433 154 485 204 "},"Ć":{"ha":1061,"x_min":0,"x_max":0,"o":"m 539 178 b 724 383 644 178 713 242 l 1017 383 b 535 -21 982 110 811 -21 b 47 503 249 -21 47 160 b 546 1021 47 838 238 1021 b 1010 654 790 1021 971 892 l 721 654 b 546 822 696 775 629 822 b 347 503 431 822 347 732 b 539 178 347 269 433 178 m 549 1289 l 818 1289 l 594 1075 l 399 1075 "},"ć":{"ha":843,"x_min":0,"x_max":0,"o":"m 806 271 b 425 -21 769 106 647 -21 b 40 354 176 -21 40 115 b 429 743 40 594 189 743 b 806 468 632 743 778 631 l 528 468 b 433 564 518 528 476 564 b 317 353 364 564 317 510 b 425 158 317 211 367 158 b 528 271 476 158 517 200 m 443 1017 l 713 1017 l 489 803 l 293 803 "},"Ĉ":{"ha":1061,"x_min":0,"x_max":0,"o":"m 539 178 b 724 383 644 178 713 242 l 1017 383 b 535 -21 982 110 811 -21 b 47 503 249 -21 47 160 b 546 1021 47 838 238 1021 b 1010 654 790 1021 971 892 l 721 654 b 546 822 696 775 629 822 b 347 503 431 822 347 732 b 539 178 347 269 433 178 m 488 1079 l 240 1079 l 429 1293 l 643 1293 l 832 1079 l 585 1079 l 536 1158 "},"ĉ":{"ha":843,"x_min":0,"x_max":0,"o":"m 806 271 b 425 -21 769 106 647 -21 b 40 354 176 -21 40 115 b 429 743 40 594 189 743 b 806 468 632 743 778 631 l 528 468 b 433 564 518 528 476 564 b 317 353 364 564 317 510 b 425 158 317 211 367 158 b 528 271 476 158 517 200 m 361 807 l 114 807 l 303 1021 l 517 1021 l 706 807 l 458 807 l 410 886 "},"Ċ":{"ha":1061,"x_min":0,"x_max":0,"o":"m 539 178 b 724 383 644 178 713 242 l 1017 383 b 535 -21 982 110 811 -21 b 47 503 249 -21 47 160 b 546 1021 47 838 238 1021 b 1010 654 790 1021 971 892 l 721 654 b 546 822 696 775 629 822 b 347 503 431 822 347 732 b 539 178 347 269 433 178 m 396 1069 l 396 1272 l 679 1272 l 679 1069 "},"ċ":{"ha":843,"x_min":0,"x_max":0,"o":"m 806 271 b 425 -21 769 106 647 -21 b 40 354 176 -21 40 115 b 429 743 40 594 189 743 b 806 468 632 743 778 631 l 528 468 b 433 564 518 528 476 564 b 317 353 364 564 317 510 b 425 158 317 211 367 158 b 528 271 476 158 517 200 m 274 797 l 274 1000 l 557 1000 l 557 797 "},"Č":{"ha":1061,"x_min":0,"x_max":0,"o":"m 539 178 b 724 383 644 178 713 242 l 1017 383 b 535 -21 982 110 811 -21 b 47 503 249 -21 47 160 b 546 1021 47 838 238 1021 b 1010 654 790 1021 971 892 l 721 654 b 546 822 696 775 629 822 b 347 503 431 822 347 732 b 539 178 347 269 433 178 m 532 1219 l 581 1293 l 828 1293 l 639 1079 l 425 1079 l 236 1293 l 483 1293 "},"č":{"ha":843,"x_min":0,"x_max":0,"o":"m 806 271 b 425 -21 769 106 647 -21 b 40 354 176 -21 40 115 b 429 743 40 594 189 743 b 806 468 632 743 778 631 l 528 468 b 433 564 518 528 476 564 b 317 353 364 564 317 510 b 425 158 317 211 367 158 b 528 271 476 158 517 200 m 418 947 l 467 1021 l 714 1021 l 525 807 l 311 807 l 122 1021 l 369 1021 "},"Ď":{"ha":1050,"x_min":0,"x_max":0,"o":"m 479 1000 b 1003 500 818 1000 1003 839 b 482 0 1003 168 826 0 l 79 0 l 79 1000 m 369 803 l 369 199 l 482 199 b 711 500 618 199 711 288 b 479 803 711 710 618 803 m 469 1219 l 518 1293 l 765 1293 l 576 1079 l 363 1079 l 174 1293 l 421 1293 "},"ď":{"ha":1164,"x_min":0,"x_max":0,"o":"m 617 0 l 575 88 b 360 -21 524 25 449 -21 b 40 354 174 -21 40 113 b 363 743 40 606 175 743 b 561 661 450 743 515 711 l 561 1000 l 831 1000 l 831 0 m 311 356 b 442 171 311 226 364 171 b 567 357 513 171 567 225 b 443 551 567 508 510 551 b 311 356 367 551 311 489 m 1158 863 b 894 564 1158 683 1078 583 l 894 678 b 997 794 960 690 997 728 l 929 794 l 929 1000 l 1158 1000 "},"Đ":{"ha":1054,"x_min":0,"x_max":0,"o":"m 83 426 l 10 426 l 10 625 l 83 625 l 83 1000 l 483 1000 b 1007 500 822 1000 1007 838 b 486 0 1007 168 829 0 l 83 0 m 374 426 l 374 197 l 486 197 b 714 500 622 197 714 288 b 483 803 714 708 621 803 l 374 803 l 374 625 l 508 625 l 508 426 "},"đ":{"ha":907,"x_min":0,"x_max":0,"o":"m 617 0 l 575 88 b 360 -21 524 25 449 -21 b 40 354 174 -21 40 113 b 363 743 40 606 175 743 b 561 661 450 743 515 711 l 561 774 l 431 774 l 431 954 l 561 954 l 561 1000 l 831 1000 l 831 954 l 890 954 l 890 774 l 831 774 l 831 0 m 311 356 b 442 171 311 226 364 171 b 567 357 513 171 567 225 b 443 551 567 508 510 551 b 311 356 367 551 311 489 "},"Ē":{"ha":853,"x_min":0,"x_max":0,"o":"m 764 408 l 369 408 l 369 203 l 804 203 l 804 0 l 79 0 l 79 1000 l 804 1000 l 804 794 l 369 794 l 369 600 l 764 600 m 238 1093 l 238 1271 l 639 1271 l 639 1093 "},"ē":{"ha":863,"x_min":0,"x_max":0,"o":"m 815 229 b 435 -21 782 88 650 -21 b 40 367 196 -21 40 131 b 431 743 40 601 193 743 b 821 303 669 743 821 592 l 313 303 b 444 163 325 197 372 163 b 543 229 499 163 535 190 m 428 575 b 313 444 367 575 325 540 l 546 444 b 428 575 538 536 493 575 m 231 821 l 231 999 l 632 999 l 632 821 "},"Ė":{"ha":853,"x_min":0,"x_max":0,"o":"m 764 408 l 369 408 l 369 203 l 804 203 l 804 0 l 79 0 l 79 1000 l 804 1000 l 804 794 l 369 794 l 369 600 l 764 600 m 304 1069 l 304 1272 l 588 1272 l 588 1069 "},"ė":{"ha":863,"x_min":0,"x_max":0,"o":"m 815 229 b 435 -21 782 88 650 -21 b 40 367 196 -21 40 131 b 431 743 40 601 193 743 b 821 303 669 743 821 592 l 313 303 b 444 163 325 197 372 163 b 543 229 499 163 535 190 m 428 575 b 313 444 367 575 325 540 l 546 444 b 428 575 538 536 493 575 m 282 797 l 282 1000 l 565 1000 l 565 797 "},"Ę":{"ha":853,"x_min":0,"x_max":0,"o":"m 764 408 l 369 408 l 369 203 l 804 203 l 804 0 l 613 0 b 481 -167 547 -39 481 -97 b 540 -236 481 -215 511 -236 b 589 -200 564 -236 582 -224 l 772 -200 b 526 -365 747 -287 678 -365 b 307 -192 389 -365 307 -301 b 440 0 307 -117 357 -44 l 79 0 l 79 1000 l 804 1000 l 804 794 l 369 794 l 369 600 l 764 600 "},"ę":{"ha":863,"x_min":0,"x_max":0,"o":"m 517 -365 b 296 -192 379 -365 296 -301 b 399 -19 296 -128 333 -64 b 40 367 181 -4 40 142 b 431 743 40 601 193 743 b 821 303 669 743 821 592 l 313 303 b 444 163 325 197 372 163 b 543 229 499 163 535 190 l 815 229 b 638 19 794 140 732 64 b 469 -167 564 -15 469 -85 b 529 -236 469 -215 501 -236 b 578 -200 553 -236 572 -224 l 761 -200 b 517 -365 736 -287 667 -365 m 428 575 b 313 444 367 575 325 540 l 546 444 b 428 575 538 536 493 575 "},"Ě":{"ha":853,"x_min":0,"x_max":0,"o":"m 764 408 l 369 408 l 369 203 l 804 203 l 804 0 l 79 0 l 79 1000 l 804 1000 l 804 794 l 369 794 l 369 600 l 764 600 m 456 1219 l 504 1293 l 751 1293 l 563 1079 l 349 1079 l 160 1293 l 407 1293 "},"ě":{"ha":863,"x_min":0,"x_max":0,"o":"m 815 229 b 435 -21 782 88 650 -21 b 40 367 196 -21 40 131 b 431 743 40 601 193 743 b 821 303 669 743 821 592 l 313 303 b 444 163 325 197 372 163 b 543 229 499 163 535 190 m 428 575 b 313 444 367 575 325 540 l 546 444 b 428 575 538 536 493 575 m 428 947 l 476 1021 l 724 1021 l 535 807 l 321 807 l 132 1021 l 379 1021 "},"Ĝ":{"ha":1072,"x_min":0,"x_max":0,"o":"m 1007 0 l 810 0 l 775 92 b 496 -21 718 25 628 -21 b 47 503 251 -21 47 158 b 554 1021 47 842 246 1021 b 1007 692 772 1021 961 921 l 719 692 b 554 822 697 782 639 822 b 347 503 439 822 347 735 b 557 176 347 272 443 176 b 750 342 668 176 750 246 l 750 382 l 536 382 l 536 569 l 1007 569 m 475 1079 l 228 1079 l 417 1293 l 631 1293 l 819 1079 l 572 1079 l 524 1158 "},"ĝ":{"ha":881,"x_min":0,"x_max":0,"o":"m 329 -31 b 439 -90 346 -74 376 -90 b 549 31 511 -90 549 -53 l 549 104 b 360 32 501 60 439 32 b 40 382 178 32 40 156 b 365 743 40 607 179 743 b 569 654 453 743 522 710 l 608 722 l 817 722 l 817 58 b 439 -271 817 -139 688 -271 b 60 -31 206 -271 88 -187 m 311 383 b 442 224 311 275 365 224 b 567 382 517 224 567 278 b 440 553 567 501 518 553 b 311 383 367 553 311 496 m 392 807 l 144 807 l 333 1021 l 547 1021 l 736 807 l 489 807 l 440 886 "},"Ğ":{"ha":1072,"x_min":0,"x_max":0,"o":"m 1007 0 l 810 0 l 775 92 b 496 -21 718 25 628 -21 b 47 503 251 -21 47 158 b 554 1021 47 842 246 1021 b 1007 692 772 1021 961 921 l 719 692 b 554 822 697 782 639 822 b 347 503 439 822 347 735 b 557 176 347 272 443 176 b 750 342 668 176 750 246 l 750 382 l 536 382 l 536 569 l 1007 569 m 532 1082 b 294 1293 396 1082 311 1149 l 486 1293 b 532 1224 488 1246 504 1224 b 576 1293 560 1224 575 1246 l 769 1293 b 532 1082 753 1143 664 1082 "},"ğ":{"ha":881,"x_min":0,"x_max":0,"o":"m 329 -31 b 439 -90 346 -74 376 -90 b 549 31 511 -90 549 -53 l 549 104 b 360 32 501 60 439 32 b 40 382 178 32 40 156 b 365 743 40 607 179 743 b 569 654 453 743 522 710 l 608 722 l 817 722 l 817 58 b 439 -271 817 -139 688 -271 b 60 -31 206 -271 88 -187 m 311 383 b 442 224 311 275 365 224 b 567 382 517 224 567 278 b 440 553 567 501 518 553 b 311 383 367 553 311 496 m 439 810 b 201 1021 303 810 218 876 l 393 1021 b 439 951 394 974 411 951 b 483 1021 467 951 482 974 l 676 1021 b 439 810 660 871 571 810 "},"Ġ":{"ha":1072,"x_min":0,"x_max":0,"o":"m 1007 0 l 810 0 l 775 92 b 496 -21 718 25 628 -21 b 47 503 251 -21 47 158 b 554 1021 47 842 246 1021 b 1007 692 772 1021 961 921 l 719 692 b 554 822 697 782 639 822 b 347 503 439 822 347 735 b 557 176 347 272 443 176 b 750 342 668 176 750 246 l 750 382 l 536 382 l 536 569 l 1007 569 m 397 1069 l 397 1272 l 681 1272 l 681 1069 "},"ġ":{"ha":881,"x_min":0,"x_max":0,"o":"m 329 -31 b 439 -90 346 -74 376 -90 b 549 31 511 -90 549 -53 l 549 104 b 360 32 501 60 439 32 b 40 382 178 32 40 156 b 365 743 40 607 179 743 b 569 654 453 743 522 710 l 608 722 l 817 722 l 817 58 b 439 -271 817 -139 688 -271 b 60 -31 206 -271 88 -187 m 311 383 b 442 224 311 275 365 224 b 567 382 517 224 567 278 b 440 553 567 501 518 553 b 311 383 367 553 311 496 m 306 797 l 306 1000 l 589 1000 l 589 797 "},"Ģ":{"ha":1072,"x_min":0,"x_max":0,"o":"m 1007 0 l 810 0 l 775 92 b 496 -21 718 25 628 -21 b 47 503 251 -21 47 158 b 554 1021 47 842 246 1021 b 1007 692 772 1021 961 921 l 719 692 b 554 822 697 782 639 822 b 347 503 439 822 347 735 b 557 176 347 272 443 176 b 750 342 668 176 750 246 l 750 382 l 536 382 l 536 569 l 1007 569 m 635 -206 b 369 -503 635 -385 553 -485 l 369 -389 b 472 -274 435 -378 472 -339 l 406 -274 l 406 -67 l 635 -67 "},"ģ":{"ha":881,"x_min":0,"x_max":0,"o":"m 329 -31 b 439 -90 346 -74 376 -90 b 549 31 511 -90 549 -53 l 549 104 b 360 32 501 60 439 32 b 40 382 178 32 40 156 b 365 743 40 607 179 743 b 569 654 453 743 522 710 l 608 722 l 817 722 l 817 58 b 439 -271 817 -139 688 -271 b 60 -31 206 -271 88 -187 m 311 383 b 442 224 311 275 365 224 b 567 382 517 224 567 278 b 440 553 567 501 518 553 b 311 383 367 553 311 496 m 321 938 b 586 1236 321 1118 403 1218 l 586 1122 b 483 1007 521 1110 483 1072 l 550 1007 l 550 800 l 321 800 "},"Ĥ":{"ha":1042,"x_min":0,"x_max":0,"o":"m 963 1000 l 963 0 l 674 0 l 674 407 l 369 407 l 369 0 l 79 0 l 79 1000 l 369 1000 l 369 604 l 674 604 l 674 1000 m 469 1079 l 222 1079 l 411 1293 l 625 1293 l 814 1079 l 567 1079 l 518 1158 "},"ĥ":{"ha":844,"x_min":0,"x_max":0,"o":"m 64 1000 l 332 1000 l 332 663 b 531 743 379 714 446 743 b 788 463 692 743 788 647 l 788 0 l 518 0 l 518 463 b 438 558 518 531 489 558 b 332 424 371 558 332 500 l 332 0 l 64 0 m 321 1079 l 74 1079 l 263 1293 l 476 1293 l 665 1079 l 418 1079 l 369 1158 "},"Ħ":{"ha":1050,"x_min":0,"x_max":0,"o":"m 967 1000 l 967 894 l 1033 894 l 1033 706 l 967 706 l 967 0 l 678 0 l 678 407 l 374 407 l 374 0 l 83 0 l 83 706 l 17 706 l 17 894 l 83 894 l 83 1000 l 374 1000 l 374 894 l 678 894 l 678 1000 m 374 604 l 678 604 l 678 706 l 374 706 "},"ħ":{"ha":844,"x_min":0,"x_max":0,"o":"m 64 775 l 4 775 l 4 956 l 64 956 l 64 1000 l 332 1000 l 332 956 l 474 956 l 474 775 l 332 775 l 332 663 b 531 743 379 714 446 743 b 788 463 692 743 788 647 l 788 0 l 518 0 l 518 463 b 438 558 518 531 489 558 b 332 425 371 558 332 500 l 332 0 l 64 0 "},"Ĩ":{"ha":449,"x_min":0,"x_max":0,"o":"m 369 1000 l 369 0 l 79 0 l 79 1000 m 321 1072 b 131 1122 238 1072 193 1122 b 4 1076 97 1122 61 1108 l 4 1250 b 136 1290 51 1278 88 1290 b 326 1239 217 1290 263 1239 b 447 1285 358 1239 390 1253 l 447 1111 b 321 1072 400 1083 365 1072 "},"ĩ":{"ha":399,"x_min":0,"x_max":0,"o":"m 296 800 b 106 850 213 800 168 850 b -21 804 72 850 36 836 l -21 978 b 111 1018 26 1006 63 1018 b 301 967 192 1018 238 967 b 422 1013 333 967 365 981 l 422 839 b 296 800 375 811 340 800 m 65 0 l 65 722 l 333 722 l 333 0 "},"Ī":{"ha":449,"x_min":0,"x_max":0,"o":"m 369 1000 l 369 0 l 79 0 l 79 1000 m 25 1093 l 25 1271 l 426 1271 l 426 1093 "},"ī":{"ha":399,"x_min":0,"x_max":0,"o":"m 0 821 l 0 999 l 401 999 l 401 821 m 65 0 l 65 722 l 333 722 l 333 0 "},"Į":{"ha":449,"x_min":0,"x_max":0,"o":"m 154 -365 b -65 -192 17 -365 -65 -301 b 79 4 -65 -114 -11 -39 l 79 1000 l 369 1000 l 369 0 l 240 0 b 108 -167 175 -39 108 -97 b 168 -236 108 -215 139 -236 b 217 -200 192 -236 210 -224 l 400 -200 b 154 -365 375 -287 306 -365 "},"į":{"ha":399,"x_min":0,"x_max":0,"o":"m 132 -365 b -89 -192 -6 -365 -89 -301 b 65 8 -89 -112 -31 -35 l 65 722 l 333 722 l 333 0 l 218 0 b 86 -167 153 -39 86 -97 b 144 -236 86 -215 117 -236 b 193 -200 169 -236 188 -224 l 376 -200 b 132 -365 351 -287 282 -365 m 57 797 l 57 1000 l 342 1000 l 342 797 "},"İ":{"ha":449,"x_min":0,"x_max":0,"o":"m 369 1000 l 369 0 l 79 0 l 79 1000 m 82 1069 l 82 1272 l 365 1272 l 365 1069 "},"ı":{"ha":399,"x_min":0,"x_max":0,"o":"m 65 0 l 65 722 l 333 722 l 333 0 "},"Ĵ":{"ha":824,"x_min":0,"x_max":0,"o":"m 299 318 b 389 179 306 211 346 179 b 469 301 435 179 469 204 l 469 1000 l 751 1000 l 751 325 b 393 -21 751 111 633 -21 b 19 318 192 -21 42 86 m 550 1079 l 303 1079 l 492 1293 l 706 1293 l 894 1079 l 647 1079 l 599 1158 "},"ĵ":{"ha":404,"x_min":0,"x_max":0,"o":"m -60 -65 b 8 -75 -32 -72 -8 -75 b 68 -12 50 -75 68 -60 l 68 722 l 336 722 l 336 -22 b 82 -271 336 -175 251 -271 b -60 -253 33 -271 -21 -264 m 142 807 l -106 807 l 83 1021 l 297 1021 l 486 807 l 239 807 l 190 886 "},"Ķ":{"ha":1057,"x_min":0,"x_max":0,"o":"m 688 0 l 369 375 l 369 0 l 79 0 l 79 1000 l 369 1000 l 369 638 l 676 1000 l 1010 1000 l 589 531 l 1057 0 m 622 -206 b 357 -503 622 -385 540 -485 l 357 -389 b 460 -274 422 -378 460 -339 l 393 -274 l 393 -67 l 622 -67 "},"ķ":{"ha":865,"x_min":0,"x_max":0,"o":"m 64 0 l 64 1000 l 332 1000 l 332 499 l 540 722 l 850 722 l 536 414 l 871 0 l 532 0 l 332 279 l 332 0 m 542 -206 b 276 -503 542 -385 460 -485 l 276 -389 b 379 -274 342 -378 379 -339 l 313 -274 l 313 -67 l 542 -67 "},"ĸ":{"ha":865,"x_min":0,"x_max":0,"o":"m 64 0 l 64 722 l 332 722 l 332 494 l 540 722 l 850 722 l 536 407 l 871 0 l 532 0 l 332 275 l 332 0 "},"Ĺ":{"ha":874,"x_min":0,"x_max":0,"o":"m 369 1000 l 369 210 l 846 210 l 846 0 l 79 0 l 79 1000 m 206 1289 l 475 1289 l 251 1075 l 56 1075 "},"ĺ":{"ha":397,"x_min":0,"x_max":0,"o":"m 333 0 l 64 0 l 64 1000 l 333 1000 m 163 1289 l 432 1289 l 208 1075 l 13 1075 "},"Ļ":{"ha":874,"x_min":0,"x_max":0,"o":"m 369 1000 l 369 210 l 846 210 l 846 0 l 79 0 l 79 1000 m 560 -206 b 294 -503 560 -385 478 -485 l 294 -389 b 397 -274 360 -378 397 -339 l 331 -274 l 331 -67 l 560 -67 "},"ļ":{"ha":397,"x_min":0,"x_max":0,"o":"m 333 0 l 64 0 l 64 1000 l 333 1000 m 315 -206 b 50 -503 315 -385 233 -485 l 50 -389 b 153 -274 115 -378 153 -339 l 86 -274 l 86 -67 l 315 -67 "},"Ľ":{"ha":874,"x_min":0,"x_max":0,"o":"m 369 1000 l 369 210 l 846 210 l 846 0 l 79 0 l 79 1000 m 706 863 b 442 564 706 683 625 583 l 442 678 b 544 794 507 690 544 728 l 476 794 l 476 1000 l 706 1000 "},"ľ":{"ha":646,"x_min":0,"x_max":0,"o":"m 333 0 l 64 0 l 64 1000 l 333 1000 m 646 863 b 382 564 646 683 565 583 l 382 678 b 485 794 447 690 485 728 l 417 794 l 417 1000 l 646 1000 "},"Ł":{"ha":883,"x_min":0,"x_max":0,"o":"m 379 1000 l 379 746 l 493 814 l 493 582 l 379 514 l 379 208 l 856 208 l 856 0 l 89 0 l 89 342 l 7 293 l 7 525 l 89 574 l 89 1000 "},"ł":{"ha":421,"x_min":0,"x_max":0,"o":"m 343 738 l 404 776 l 404 544 l 343 506 l 343 0 l 74 0 l 74 338 l 17 303 l 17 533 l 74 568 l 74 1000 l 343 1000 "},"Ń":{"ha":1039,"x_min":0,"x_max":0,"o":"m 960 1000 l 960 0 l 672 0 l 326 617 l 326 0 l 79 0 l 79 1000 l 385 1000 l 713 413 l 713 1000 m 569 1289 l 839 1289 l 615 1075 l 419 1075 "},"ń":{"ha":844,"x_min":0,"x_max":0,"o":"m 64 0 l 64 722 l 292 722 l 313 642 b 531 743 361 704 433 743 b 788 463 692 743 788 647 l 788 0 l 518 0 l 518 463 b 438 558 518 531 488 558 b 332 422 369 558 332 499 l 332 0 m 457 1017 l 726 1017 l 503 803 l 307 803 "},"Ņ":{"ha":1039,"x_min":0,"x_max":0,"o":"m 960 1000 l 960 0 l 672 0 l 326 617 l 326 0 l 79 0 l 79 1000 l 385 1000 l 713 413 l 713 1000 m 644 -206 b 379 -503 644 -385 563 -485 l 379 -389 b 482 -274 444 -378 482 -339 l 415 -274 l 415 -67 l 644 -67 "},"ņ":{"ha":844,"x_min":0,"x_max":0,"o":"m 64 0 l 64 722 l 292 722 l 313 642 b 531 743 361 704 433 743 b 788 463 692 743 788 647 l 788 0 l 518 0 l 518 463 b 438 558 518 531 488 558 b 332 422 369 558 332 499 l 332 0 m 547 -206 b 282 -503 547 -385 465 -485 l 282 -389 b 385 -274 347 -378 385 -339 l 318 -274 l 318 -67 l 547 -67 "},"Ň":{"ha":1039,"x_min":0,"x_max":0,"o":"m 960 1000 l 960 0 l 672 0 l 326 617 l 326 0 l 79 0 l 79 1000 l 385 1000 l 713 413 l 713 1000 m 525 1219 l 574 1293 l 821 1293 l 632 1079 l 418 1079 l 229 1293 l 476 1293 "},"ň":{"ha":844,"x_min":0,"x_max":0,"o":"m 64 0 l 64 722 l 292 722 l 313 642 b 531 743 361 704 433 743 b 788 463 692 743 788 647 l 788 0 l 518 0 l 518 463 b 438 558 518 531 488 558 b 332 422 369 558 332 499 l 332 0 m 432 947 l 481 1021 l 728 1021 l 539 807 l 325 807 l 136 1021 l 383 1021 "},"Ŋ":{"ha":1039,"x_min":0,"x_max":0,"o":"m 564 -65 b 631 -75 590 -71 614 -75 b 713 -14 686 -75 713 -58 l 713 0 l 676 0 l 325 615 l 325 0 l 79 0 l 79 1000 l 388 1000 l 713 413 l 713 1000 l 960 1000 l 960 -29 b 704 -271 960 -176 871 -271 b 564 -253 656 -271 601 -262 "},"ŋ":{"ha":844,"x_min":0,"x_max":0,"o":"m 788 -31 b 526 -271 788 -172 696 -271 b 383 -251 481 -271 432 -264 l 383 -64 b 458 -75 422 -72 443 -75 b 518 -18 500 -75 518 -60 l 518 463 b 438 558 518 531 489 558 b 332 425 371 558 332 500 l 332 0 l 64 0 l 64 722 l 292 722 l 313 642 b 531 743 361 704 433 743 b 788 463 692 743 788 647 l 788 -31 "},"Ō":{"ha":1115,"x_min":0,"x_max":0,"o":"m 557 183 b 775 500 667 183 775 260 b 557 818 775 740 665 818 b 340 499 446 818 340 740 b 557 183 340 258 451 183 m 557 -21 b 47 499 303 -21 47 113 b 557 1021 47 878 301 1021 b 1068 500 814 1021 1068 886 b 557 -21 1068 121 813 -21 m 356 1093 l 356 1271 l 757 1271 l 757 1093 "},"ō":{"ha":876,"x_min":0,"x_max":0,"o":"m 40 364 b 438 743 40 624 204 743 b 836 364 671 743 836 624 b 438 -21 836 104 672 -21 b 40 364 208 -21 40 103 m 315 364 b 439 157 315 214 360 157 b 563 364 522 157 563 211 b 438 565 563 517 519 565 b 315 364 354 565 315 514 m 236 821 l 236 999 l 638 999 l 638 821 "},"Ő":{"ha":1115,"x_min":0,"x_max":0,"o":"m 557 183 b 775 500 667 183 775 260 b 557 818 775 740 665 818 b 340 499 446 818 340 740 b 557 183 340 258 451 183 m 557 -21 b 47 499 303 -21 47 113 b 557 1021 47 878 301 1021 b 1068 500 814 1021 1068 886 b 557 -21 1068 121 813 -21 m 426 1293 l 696 1293 l 472 1079 l 276 1079 m 769 1293 l 1039 1293 l 815 1079 l 619 1079 "},"ő":{"ha":876,"x_min":0,"x_max":0,"o":"m 40 364 b 438 743 40 624 204 743 b 836 364 671 743 836 624 b 438 -21 836 104 672 -21 b 40 364 208 -21 40 103 m 315 364 b 439 157 315 214 360 157 b 563 364 522 157 563 211 b 438 565 563 517 519 565 b 315 364 354 565 315 514 m 308 1021 l 578 1021 l 354 807 l 158 807 m 651 1021 l 921 1021 l 697 807 l 501 807 "},"Œ":{"ha":1365,"x_min":0,"x_max":0,"o":"m 1276 407 l 926 407 l 926 203 l 1317 203 l 1317 0 l 708 0 b 553 -21 661 -12 608 -21 b 47 499 297 -21 47 113 b 554 1021 47 878 301 1021 b 714 1000 610 1021 663 1013 l 1317 1000 l 1317 794 l 926 794 l 926 600 l 1276 600 m 554 183 b 636 199 582 183 610 188 l 636 800 b 557 817 613 811 585 817 b 339 499 447 817 339 740 b 554 183 339 258 442 183 "},"œ":{"ha":1382,"x_min":0,"x_max":0,"o":"m 1333 229 b 956 -21 1306 101 1193 -21 b 697 75 851 -21 763 15 b 438 -21 626 14 536 -21 b 40 364 232 -21 40 85 b 438 743 40 640 229 743 b 694 650 535 743 625 708 b 949 743 758 707 846 743 b 1339 296 1192 743 1339 597 l 832 296 b 963 161 846 194 893 161 b 1061 229 1017 161 1054 190 m 315 364 b 439 157 315 204 368 157 b 561 358 511 157 561 200 l 561 364 b 438 564 561 524 511 564 b 315 364 363 564 315 522 m 944 574 b 832 444 885 574 843 542 l 1063 444 b 944 574 1056 538 1011 574 "},"Ŕ":{"ha":1001,"x_min":0,"x_max":0,"o":"m 653 0 l 438 347 l 358 347 l 358 0 l 68 0 l 68 1000 l 461 1000 b 911 675 763 1000 911 883 b 722 399 911 533 840 449 l 994 0 m 358 803 l 358 544 l 474 544 b 613 675 554 544 613 593 b 464 803 613 764 560 803 m 490 1289 l 760 1289 l 536 1075 l 340 1075 "},"ŕ":{"ha":590,"x_min":0,"x_max":0,"o":"m 64 0 l 64 722 l 293 722 l 318 611 b 492 743 357 699 418 743 b 582 732 518 743 549 740 l 582 493 b 482 510 540 506 515 510 b 333 289 397 510 333 436 l 333 0 m 347 1017 l 617 1017 l 393 803 l 197 803 "},"Ŗ":{"ha":1001,"x_min":0,"x_max":0,"o":"m 653 0 l 438 347 l 358 347 l 358 0 l 68 0 l 68 1000 l 461 1000 b 911 675 763 1000 911 883 b 722 399 911 533 840 449 l 994 0 m 358 803 l 358 544 l 474 544 b 613 675 554 544 613 593 b 464 803 613 764 560 803 m 603 -206 b 338 -503 603 -385 521 -485 l 338 -389 b 440 -274 403 -378 440 -339 l 374 -274 l 374 -67 l 603 -67 "},"ŗ":{"ha":590,"x_min":0,"x_max":0,"o":"m 64 0 l 64 722 l 293 722 l 318 611 b 492 743 357 699 418 743 b 582 732 518 743 549 740 l 582 493 b 482 510 540 506 515 510 b 333 289 397 510 333 436 l 333 0 m 313 -206 b 47 -503 313 -385 231 -485 l 47 -389 b 150 -274 113 -378 150 -339 l 83 -274 l 83 -67 l 313 -67 "},"Ř":{"ha":1001,"x_min":0,"x_max":0,"o":"m 653 0 l 438 347 l 358 347 l 358 0 l 68 0 l 68 1000 l 461 1000 b 911 675 763 1000 911 883 b 722 399 911 533 840 449 l 994 0 m 358 803 l 358 544 l 474 544 b 613 675 554 544 613 593 b 464 803 613 764 560 803 m 431 1219 l 479 1293 l 726 1293 l 538 1079 l 324 1079 l 135 1293 l 382 1293 "},"ř":{"ha":590,"x_min":0,"x_max":0,"o":"m 64 0 l 64 722 l 293 722 l 318 611 b 492 743 357 699 418 743 b 582 732 518 743 549 740 l 582 493 b 482 510 540 506 515 510 b 333 289 397 510 333 436 l 333 0 m 308 947 l 357 1021 l 604 1021 l 415 807 l 201 807 l 13 1021 l 260 1021 "},"Ś":{"ha":979,"x_min":0,"x_max":0,"o":"m 494 -21 b 29 315 182 -21 54 146 l 310 315 b 497 176 325 232 385 176 b 653 268 603 176 653 215 b 428 403 653 344 594 367 b 67 721 196 454 67 533 b 485 1021 67 896 197 1021 b 924 708 732 1021 892 903 l 650 708 b 482 825 636 788 574 825 b 358 747 399 825 358 793 b 538 642 358 689 404 668 b 944 293 793 590 944 486 b 494 -21 944 128 811 -21 m 507 1289 l 776 1289 l 553 1075 l 357 1075 "},"ś":{"ha":813,"x_min":0,"x_max":0,"o":"m 406 156 b 501 207 472 156 501 174 b 368 274 501 240 475 256 b 56 510 151 311 56 374 b 401 743 56 649 171 743 b 763 508 597 743 735 650 l 501 508 b 397 568 490 544 456 568 b 322 524 340 568 322 550 b 454 458 322 492 347 478 b 768 232 650 422 768 369 b 407 -21 768 83 650 -21 b 31 219 199 -21 60 78 l 293 219 b 406 156 303 183 343 156 m 397 1017 l 667 1017 l 443 803 l 247 803 "},"Ŝ":{"ha":979,"x_min":0,"x_max":0,"o":"m 494 -21 b 29 315 182 -21 54 146 l 310 315 b 497 176 325 232 385 176 b 653 268 603 176 653 215 b 428 403 653 344 594 367 b 67 721 196 454 67 533 b 485 1021 67 896 197 1021 b 924 708 732 1021 892 903 l 650 708 b 482 825 636 788 574 825 b 358 747 399 825 358 793 b 538 642 358 689 404 668 b 944 293 793 590 944 486 b 494 -21 944 128 811 -21 m 422 1079 l 175 1079 l 364 1293 l 578 1293 l 767 1079 l 519 1079 l 471 1158 "},"ŝ":{"ha":813,"x_min":0,"x_max":0,"o":"m 406 156 b 501 207 472 156 501 174 b 368 274 501 240 475 256 b 56 510 151 311 56 374 b 401 743 56 649 171 743 b 763 508 597 743 735 650 l 501 508 b 397 568 490 544 456 568 b 322 524 340 568 322 550 b 454 458 322 492 347 478 b 768 232 650 422 768 369 b 407 -21 768 83 650 -21 b 31 219 199 -21 60 78 l 293 219 b 406 156 303 183 343 156 m 350 807 l 103 807 l 292 1021 l 506 1021 l 694 807 l 447 807 l 399 886 "},"Ş":{"ha":979,"x_min":0,"x_max":0,"o":"m 725 -197 b 492 -372 725 -299 643 -372 b 253 -192 350 -372 265 -300 l 429 -192 b 490 -243 432 -217 447 -243 b 547 -196 529 -243 547 -221 b 415 -139 547 -160 511 -139 l 425 -17 b 29 315 164 6 51 158 l 310 315 b 497 176 325 232 385 176 b 653 265 600 176 653 215 b 428 403 653 344 594 367 b 67 721 196 454 67 533 b 485 1021 67 896 197 1021 b 924 708 732 1021 892 903 l 650 708 b 482 825 636 788 574 825 b 358 747 399 825 358 793 b 538 642 358 689 404 668 b 944 293 793 590 944 486 b 582 -17 944 143 836 8 l 585 -49 b 725 -197 681 -69 725 -124 "},"ş":{"ha":813,"x_min":0,"x_max":0,"o":"m 633 -197 b 401 -372 633 -299 553 -372 b 161 -192 260 -372 175 -300 l 338 -192 b 400 -243 342 -217 357 -243 b 457 -196 438 -243 457 -221 b 325 -139 457 -160 421 -139 l 335 -17 b 31 219 165 3 54 94 l 293 219 b 406 156 303 183 343 156 b 501 207 472 156 501 174 b 368 274 501 240 475 256 b 56 510 151 311 56 374 b 401 743 56 649 171 743 b 763 508 597 743 735 650 l 501 508 b 397 568 490 544 456 568 b 322 524 340 568 322 550 b 454 458 322 492 347 478 b 768 232 650 422 768 369 b 492 -15 768 101 678 7 l 493 -49 b 633 -197 589 -69 633 -124 "},"Š":{"ha":979,"x_min":0,"x_max":0,"o":"m 494 -21 b 29 315 182 -21 54 146 l 310 315 b 497 176 325 232 385 176 b 653 268 603 176 653 215 b 428 403 653 344 594 367 b 67 721 196 454 67 533 b 485 1021 67 896 197 1021 b 924 708 732 1021 892 903 l 650 708 b 482 825 636 788 574 825 b 358 747 399 825 358 793 b 538 642 358 689 404 668 b 944 293 793 590 944 486 b 494 -21 944 128 811 -21 m 476 1219 l 525 1293 l 772 1293 l 583 1079 l 369 1079 l 181 1293 l 428 1293 "},"š":{"ha":813,"x_min":0,"x_max":0,"o":"m 406 156 b 501 207 472 156 501 174 b 368 274 501 240 475 256 b 56 510 151 311 56 374 b 401 743 56 649 171 743 b 763 508 597 743 735 650 l 501 508 b 397 568 490 544 456 568 b 322 524 340 568 322 550 b 454 458 322 492 347 478 b 768 232 650 422 768 369 b 407 -21 768 83 650 -21 b 31 219 199 -21 60 78 l 293 219 b 406 156 303 183 343 156 m 394 947 l 443 1021 l 690 1021 l 501 807 l 288 807 l 99 1021 l 346 1021 "},"Ţ":{"ha":883,"x_min":0,"x_max":0,"o":"m 876 790 l 585 790 l 585 0 l 294 0 l 294 790 l 7 790 l 7 1000 l 876 1000 m 556 -206 b 290 -503 556 -385 474 -485 l 290 -389 b 393 -274 356 -378 393 -339 l 326 -274 l 326 -67 l 556 -67 "},"ţ":{"ha":551,"x_min":0,"x_max":0,"o":"m 531 0 b 376 -21 478 -14 421 -21 b 118 211 215 -21 118 61 l 118 540 l 14 540 l 14 722 l 118 722 l 135 906 l 388 906 l 388 722 l 531 722 l 531 540 l 388 540 l 388 219 b 447 167 388 182 407 167 b 531 181 467 167 499 172 m 400 -206 b 135 -503 400 -385 318 -485 l 135 -389 b 238 -274 200 -378 238 -339 l 171 -274 l 171 -67 l 400 -67 "},"Ť":{"ha":883,"x_min":0,"x_max":0,"o":"m 876 790 l 585 790 l 585 0 l 294 0 l 294 790 l 7 790 l 7 1000 l 876 1000 m 440 1219 l 489 1293 l 736 1293 l 547 1079 l 333 1079 l 144 1293 l 392 1293 "},"ť":{"ha":693,"x_min":0,"x_max":0,"o":"m 693 917 b 486 743 693 826 624 749 l 486 825 b 539 871 522 828 539 850 l 499 871 l 499 1018 l 693 1018 m 531 0 b 376 -21 478 -14 421 -21 b 118 211 215 -21 118 61 l 118 540 l 14 540 l 14 722 l 118 722 l 135 906 l 388 906 l 388 722 l 531 722 l 531 540 l 388 540 l 388 219 b 447 167 388 182 407 167 b 531 181 467 167 499 172 "},"Ŧ":{"ha":883,"x_min":0,"x_max":0,"o":"m 583 467 l 583 0 l 293 0 l 293 467 l 150 467 l 150 656 l 293 656 l 293 790 l 7 790 l 7 1000 l 876 1000 l 876 790 l 583 790 l 583 656 l 726 656 l 726 467 "},"ŧ":{"ha":551,"x_min":0,"x_max":0,"o":"m 531 0 b 375 -21 478 -14 421 -21 b 118 228 203 -21 118 67 l 118 317 l 44 317 l 44 497 l 118 497 l 118 540 l 14 540 l 14 722 l 118 722 l 135 904 l 388 904 l 388 722 l 531 722 l 531 540 l 388 540 l 388 497 l 494 497 l 494 317 l 388 317 l 388 219 b 446 167 388 181 407 167 b 531 181 465 167 499 172 "},"Ũ":{"ha":1032,"x_min":0,"x_max":0,"o":"m 363 1000 l 363 328 b 517 181 363 233 419 181 b 678 328 614 181 678 233 l 678 1000 l 960 1000 l 960 344 b 515 -21 960 119 801 -21 b 72 344 229 -21 72 121 l 72 1000 m 619 1072 b 429 1122 536 1072 492 1122 b 303 1076 396 1122 360 1108 l 303 1250 b 435 1290 350 1278 386 1290 b 625 1239 515 1290 561 1239 b 746 1285 657 1239 689 1253 l 746 1111 b 619 1072 699 1083 664 1072 "},"ũ":{"ha":836,"x_min":0,"x_max":0,"o":"m 325 722 l 325 251 b 407 164 325 192 356 164 b 504 296 471 164 504 219 l 504 722 l 772 722 l 772 0 l 546 0 l 525 74 b 314 -21 478 15 408 -21 b 57 258 149 -21 57 75 l 57 722 m 515 800 b 325 850 432 800 388 850 b 199 804 292 850 256 836 l 199 978 b 331 1018 246 1006 282 1018 b 521 967 411 1018 457 967 b 642 1013 553 967 585 981 l 642 839 b 515 800 594 811 560 800 "},"Ū":{"ha":1032,"x_min":0,"x_max":0,"o":"m 363 1000 l 363 328 b 517 181 363 233 419 181 b 678 328 614 181 678 233 l 678 1000 l 960 1000 l 960 344 b 515 -21 960 119 801 -21 b 72 344 229 -21 72 121 l 72 1000 m 314 1093 l 314 1271 l 715 1271 l 715 1093 "},"ū":{"ha":836,"x_min":0,"x_max":0,"o":"m 325 722 l 325 251 b 407 164 325 192 356 164 b 504 296 471 164 504 219 l 504 722 l 772 722 l 772 0 l 546 0 l 525 74 b 314 -21 478 15 408 -21 b 57 258 149 -21 57 75 l 57 722 m 214 821 l 214 999 l 615 999 l 615 821 "},"Ŭ":{"ha":1032,"x_min":0,"x_max":0,"o":"m 363 1000 l 363 328 b 517 181 363 233 419 181 b 678 328 614 181 678 233 l 678 1000 l 960 1000 l 960 344 b 515 -21 960 119 801 -21 b 72 344 229 -21 72 121 l 72 1000 m 519 1082 b 282 1293 383 1082 299 1149 l 474 1293 b 519 1224 475 1246 492 1224 b 564 1293 547 1224 563 1246 l 757 1293 b 519 1082 740 1143 651 1082 "},"ŭ":{"ha":836,"x_min":0,"x_max":0,"o":"m 325 722 l 325 251 b 407 164 325 192 356 164 b 504 296 471 164 504 219 l 504 722 l 772 722 l 772 0 l 546 0 l 525 74 b 314 -21 478 15 408 -21 b 57 258 149 -21 57 75 l 57 722 m 410 810 b 172 1021 274 810 189 876 l 364 1021 b 410 951 365 974 382 951 b 454 1021 438 951 453 974 l 647 1021 b 410 810 631 871 542 810 "},"Ů":{"ha":1032,"x_min":0,"x_max":0,"o":"m 363 1000 l 363 328 b 517 181 363 233 419 181 b 678 328 614 181 678 233 l 678 1000 l 960 1000 l 960 344 b 515 -21 960 119 801 -21 b 72 344 229 -21 72 121 l 72 1000 m 467 1201 b 515 1143 467 1163 486 1143 b 564 1201 543 1143 564 1161 b 515 1260 564 1243 544 1260 b 467 1201 486 1260 467 1242 m 735 1201 b 515 1015 735 1100 665 1015 b 294 1201 367 1015 294 1100 b 515 1389 294 1303 367 1389 b 735 1201 664 1389 735 1303 "},"ů":{"ha":836,"x_min":0,"x_max":0,"o":"m 325 722 l 325 251 b 407 164 325 192 356 164 b 504 296 471 164 504 219 l 504 722 l 772 722 l 772 0 l 546 0 l 525 74 b 314 -21 478 15 408 -21 b 57 258 149 -21 57 75 l 57 722 m 363 979 b 411 921 363 940 382 921 b 460 979 439 921 460 939 b 411 1038 460 1021 440 1038 b 363 979 382 1038 363 1019 m 631 979 b 411 793 631 878 561 793 b 190 979 263 793 190 878 b 411 1167 190 1081 263 1167 b 631 979 560 1167 631 1081 "},"Ű":{"ha":1032,"x_min":0,"x_max":0,"o":"m 363 1000 l 363 328 b 517 181 363 233 419 181 b 678 328 614 181 678 233 l 678 1000 l 960 1000 l 960 344 b 515 -21 960 119 801 -21 b 72 344 229 -21 72 121 l 72 1000 m 392 1293 l 661 1293 l 438 1079 l 242 1079 m 735 1293 l 1004 1293 l 781 1079 l 585 1079 "},"ű":{"ha":836,"x_min":0,"x_max":0,"o":"m 325 722 l 325 251 b 407 164 325 192 356 164 b 504 296 471 164 504 219 l 504 722 l 772 722 l 772 0 l 546 0 l 525 74 b 314 -21 478 15 408 -21 b 57 258 149 -21 57 75 l 57 722 m 289 1021 l 558 1021 l 335 807 l 139 807 m 632 1021 l 901 1021 l 678 807 l 482 807 "},"Ų":{"ha":1032,"x_min":0,"x_max":0,"o":"m 867 -200 b 622 -365 842 -287 772 -365 b 401 -190 485 -365 401 -301 b 503 -21 401 -128 438 -65 b 72 344 226 -8 72 118 l 72 1000 l 363 1000 l 363 328 b 517 179 363 235 425 179 b 678 328 614 179 678 232 l 678 1000 l 960 1000 l 960 344 b 735 15 960 175 879 78 b 576 -167 644 -25 576 -94 b 635 -235 576 -215 607 -235 b 683 -200 660 -235 678 -222 l 867 -200 "},"ų":{"ha":836,"x_min":0,"x_max":0,"o":"m 325 722 l 325 251 b 407 164 325 192 356 164 b 504 294 469 164 504 219 l 504 722 l 772 722 l 772 0 l 696 0 b 564 -167 631 -39 564 -97 b 624 -236 564 -215 596 -236 b 672 -200 647 -236 667 -224 l 856 -200 b 611 -365 831 -287 761 -365 b 390 -192 474 -365 390 -301 b 543 8 390 -112 447 -35 l 525 74 b 314 -21 478 15 408 -21 b 57 258 149 -21 57 75 l 57 722 "},"Ŵ":{"ha":1415,"x_min":0,"x_max":0,"o":"m 1415 1000 l 1193 0 l 872 0 l 707 711 l 550 0 l 239 0 l 0 1000 l 299 1000 l 417 335 l 567 1000 l 864 1000 l 1025 329 l 1138 1000 m 658 1079 l 411 1079 l 600 1293 l 814 1293 l 1003 1079 l 756 1079 l 707 1158 "},"ŵ":{"ha":1193,"x_min":0,"x_max":0,"o":"m 1188 722 l 989 0 l 685 0 l 596 471 l 494 0 l 197 0 l 6 722 l 283 722 l 361 254 l 467 722 l 747 722 l 840 257 l 926 722 m 547 807 l 300 807 l 489 1021 l 703 1021 l 892 807 l 644 807 l 596 886 "},"Ÿ":{"ha":1006,"x_min":0,"x_max":0,"o":"m 364 0 l 364 400 l 0 1000 l 313 1000 l 508 619 l 721 1000 l 1006 1000 l 642 400 l 642 0 m 224 1085 l 224 1285 l 464 1285 l 464 1085 m 554 1085 l 554 1285 l 794 1285 l 794 1085 "},"Ź":{"ha":899,"x_min":0,"x_max":0,"o":"m 381 201 l 860 201 l 860 0 l 31 0 l 31 189 l 517 799 l 57 799 l 57 1000 l 868 1000 l 868 814 m 488 1289 l 757 1289 l 533 1075 l 338 1075 "},"ź":{"ha":732,"x_min":0,"x_max":0,"o":"m 367 192 l 696 192 l 696 0 l 24 0 l 24 188 l 369 531 l 47 531 l 47 722 l 708 722 l 708 535 m 429 1017 l 699 1017 l 475 803 l 279 803 "},"Ż":{"ha":899,"x_min":0,"x_max":0,"o":"m 381 201 l 860 201 l 860 0 l 31 0 l 31 189 l 517 799 l 57 799 l 57 1000 l 868 1000 l 868 814 m 315 1069 l 315 1272 l 599 1272 l 599 1069 "},"ż":{"ha":732,"x_min":0,"x_max":0,"o":"m 367 192 l 696 192 l 696 0 l 24 0 l 24 188 l 369 531 l 47 531 l 47 722 l 708 722 l 708 535 m 244 797 l 244 1000 l 528 1000 l 528 797 "},"Ž":{"ha":899,"x_min":0,"x_max":0,"o":"m 381 201 l 860 201 l 860 0 l 31 0 l 31 189 l 517 799 l 57 799 l 57 1000 l 868 1000 l 868 814 m 451 1219 l 500 1293 l 747 1293 l 558 1079 l 344 1079 l 156 1293 l 403 1293 "},"ž":{"ha":732,"x_min":0,"x_max":0,"o":"m 367 192 l 696 192 l 696 0 l 24 0 l 24 188 l 369 531 l 47 531 l 47 722 l 708 722 l 708 535 m 382 947 l 431 1021 l 678 1021 l 489 807 l 275 807 l 86 1021 l 333 1021 "},"ƒ":{"ha":539,"x_min":0,"x_max":0,"o":"m 557 782 b 453 799 511 793 478 799 b 382 732 403 799 382 778 l 382 694 l 519 694 l 519 513 l 382 513 l 382 -250 l 114 -250 l 114 513 l 8 513 l 8 694 l 114 694 l 114 740 b 383 993 114 904 207 993 b 557 968 447 993 504 983 "},"Ș":{"ha":979,"x_min":0,"x_max":0,"o":"m 494 -21 b 29 315 182 -21 54 146 l 310 315 b 497 176 325 232 385 176 b 653 268 603 176 653 215 b 428 403 653 344 594 367 b 67 721 196 454 67 533 b 485 1021 67 896 197 1021 b 924 708 732 1021 892 903 l 650 708 b 482 825 636 788 574 825 b 358 747 399 825 358 793 b 538 642 358 689 404 668 b 944 293 793 590 944 486 b 494 -21 944 128 811 -21 m 626 -206 b 361 -503 626 -385 544 -485 l 361 -389 b 464 -274 426 -378 464 -339 l 397 -274 l 397 -67 l 626 -67 "},"ș":{"ha":813,"x_min":0,"x_max":0,"o":"m 406 156 b 501 207 472 156 501 174 b 368 274 501 240 475 256 b 56 510 151 311 56 374 b 401 743 56 649 171 743 b 763 508 597 743 735 650 l 501 508 b 397 568 490 544 456 568 b 322 524 340 568 322 550 b 454 458 322 492 347 478 b 768 232 650 422 768 369 b 407 -21 768 83 650 -21 b 31 219 199 -21 60 78 l 293 219 b 406 156 303 183 343 156 m 514 -206 b 249 -503 514 -385 432 -485 l 249 -389 b 351 -274 314 -378 351 -339 l 285 -274 l 285 -67 l 514 -67 "},"Ț":{"ha":883,"x_min":0,"x_max":0,"o":"m 876 790 l 585 790 l 585 0 l 294 0 l 294 790 l 7 790 l 7 1000 l 876 1000 m 556 -206 b 290 -503 556 -385 474 -485 l 290 -389 b 393 -274 356 -378 393 -339 l 326 -274 l 326 -67 l 556 -67 "},"ț":{"ha":551,"x_min":0,"x_max":0,"o":"m 531 0 b 376 -21 478 -14 421 -21 b 118 211 215 -21 118 61 l 118 540 l 14 540 l 14 722 l 118 722 l 135 906 l 388 906 l 388 722 l 531 722 l 531 540 l 388 540 l 388 219 b 447 167 388 182 407 167 b 531 181 467 167 499 172 m 400 -206 b 135 -503 400 -385 318 -485 l 135 -389 b 238 -274 200 -378 238 -339 l 171 -274 l 171 -67 l 400 -67 "},"ȷ":{"ha":404,"x_min":0,"x_max":0,"o":"m -60 -65 b 8 -75 -32 -72 -8 -75 b 68 -12 50 -75 68 -60 l 68 722 l 336 722 l 336 -22 b 82 -271 336 -175 251 -271 b -60 -253 33 -271 -21 -264 "},"ˆ":{"ha":676,"x_min":0,"x_max":0,"o":"m 289 807 l 42 807 l 231 1021 l 444 1021 l 633 807 l 386 807 l 338 886 "},"ˇ":{"ha":676,"x_min":0,"x_max":0,"o":"m 338 947 l 386 1021 l 633 1021 l 444 807 l 231 807 l 42 1021 l 289 1021 "},"ˉ":{"ha":458,"x_min":0,"x_max":0,"o":"m 24 814 l 24 989 l 425 989 l 425 814 "},"˘":{"ha":558,"x_min":0,"x_max":0,"o":"m 279 810 b 42 1021 143 810 58 876 l 233 1021 b 279 951 235 974 251 951 b 324 1021 307 951 322 974 l 517 1021 b 279 810 500 871 411 810 "},"˙":{"ha":367,"x_min":0,"x_max":0,"o":"m 42 797 l 42 1000 l 325 1000 l 325 797 "},"˚":{"ha":514,"x_min":0,"x_max":0,"o":"m 208 979 b 257 921 208 940 228 921 b 306 979 285 921 306 939 b 257 1038 306 1021 286 1038 b 208 979 228 1038 208 1019 m 476 979 b 257 793 476 878 407 793 b 36 979 108 793 36 878 b 257 1167 36 1081 108 1167 b 476 979 406 1167 476 1081 "},"˛":{"ha":557,"x_min":0,"x_max":0,"o":"m 267 -365 b 46 -192 129 -365 46 -301 b 246 26 46 -100 122 -11 l 403 26 b 219 -167 326 -10 219 -79 b 279 -236 219 -215 251 -236 b 328 -200 303 -236 322 -224 l 511 -200 b 267 -365 486 -287 417 -365 "},"˜":{"ha":526,"x_min":0,"x_max":0,"o":"m 358 800 b 168 850 275 800 231 850 b 42 804 135 850 99 836 l 42 978 b 174 1018 89 1006 125 1018 b 364 967 254 1018 300 967 b 485 1013 396 967 428 981 l 485 839 b 358 800 438 811 403 800 "},"˝":{"ha":846,"x_min":0,"x_max":0,"o":"m 192 1021 l 461 1021 l 238 807 l 42 807 m 535 1021 l 804 1021 l 581 807 l 385 807 "},"̒":{"ha":375,"x_min":0,"x_max":0,"o":"m 53 938 b 318 1236 53 1118 135 1218 l 318 1122 b 215 1007 253 1110 215 1072 l 282 1007 l 282 800 l 53 800 "},"̣":{"ha":367,"x_min":0,"x_max":0,"o":"m 42 -250 l 42 -47 l 325 -47 l 325 -250 "},";":{"ha":421,"x_min":0,"x_max":0,"o":"m 64 471 l 64 722 l 357 722 l 357 471 m 357 58 b 39 -244 357 -133 240 -231 l 39 -122 b 161 0 114 -112 161 -72 l 64 0 l 64 251 l 357 251 "},"΄":{"ha":375,"x_min":0,"x_max":0,"o":"m 72 1000 l 333 1000 l 229 796 l 42 796 "},"΅":{"ha":682,"x_min":0,"x_max":0,"o":"m 42 813 l 42 1013 l 265 1013 l 265 813 m 415 813 l 415 1013 l 640 1013 l 640 813 m 285 1251 l 529 1251 l 425 1047 l 254 1047 "},"Ά":{"ha":1028,"x_min":0,"x_max":0,"o":"m 725 0 l 661 218 l 351 218 l 288 0 l -4 0 l 363 1000 l 663 1000 l 1032 0 m 407 410 l 607 410 l 508 749 m 38 1000 l 299 1000 l 194 796 l 7 796 "},"·":{"ha":411,"x_min":0,"x_max":0,"o":"m 64 306 l 64 549 l 346 549 l 346 306 "},"Έ":{"ha":1085,"x_min":0,"x_max":0,"o":"m 996 408 l 601 408 l 601 203 l 1036 203 l 1036 0 l 311 0 l 311 1000 l 1036 1000 l 1036 794 l 601 794 l 601 600 l 996 600 m 8 1000 l 269 1000 l 165 796 l -22 796 "},"Ή":{"ha":1275,"x_min":0,"x_max":0,"o":"m 1194 1000 l 1194 0 l 906 0 l 906 407 l 601 407 l 601 0 l 311 0 l 311 1000 l 601 1000 l 601 604 l 906 604 l 906 1000 m 8 1000 l 269 1000 l 165 796 l -22 796 "},"Ί":{"ha":686,"x_min":0,"x_max":0,"o":"m 603 1000 l 603 0 l 313 0 l 313 1000 m 8 1000 l 269 1000 l 165 796 l -22 796 "},"Ό":{"ha":1161,"x_min":0,"x_max":0,"o":"m 603 183 b 821 500 713 183 821 260 b 603 818 821 740 711 818 b 386 499 492 818 386 740 b 603 183 386 258 497 183 m 603 -21 b 93 499 349 -21 93 113 b 603 1021 93 878 347 1021 b 1114 500 860 1021 1114 886 b 603 -21 1114 121 858 -21 m -62 1000 l 199 1000 l 94 796 l -93 796 "},"Ύ":{"ha":1293,"x_min":0,"x_max":0,"o":"m 650 0 l 650 400 l 286 1000 l 599 1000 l 794 619 l 1007 1000 l 1292 1000 l 928 400 l 928 0 m -3 1000 l 258 1000 l 154 796 l -33 796 "},"Ώ":{"ha":1239,"x_min":0,"x_max":0,"o":"m 736 185 b 899 499 826 186 899 274 b 681 818 899 740 789 818 b 463 497 569 818 463 739 b 624 185 463 271 539 185 l 624 0 l 186 0 l 186 194 l 306 194 b 171 529 226 271 171 389 b 681 1021 171 865 424 1021 b 1190 531 938 1021 1190 874 b 1051 194 1190 392 1131 272 l 1175 194 l 1175 0 l 736 0 l 736 185 m 17 1000 l 278 1000 l 174 796 l -14 796 "},"ΐ":{"ha":399,"x_min":0,"x_max":0,"o":"m 65 0 l 65 722 l 333 722 l 333 0 m -99 813 l -99 1013 l 125 1013 l 125 813 m 275 813 l 275 1013 l 500 1013 l 500 813 m 144 1251 l 389 1251 l 285 1047 l 114 1047 "},"Α":{"ha":1028,"x_min":0,"x_max":0,"o":"m 725 0 l 661 218 l 351 218 l 288 0 l -4 0 l 363 1000 l 663 1000 l 1032 0 m 407 410 l 607 410 l 508 749 "},"Β":{"ha":954,"x_min":0,"x_max":0,"o":"m 444 1000 b 874 736 750 1000 874 913 b 706 532 874 640 801 561 b 913 292 828 508 913 417 b 475 0 913 107 790 0 l 79 0 l 79 1000 m 369 433 l 369 189 l 483 189 b 621 307 578 189 621 226 b 490 433 621 388 569 433 m 369 811 l 369 610 l 469 610 b 583 714 543 610 583 646 b 465 811 583 775 538 811 "},"Γ":{"ha":757,"x_min":0,"x_max":0,"o":"m 750 794 l 369 794 l 369 0 l 79 0 l 79 1000 l 750 1000 "},"Δ":{"ha":1028,"x_min":0,"x_max":0,"o":"m -4 0 l 363 1000 l 663 1000 l 1032 0 m 343 192 l 669 192 l 508 749 "},"Ε":{"ha":853,"x_min":0,"x_max":0,"o":"m 764 408 l 369 408 l 369 203 l 804 203 l 804 0 l 79 0 l 79 1000 l 804 1000 l 804 794 l 369 794 l 369 600 l 764 600 "},"Ζ":{"ha":899,"x_min":0,"x_max":0,"o":"m 381 201 l 860 201 l 860 0 l 31 0 l 31 189 l 517 799 l 57 799 l 57 1000 l 868 1000 l 868 814 "},"Η":{"ha":1042,"x_min":0,"x_max":0,"o":"m 963 1000 l 963 0 l 674 0 l 674 407 l 369 407 l 369 0 l 79 0 l 79 1000 l 369 1000 l 369 604 l 674 604 l 674 1000 "},"Θ":{"ha":1115,"x_min":0,"x_max":0,"o":"m 696 408 l 417 408 l 417 600 l 696 600 m 557 183 b 779 500 667 183 779 260 b 557 818 779 740 665 818 b 336 499 446 818 336 740 b 557 183 336 258 451 183 m 557 -21 b 47 499 303 -21 47 113 b 557 1021 47 878 301 1021 b 1068 500 814 1021 1068 886 b 557 -21 1068 121 813 -21 "},"Ι":{"ha":449,"x_min":0,"x_max":0,"o":"m 369 1000 l 369 0 l 79 0 l 79 1000 "},"Κ":{"ha":1057,"x_min":0,"x_max":0,"o":"m 688 0 l 369 375 l 369 0 l 79 0 l 79 1000 l 369 1000 l 369 638 l 676 1000 l 1010 1000 l 589 531 l 1057 0 "},"Λ":{"ha":1017,"x_min":0,"x_max":0,"o":"m 715 0 l 503 749 l 288 0 l -4 0 l 357 1000 l 657 1000 l 1021 0 "},"Μ":{"ha":1272,"x_min":0,"x_max":0,"o":"m 515 0 l 325 564 l 325 0 l 79 0 l 79 1000 l 389 1000 l 636 274 l 878 1000 l 1193 1000 l 1193 0 l 933 0 l 933 551 l 749 0 "},"Ν":{"ha":1039,"x_min":0,"x_max":0,"o":"m 960 1000 l 960 0 l 672 0 l 326 617 l 326 0 l 79 0 l 79 1000 l 385 1000 l 713 413 l 713 1000 "},"Ξ":{"ha":847,"x_min":0,"x_max":0,"o":"m 799 0 l 49 0 l 49 211 l 799 211 m 799 789 l 50 789 l 50 1000 l 799 1000 m 682 404 l 174 404 l 174 604 l 682 604 "},"Ο":{"ha":1115,"x_min":0,"x_max":0,"o":"m 557 183 b 775 500 667 183 775 260 b 557 818 775 740 665 818 b 340 499 446 818 340 740 b 557 183 340 258 451 183 m 557 -21 b 47 499 303 -21 47 113 b 557 1021 47 878 301 1021 b 1068 500 814 1021 1068 886 b 557 -21 1068 121 813 -21 "},"Π":{"ha":1042,"x_min":0,"x_max":0,"o":"m 963 1000 l 963 0 l 674 0 l 674 801 l 369 801 l 369 0 l 79 0 l 79 1000 "},"Ρ":{"ha":960,"x_min":0,"x_max":0,"o":"m 464 1000 b 919 658 786 1000 919 886 b 472 318 919 431 779 318 l 368 318 l 368 0 l 79 0 l 79 1000 m 368 804 l 368 513 l 474 513 b 626 658 568 513 626 564 b 467 804 626 758 568 804 "},"Σ":{"ha":886,"x_min":0,"x_max":0,"o":"m 586 435 l 396 201 l 835 201 l 835 0 l 46 0 l 46 186 l 317 499 l 46 814 l 46 1000 l 826 1000 l 826 797 l 396 797 l 586 565 "},"Τ":{"ha":883,"x_min":0,"x_max":0,"o":"m 876 790 l 585 790 l 585 0 l 294 0 l 294 790 l 7 790 l 7 1000 l 876 1000 "},"Υ":{"ha":1006,"x_min":0,"x_max":0,"o":"m 364 0 l 364 400 l 0 1000 l 313 1000 l 508 619 l 721 1000 l 1006 1000 l 642 400 l 642 0 "},"Φ":{"ha":1363,"x_min":0,"x_max":0,"o":"m 821 1021 l 821 969 b 1315 501 1103 963 1315 808 b 821 31 1315 189 1101 36 l 821 -21 l 540 -21 l 540 31 b 47 501 260 36 47 189 b 540 969 47 808 258 963 l 540 1021 m 1026 501 b 821 765 1026 685 935 758 l 821 235 b 1026 501 933 242 1026 318 m 336 501 b 540 236 336 318 428 243 l 540 765 b 336 501 426 757 336 685 "},"Χ":{"ha":1042,"x_min":0,"x_max":0,"o":"m 678 529 l 1035 0 l 692 0 l 506 314 l 322 0 l 7 0 l 364 517 l 31 1000 l 368 1000 l 539 725 l 707 1000 l 1011 1000 "},"Ψ":{"ha":1221,"x_min":0,"x_max":0,"o":"m 347 1000 l 347 589 b 474 419 347 496 378 440 l 474 1000 l 751 1000 l 751 419 b 881 589 846 442 881 496 l 881 1000 l 1151 1000 l 1151 606 b 751 214 1151 381 1039 244 l 751 0 l 474 0 l 474 213 b 69 606 186 244 69 379 l 69 1000 "},"Ω":{"ha":1117,"x_min":0,"x_max":0,"o":"m 614 185 b 776 499 704 186 776 274 b 558 818 776 740 667 818 b 340 497 447 818 340 739 b 501 185 340 271 417 185 l 501 0 l 64 0 l 64 194 l 183 194 b 49 529 104 271 49 389 b 558 1021 49 865 301 1021 b 1068 531 815 1021 1068 874 b 929 194 1068 392 1008 272 l 1053 194 l 1053 0 l 614 0 l 614 185 "},"Ϊ":{"ha":449,"x_min":0,"x_max":0,"o":"m 369 1000 l 369 0 l 79 0 l 79 1000 m -60 1085 l -60 1285 l 181 1285 l 181 1085 m 271 1085 l 271 1285 l 511 1285 l 511 1085 "},"Ϋ":{"ha":1006,"x_min":0,"x_max":0,"o":"m 364 0 l 364 400 l 0 1000 l 313 1000 l 508 619 l 721 1000 l 1006 1000 l 642 400 l 642 0 m 217 1085 l 217 1285 l 457 1285 l 457 1085 m 547 1085 l 547 1285 l 788 1285 l 788 1085 "},"ά":{"ha":888,"x_min":0,"x_max":0,"o":"m 610 0 l 568 88 b 353 -21 517 25 442 -21 b 40 354 171 -21 40 113 b 354 743 40 606 172 743 b 567 646 450 743 519 706 l 610 722 l 824 722 l 824 0 m 311 356 b 435 171 311 226 361 171 b 560 357 506 171 560 225 b 436 551 560 508 503 551 b 311 356 364 551 311 489 m 375 1000 l 636 1000 l 532 796 l 344 796 "},"έ":{"ha":807,"x_min":0,"x_max":0,"o":"m 331 1000 l 592 1000 l 488 796 l 300 796 m 385 743 b 768 490 601 743 738 639 l 507 490 b 399 565 493 539 454 565 b 326 511 354 565 326 542 b 415 449 326 472 354 449 l 463 449 l 463 297 l 426 297 b 311 229 343 297 311 269 b 390 158 311 186 340 158 b 510 253 449 158 490 189 l 769 253 b 388 -21 732 93 618 -21 b 38 206 142 -21 38 79 b 215 383 38 300 100 369 b 60 551 106 408 60 467 b 385 743 60 656 154 743 "},"ή":{"ha":844,"x_min":0,"x_max":0,"o":"m 64 0 l 64 722 l 292 722 l 313 642 b 531 743 361 704 433 743 b 788 463 692 743 788 646 l 788 -250 l 518 -250 l 518 463 b 438 558 518 531 488 558 b 332 422 369 558 332 500 l 332 0 m 336 1000 l 597 1000 l 493 796 l 306 796 "},"ί":{"ha":399,"x_min":0,"x_max":0,"o":"m 129 1000 l 390 1000 l 286 796 l 99 796 m 65 0 l 65 722 l 333 722 l 333 0 "},"ΰ":{"ha":828,"x_min":0,"x_max":0,"o":"m 414 -21 b 57 267 190 -21 57 75 l 57 722 l 325 722 l 325 261 b 414 164 325 196 353 164 b 503 261 475 164 503 196 l 503 722 l 771 722 l 771 267 b 414 -21 771 75 638 -21 m 114 813 l 114 1013 l 338 1013 l 338 813 m 488 813 l 488 1013 l 713 1013 l 713 813 m 357 1251 l 601 1251 l 497 1047 l 326 1047 "},"α":{"ha":888,"x_min":0,"x_max":0,"o":"m 610 0 l 568 88 b 353 -21 517 25 442 -21 b 40 354 171 -21 40 113 b 354 743 40 606 172 743 b 567 646 450 743 519 706 l 610 722 l 824 722 l 824 0 m 311 356 b 435 171 311 226 361 171 b 560 357 506 171 560 225 b 436 551 560 508 503 551 b 311 356 364 551 311 489 "},"β":{"ha":846,"x_min":0,"x_max":0,"o":"m 540 -21 b 336 76 451 -21 379 17 l 336 -250 l 64 -250 l 64 714 b 414 1021 64 903 182 1021 b 768 774 656 1021 768 925 b 582 553 768 663 694 571 b 794 290 699 542 794 433 b 540 -21 794 88 706 -21 m 531 319 b 436 464 531 418 489 464 l 401 464 l 401 621 l 432 621 b 507 743 471 621 507 663 b 424 833 507 803 474 833 b 336 699 367 833 336 797 l 336 367 b 433 171 336 225 376 171 b 531 319 490 171 531 219 "},"γ":{"ha":821,"x_min":0,"x_max":0,"o":"m 275 -250 l 275 0 l -1 722 l 289 722 l 417 232 l 542 722 l 822 722 l 544 0 l 544 -250 "},"δ":{"ha":818,"x_min":0,"x_max":0,"o":"m 185 1000 l 725 1000 l 725 828 l 515 828 b 778 414 668 757 778 603 b 415 -21 778 138 644 -21 b 40 325 175 -21 40 108 b 347 674 40 533 164 674 b 481 629 394 674 456 654 b 185 857 438 747 332 832 m 408 492 b 321 325 356 492 321 454 b 414 161 321 206 354 161 b 499 351 461 161 499 207 b 408 492 499 447 467 492 "},"ε":{"ha":807,"x_min":0,"x_max":0,"o":"m 385 743 b 768 490 601 743 738 639 l 507 490 b 399 565 493 539 454 565 b 326 511 354 565 326 542 b 415 449 326 472 354 449 l 463 449 l 463 297 l 426 297 b 311 229 343 297 311 269 b 390 158 311 186 340 158 b 510 253 449 158 490 189 l 769 253 b 388 -21 732 93 618 -21 b 38 206 142 -21 38 79 b 215 383 38 300 100 369 b 60 551 106 408 60 467 b 385 743 60 656 154 743 "},"ζ":{"ha":739,"x_min":0,"x_max":0,"o":"m 669 853 b 307 397 390 721 307 578 b 513 131 307 271 375 169 b 719 -61 671 85 719 33 b 551 -315 719 -142 640 -256 l 407 -200 b 463 -108 438 -169 463 -140 b 356 -31 463 -75 442 -54 b 40 368 147 25 40 164 b 351 825 40 543 135 703 l 60 825 l 60 1000 l 669 1000 "},"η":{"ha":844,"x_min":0,"x_max":0,"o":"m 64 0 l 64 722 l 292 722 l 313 642 b 531 743 361 704 433 743 b 788 463 692 743 788 646 l 788 -250 l 518 -250 l 518 463 b 438 558 518 531 488 558 b 332 422 369 558 332 500 l 332 0 "},"θ":{"ha":835,"x_min":0,"x_max":0,"o":"m 417 -21 b 32 499 182 -21 32 144 b 417 1021 32 860 179 1021 b 803 499 656 1021 803 860 b 417 -21 803 144 653 -21 m 417 160 b 526 418 479 160 519 221 l 308 418 b 417 160 317 221 356 160 m 417 843 b 308 593 357 843 318 781 l 526 593 b 417 843 517 781 478 843 "},"ι":{"ha":399,"x_min":0,"x_max":0,"o":"m 65 0 l 65 722 l 333 722 l 333 0 "},"κ":{"ha":865,"x_min":0,"x_max":0,"o":"m 64 0 l 64 722 l 332 722 l 332 482 l 547 722 l 850 722 l 536 396 l 871 0 l 535 0 l 332 268 l 332 0 "},"λ":{"ha":828,"x_min":0,"x_max":0,"o":"m 550 0 l 408 531 l 276 0 l -1 0 l 265 722 l 315 722 b 226 838 290 817 272 838 b 132 822 204 838 178 833 l 132 1001 b 275 1021 186 1014 235 1021 b 568 721 415 1021 482 958 l 829 0 "},"μ":{"ha":843,"x_min":0,"x_max":0,"o":"m 332 722 l 332 251 b 417 164 332 192 365 164 b 511 288 479 164 511 213 l 511 722 l 779 722 l 779 0 l 569 0 l 551 57 b 383 -21 511 4 451 -21 b 332 -14 364 -21 347 -18 l 332 -250 l 64 -250 l 64 722 "},"ν":{"ha":821,"x_min":0,"x_max":0,"o":"m 822 722 l 564 0 l 256 0 l -1 722 l 289 722 l 417 218 l 542 722 "},"ξ":{"ha":778,"x_min":0,"x_max":0,"o":"m 40 267 b 218 497 40 388 114 482 b 63 656 117 518 63 575 b 254 828 63 732 118 799 l 68 828 l 68 1000 l 675 1000 l 675 853 l 633 853 b 329 681 435 853 329 783 b 482 574 329 610 369 574 l 574 574 l 574 400 l 493 400 b 306 286 347 400 306 350 b 479 147 306 210 365 172 b 743 -64 686 100 743 39 b 574 -315 743 -142 667 -244 l 429 -200 b 486 -107 458 -169 486 -139 b 357 -33 486 -71 467 -53 b 40 267 151 4 40 114 "},"ο":{"ha":876,"x_min":0,"x_max":0,"o":"m 40 364 b 438 743 40 624 204 743 b 836 364 671 743 836 624 b 438 -21 836 104 672 -21 b 40 364 208 -21 40 103 m 315 364 b 439 157 315 214 360 157 b 563 364 522 157 563 211 b 438 565 563 517 519 565 b 315 364 354 565 315 514 "},"π":{"ha":824,"x_min":0,"x_max":0,"o":"m 746 540 l 746 0 l 479 0 l 479 540 l 346 540 l 346 0 l 78 0 l 78 540 l 11 540 l 11 722 l 813 722 l 813 540 "},"ρ":{"ha":886,"x_min":0,"x_max":0,"o":"m 522 -21 b 326 60 446 -21 378 10 l 326 -250 l 57 -250 l 57 365 b 444 743 57 613 175 743 b 846 369 696 743 846 603 b 522 -21 846 119 710 -21 m 576 367 b 444 553 576 499 521 553 b 319 369 374 553 319 493 b 446 169 319 221 375 169 b 576 367 519 169 576 229 "},"ς":{"ha":843,"x_min":0,"x_max":0,"o":"m 517 158 b 779 -64 713 113 779 49 b 619 -311 779 -140 708 -240 l 478 -194 b 531 -100 510 -162 531 -133 b 410 -25 531 -60 500 -37 b 40 354 142 14 40 132 b 429 743 40 594 189 743 b 806 468 632 743 778 631 l 528 468 b 433 564 518 528 476 564 b 317 364 363 564 317 507 b 517 158 317 240 356 196 "},"σ":{"ha":876,"x_min":0,"x_max":0,"o":"m 792 540 b 836 363 819 489 836 426 b 438 -21 836 107 672 -21 b 40 364 208 -21 40 103 b 436 743 40 624 204 743 b 579 722 486 743 535 736 l 864 722 l 864 536 m 315 364 b 439 157 315 214 360 157 b 563 363 522 157 563 211 b 438 565 563 522 519 565 b 315 364 356 565 315 513 "},"τ":{"ha":722,"x_min":0,"x_max":0,"o":"m 10 722 l 713 722 l 713 540 l 494 540 l 494 0 l 226 0 l 226 540 l 10 540 "},"υ":{"ha":828,"x_min":0,"x_max":0,"o":"m 414 -21 b 57 267 190 -21 57 75 l 57 722 l 325 722 l 325 261 b 414 164 325 196 353 164 b 503 261 475 164 503 196 l 503 722 l 771 722 l 771 267 b 414 -21 771 75 638 -21 "},"φ":{"ha":1164,"x_min":0,"x_max":0,"o":"m 306 375 b 435 193 306 272 340 215 l 435 372 b 775 743 435 606 514 743 b 1124 397 997 743 1124 631 b 701 -15 1124 142 1000 13 l 701 -250 l 435 -250 l 435 -15 b 40 339 147 13 40 138 b 114 722 40 474 64 589 l 378 722 b 306 375 332 593 306 464 m 701 192 b 860 389 819 214 860 274 b 776 553 860 514 828 553 b 701 375 728 553 701 521 "},"χ":{"ha":847,"x_min":0,"x_max":0,"o":"m 569 251 l 849 -250 l 526 -250 l 410 60 l 290 -250 l -1 -250 l 272 249 l 11 722 l 326 722 l 429 428 l 525 722 l 813 722 "},"ψ":{"ha":1154,"x_min":0,"x_max":0,"o":"m 321 722 l 321 361 b 450 190 321 265 357 213 l 450 722 l 708 722 l 708 192 b 842 361 803 213 842 265 l 842 722 l 1093 722 l 1093 378 b 708 -14 1093 144 986 14 l 708 -250 l 450 -250 l 450 -15 b 61 378 167 13 61 143 l 61 722 "},"ω":{"ha":1147,"x_min":0,"x_max":0,"o":"m 1015 722 b 1103 285 1069 585 1103 453 b 835 -21 1103 90 996 -21 b 572 188 676 -21 582 72 b 313 -21 564 72 468 -21 b 44 285 150 -21 44 90 b 131 722 44 453 78 585 l 385 722 b 306 299 338 593 306 447 b 385 164 306 213 333 164 b 461 296 432 164 461 213 l 461 528 l 686 528 l 686 296 b 763 164 686 213 715 164 b 842 299 814 164 842 213 b 763 722 842 447 810 593 "},"ϊ":{"ha":399,"x_min":0,"x_max":0,"o":"m -85 813 l -85 1013 l 156 1013 l 156 813 m 246 813 l 246 1013 l 486 1013 l 486 813 m 65 0 l 65 722 l 333 722 l 333 0 "},"ϋ":{"ha":828,"x_min":0,"x_max":0,"o":"m 414 -21 b 57 267 190 -21 57 75 l 57 722 l 325 722 l 325 261 b 414 164 325 196 353 164 b 503 261 475 164 503 196 l 503 722 l 771 722 l 771 267 b 414 -21 771 75 638 -21 m 128 813 l 128 1013 l 368 1013 l 368 813 m 458 813 l 458 1013 l 699 1013 l 699 813 "},"ό":{"ha":876,"x_min":0,"x_max":0,"o":"m 40 364 b 438 743 40 624 204 743 b 836 364 671 743 836 624 b 438 -21 836 104 672 -21 b 40 364 208 -21 40 103 m 315 364 b 439 157 315 214 360 157 b 563 364 522 157 563 211 b 438 565 563 517 519 565 b 315 364 354 565 315 514 m 368 1000 l 629 1000 l 525 796 l 338 796 "},"ύ":{"ha":828,"x_min":0,"x_max":0,"o":"m 354 1000 l 615 1000 l 511 796 l 324 796 m 414 -21 b 57 267 190 -21 57 75 l 57 722 l 325 722 l 325 261 b 414 164 325 196 353 164 b 503 261 475 164 503 196 l 503 722 l 771 722 l 771 267 b 414 -21 771 75 638 -21 "},"ώ":{"ha":1147,"x_min":0,"x_max":0,"o":"m 1015 722 b 1103 285 1069 585 1103 453 b 835 -21 1103 90 996 -21 b 572 188 676 -21 582 72 b 313 -21 564 72 468 -21 b 44 285 150 -21 44 90 b 131 722 44 453 78 585 l 385 722 b 306 299 338 593 306 447 b 385 164 306 213 333 164 b 461 296 432 164 461 213 l 461 528 l 686 528 l 686 296 b 763 164 686 213 715 164 b 842 299 814 164 842 213 b 763 722 842 447 810 593 m 518 1000 l 779 1000 l 675 796 l 488 796 "},"Ё":{"ha":853,"x_min":0,"x_max":0,"o":"m 764 408 l 369 408 l 369 203 l 804 203 l 804 0 l 79 0 l 79 1000 l 804 1000 l 804 794 l 369 794 l 369 600 l 764 600 m 153 1085 l 153 1285 l 393 1285 l 393 1085 m 483 1085 l 483 1285 l 724 1285 l 724 1085 "},"Ђ":{"ha":1188,"x_min":0,"x_max":0,"o":"m 267 0 l 267 790 l 7 790 l 7 1000 l 821 1000 l 821 790 l 557 790 l 557 611 b 810 710 625 672 713 710 b 1140 344 1028 710 1140 600 l 1140 228 b 871 -21 1140 75 1057 -21 b 729 -3 821 -21 768 -14 l 729 185 b 796 175 756 178 779 175 b 849 238 833 175 849 190 l 849 363 b 717 508 849 457 806 508 b 557 340 619 508 557 433 l 557 0 "},"Ѓ":{"ha":757,"x_min":0,"x_max":0,"o":"m 750 794 l 369 794 l 369 0 l 79 0 l 79 1000 l 750 1000 m 397 1290 l 667 1290 l 443 1076 l 247 1076 "},"Є":{"ha":1061,"x_min":0,"x_max":0,"o":"m 539 178 b 724 383 644 178 713 242 l 1017 383 b 535 -21 982 110 811 -21 b 47 503 249 -21 47 160 b 546 1021 47 838 238 1021 b 1010 654 790 1021 971 892 l 721 654 b 546 822 696 775 629 822 b 354 607 449 822 376 758 l 608 607 l 608 414 l 351 414 b 539 178 371 246 447 178 "},"Ѕ":{"ha":979,"x_min":0,"x_max":0,"o":"m 494 -21 b 29 315 182 -21 54 146 l 310 315 b 497 176 325 232 385 176 b 653 268 603 176 653 215 b 428 403 653 344 594 367 b 67 721 196 454 67 533 b 485 1021 67 896 197 1021 b 924 708 732 1021 892 903 l 650 708 b 482 825 636 788 574 825 b 358 747 399 825 358 793 b 538 642 358 689 404 668 b 944 293 793 590 944 486 b 494 -21 944 128 811 -21 "},"І":{"ha":449,"x_min":0,"x_max":0,"o":"m 369 1000 l 369 0 l 79 0 l 79 1000 "},"Ї":{"ha":449,"x_min":0,"x_max":0,"o":"m 369 1000 l 369 0 l 79 0 l 79 1000 m -60 1085 l -60 1285 l 181 1285 l 181 1085 m 271 1085 l 271 1285 l 511 1285 l 511 1085 "},"Ј":{"ha":824,"x_min":0,"x_max":0,"o":"m 299 318 b 389 179 306 211 346 179 b 469 301 435 179 469 204 l 469 1000 l 751 1000 l 751 325 b 393 -21 751 111 633 -21 b 19 318 192 -21 42 86 "},"Љ":{"ha":1543,"x_min":0,"x_max":0,"o":"m 661 810 l 421 810 l 372 269 b 7 0 356 79 261 0 l 7 185 b 107 290 69 185 99 200 l 169 1000 l 951 1000 l 951 681 l 1047 681 b 1503 340 1367 681 1503 569 b 1056 0 1503 115 1363 0 l 661 0 m 951 485 l 951 194 l 1057 194 b 1210 340 1153 194 1210 247 b 1050 485 1210 439 1151 485 "},"Њ":{"ha":1535,"x_min":0,"x_max":0,"o":"m 943 1000 l 943 640 l 1039 640 b 1493 326 1360 640 1493 542 b 1047 0 1493 115 1356 0 l 653 0 l 653 444 l 368 444 l 368 0 l 79 0 l 79 1000 l 368 1000 l 368 640 l 653 640 l 653 1000 m 943 444 l 943 194 l 1049 194 b 1201 326 1143 194 1201 243 b 1042 444 1201 415 1143 444 "},"Ћ":{"ha":1188,"x_min":0,"x_max":0,"o":"m 267 0 l 267 790 l 7 790 l 7 1000 l 821 1000 l 821 790 l 557 790 l 557 611 b 810 710 625 672 713 710 b 1140 344 1028 710 1140 600 l 1140 0 l 849 0 l 849 363 b 717 508 849 457 806 508 b 557 342 619 508 557 435 l 557 0 "},"Ќ":{"ha":1057,"x_min":0,"x_max":0,"o":"m 517 1289 l 786 1289 l 563 1075 l 367 1075 m 711 0 l 435 407 l 369 407 l 369 0 l 79 0 l 79 1000 l 369 1000 l 369 603 l 432 603 l 699 1000 l 1010 1000 l 668 529 l 1057 0 "},"Ў":{"ha":907,"x_min":0,"x_max":0,"o":"m 456 1069 b 214 1256 326 1071 229 1117 l 407 1256 b 456 1211 411 1222 433 1211 b 504 1256 478 1211 500 1222 l 697 1256 b 456 1069 676 1117 574 1069 m 621 256 b 313 -21 544 56 468 -21 b 167 -1 272 -21 222 -14 l 167 185 b 267 168 211 171 246 168 b 356 249 311 168 335 183 l 286 249 b 0 1000 190 499 94 749 l 292 1000 l 457 442 l 626 1000 l 906 1000 "},"Џ":{"ha":1042,"x_min":0,"x_max":0,"o":"m 654 0 l 654 -194 l 386 -194 l 386 0 l 79 0 l 79 1000 l 369 1000 l 369 200 l 672 200 l 672 1000 l 963 1000 l 963 0 "},"А":{"ha":1028,"x_min":0,"x_max":0,"o":"m 725 0 l 661 218 l 351 218 l 288 0 l -4 0 l 363 1000 l 663 1000 l 1032 0 m 407 410 l 607 410 l 508 749 "},"Б":{"ha":974,"x_min":0,"x_max":0,"o":"m 754 796 l 368 796 l 368 681 l 464 681 b 919 340 783 681 919 569 b 472 0 919 115 779 0 l 79 0 l 79 1000 l 754 1000 m 368 485 l 368 194 l 474 194 b 626 340 569 194 626 247 b 467 485 626 439 569 485 "},"В":{"ha":954,"x_min":0,"x_max":0,"o":"m 444 1000 b 874 736 750 1000 874 913 b 706 532 874 640 801 561 b 913 292 828 508 913 417 b 475 0 913 107 790 0 l 79 0 l 79 1000 m 369 433 l 369 189 l 483 189 b 621 307 578 189 621 226 b 490 433 621 388 569 433 m 369 811 l 369 610 l 469 610 b 583 714 543 610 583 646 b 465 811 583 775 538 811 "},"Г":{"ha":757,"x_min":0,"x_max":0,"o":"m 750 794 l 369 794 l 369 0 l 79 0 l 79 1000 l 750 1000 "},"Д":{"ha":1050,"x_min":0,"x_max":0,"o":"m 951 1000 l 951 194 l 1060 194 l 1060 -194 l 799 -194 l 799 0 l 249 0 l 249 -194 l -12 -194 l -12 194 l 76 194 b 138 349 114 225 133 271 l 169 1000 m 410 418 b 310 194 404 315 369 249 l 669 194 l 669 804 l 429 804 "},"Е":{"ha":853,"x_min":0,"x_max":0,"o":"m 764 408 l 369 408 l 369 203 l 804 203 l 804 0 l 79 0 l 79 1000 l 804 1000 l 804 794 l 369 794 l 369 600 l 764 600 "},"Ж":{"ha":1511,"x_min":0,"x_max":0,"o":"m 358 1000 l 565 603 l 611 603 l 611 1000 l 900 1000 l 900 603 l 946 603 l 1153 1000 l 1464 1000 l 1185 524 l 1511 0 l 1171 0 l 953 407 l 900 407 l 900 0 l 611 0 l 611 407 l 558 407 l 338 0 l 0 0 l 326 524 l 47 1000 "},"З":{"ha":939,"x_min":0,"x_max":0,"o":"m 467 178 b 600 306 544 178 600 224 b 458 431 600 392 540 431 l 364 431 l 364 607 l 453 607 b 581 722 525 607 581 640 b 465 824 581 783 538 824 b 331 733 392 824 344 792 l 50 733 b 478 1021 75 899 232 1021 b 875 760 728 1021 875 917 b 699 531 875 647 811 565 b 896 290 815 504 896 414 b 472 -21 896 104 731 -21 b 35 285 217 -21 51 118 l 324 285 b 467 178 332 219 379 178 "},"И":{"ha":1042,"x_min":0,"x_max":0,"o":"m 963 1000 l 963 0 l 674 0 l 674 557 l 369 68 l 369 0 l 79 0 l 79 1000 l 369 1000 l 369 442 l 674 932 l 674 1000 "},"Й":{"ha":1042,"x_min":0,"x_max":0,"o":"m 518 1069 b 276 1256 389 1071 292 1117 l 469 1256 b 518 1211 474 1222 496 1211 b 567 1256 540 1211 563 1222 l 760 1256 b 518 1069 739 1117 636 1069 m 963 1000 l 963 0 l 674 0 l 674 557 l 369 68 l 369 0 l 79 0 l 79 1000 l 369 1000 l 369 442 l 674 932 l 674 1000 "},"К":{"ha":1057,"x_min":0,"x_max":0,"o":"m 711 0 l 435 407 l 369 407 l 369 0 l 79 0 l 79 1000 l 369 1000 l 369 603 l 432 603 l 699 1000 l 1010 1000 l 668 529 l 1057 0 "},"Л":{"ha":1032,"x_min":0,"x_max":0,"o":"m 953 1000 l 953 0 l 671 0 l 671 806 l 419 806 l 372 281 b 7 0 356 97 269 0 l 7 185 b 108 290 71 185 101 204 l 169 1000 "},"М":{"ha":1272,"x_min":0,"x_max":0,"o":"m 515 0 l 325 564 l 325 0 l 79 0 l 79 1000 l 389 1000 l 636 274 l 878 1000 l 1193 1000 l 1193 0 l 933 0 l 933 551 l 749 0 "},"Н":{"ha":1042,"x_min":0,"x_max":0,"o":"m 963 1000 l 963 0 l 674 0 l 674 407 l 369 407 l 369 0 l 79 0 l 79 1000 l 369 1000 l 369 604 l 674 604 l 674 1000 "},"О":{"ha":1115,"x_min":0,"x_max":0,"o":"m 557 183 b 775 500 667 183 775 260 b 557 818 775 740 665 818 b 340 499 446 818 340 740 b 557 183 340 258 451 183 m 557 -21 b 47 499 303 -21 47 113 b 557 1021 47 878 301 1021 b 1068 500 814 1021 1068 886 b 557 -21 1068 121 813 -21 "},"П":{"ha":1042,"x_min":0,"x_max":0,"o":"m 963 1000 l 963 0 l 674 0 l 674 801 l 369 801 l 369 0 l 79 0 l 79 1000 "},"Р":{"ha":960,"x_min":0,"x_max":0,"o":"m 464 1000 b 919 658 786 1000 919 886 b 472 318 919 431 779 318 l 368 318 l 368 0 l 79 0 l 79 1000 m 368 804 l 368 513 l 474 513 b 626 658 568 513 626 564 b 467 804 626 758 568 804 "},"С":{"ha":1061,"x_min":0,"x_max":0,"o":"m 539 178 b 724 383 644 178 713 242 l 1017 383 b 535 -21 982 110 811 -21 b 47 503 249 -21 47 160 b 546 1021 47 838 238 1021 b 1010 654 790 1021 971 892 l 721 654 b 546 822 696 775 629 822 b 347 503 431 822 347 732 b 539 178 347 269 433 178 "},"Т":{"ha":883,"x_min":0,"x_max":0,"o":"m 876 790 l 585 790 l 585 0 l 294 0 l 294 790 l 7 790 l 7 1000 l 876 1000 "},"У":{"ha":907,"x_min":0,"x_max":0,"o":"m 621 256 b 313 -21 544 56 468 -21 b 167 -1 272 -21 222 -14 l 167 185 b 267 168 211 171 246 168 b 356 249 311 168 335 183 l 286 249 b 0 1000 190 499 94 749 l 292 1000 l 457 442 l 626 1000 l 906 1000 "},"Ф":{"ha":1363,"x_min":0,"x_max":0,"o":"m 821 1021 l 821 969 b 1315 501 1103 963 1315 808 b 821 31 1315 189 1101 36 l 821 -21 l 540 -21 l 540 31 b 47 501 260 36 47 189 b 540 969 47 808 258 963 l 540 1021 m 1026 501 b 821 765 1026 685 935 758 l 821 235 b 1026 501 933 242 1026 318 m 336 501 b 540 236 336 318 428 243 l 540 765 b 336 501 426 757 336 685 "},"Х":{"ha":1042,"x_min":0,"x_max":0,"o":"m 678 529 l 1035 0 l 692 0 l 506 314 l 322 0 l 7 0 l 364 517 l 31 1000 l 368 1000 l 539 725 l 707 1000 l 1011 1000 "},"Ц":{"ha":1064,"x_min":0,"x_max":0,"o":"m 369 200 l 674 200 l 674 1000 l 963 1000 l 963 199 l 1074 199 l 1074 -194 l 806 -194 l 806 0 l 79 0 l 79 1000 l 369 1000 "},"Ч":{"ha":1017,"x_min":0,"x_max":0,"o":"m 938 1000 l 938 0 l 647 0 l 647 379 b 407 282 583 318 500 282 b 65 647 182 282 65 393 l 65 1000 l 356 1000 l 356 629 b 489 483 356 535 399 483 b 647 649 585 483 647 556 l 647 1000 "},"Ш":{"ha":1378,"x_min":0,"x_max":0,"o":"m 79 0 l 79 1000 l 369 1000 l 369 200 l 549 200 l 549 1000 l 838 1000 l 838 200 l 1010 200 l 1010 1000 l 1299 1000 l 1299 0 "},"Щ":{"ha":1400,"x_min":0,"x_max":0,"o":"m 79 0 l 79 1000 l 369 1000 l 369 200 l 549 200 l 549 1000 l 838 1000 l 838 200 l 1010 200 l 1010 1000 l 1299 1000 l 1299 199 l 1410 199 l 1410 -194 l 1142 -194 l 1142 0 "},"Ъ":{"ha":1190,"x_min":0,"x_max":0,"o":"m 14 1000 l 599 1000 l 599 681 l 694 681 b 1150 340 1014 681 1150 569 b 703 0 1150 115 1010 0 l 310 0 l 310 794 l 14 794 m 599 486 l 599 194 l 704 194 b 857 340 800 194 857 247 b 697 486 857 439 800 486 "},"Ы":{"ha":1361,"x_min":0,"x_max":0,"o":"m 1281 1000 l 1281 0 l 990 0 l 990 1000 m 79 1000 l 368 1000 l 368 681 l 464 681 b 919 340 783 681 919 569 b 472 0 919 115 779 0 l 79 0 m 368 485 l 368 194 l 474 194 b 626 340 569 194 626 247 b 467 485 626 439 569 485 "},"Ь":{"ha":960,"x_min":0,"x_max":0,"o":"m 79 1000 l 368 1000 l 368 681 l 464 681 b 919 340 783 681 919 569 b 472 0 919 115 779 0 l 79 0 m 368 485 l 368 194 l 474 194 b 626 340 569 194 626 247 b 467 485 626 439 569 485 "},"Э":{"ha":1061,"x_min":0,"x_max":0,"o":"m 453 607 l 707 607 b 521 822 686 758 617 822 b 340 654 431 822 364 768 l 50 654 b 521 1021 89 883 268 1021 b 1014 503 832 1021 1014 838 b 531 -21 1014 169 821 -21 b 44 383 249 -21 78 115 l 338 383 b 528 178 349 243 421 178 b 708 414 618 178 690 246 l 453 414 "},"Ю":{"ha":1538,"x_min":0,"x_max":0,"o":"m 993 -21 b 501 407 765 -21 539 96 l 369 407 l 369 0 l 79 0 l 79 1000 l 369 1000 l 369 604 l 504 604 b 993 1021 547 901 768 1021 b 1490 500 1246 1021 1490 882 b 993 -21 1490 126 1243 -21 m 993 183 b 1199 500 1094 183 1199 260 b 993 818 1199 740 1092 818 b 790 499 892 818 790 740 b 993 183 790 258 897 183 "},"Я":{"ha":999,"x_min":0,"x_max":0,"o":"m 3 0 l 267 399 b 86 671 160 446 86 528 b 521 1000 86 872 231 1000 l 931 1000 l 931 0 l 639 0 l 639 347 l 535 347 l 322 0 m 385 668 b 518 544 385 592 438 544 l 639 544 l 639 803 l 531 803 b 385 668 436 803 385 756 "},"а":{"ha":811,"x_min":0,"x_max":0,"o":"m 47 497 b 410 743 92 669 222 743 b 753 469 621 743 753 640 l 753 0 l 546 0 b 514 76 535 25 524 50 b 285 -21 463 18 389 -21 b 32 206 129 -21 32 67 b 338 436 32 324 103 399 l 485 460 l 485 488 b 403 568 485 539 454 568 b 315 497 353 568 325 543 m 368 154 b 485 296 444 154 485 211 l 485 322 b 296 219 335 292 296 276 b 368 154 296 178 321 154 "},"б":{"ha":867,"x_min":0,"x_max":0,"o":"m 290 613 b 490 696 332 661 410 696 b 826 340 689 696 826 568 b 435 -21 826 111 681 -21 b 40 406 196 -21 40 125 b 336 915 40 725 164 878 b 514 1000 467 943 514 963 l 788 1000 b 483 789 783 900 719 844 b 290 613 357 760 308 710 m 311 340 b 433 157 311 211 358 157 b 553 340 510 157 553 207 b 432 517 553 469 507 517 b 311 340 356 517 311 468 "},"в":{"ha":822,"x_min":0,"x_max":0,"o":"m 64 0 l 64 722 l 444 722 b 765 542 679 722 765 658 b 589 379 765 463 711 396 b 789 208 724 364 789 296 b 460 0 789 81 688 0 m 332 293 l 332 167 l 418 167 b 521 232 492 167 521 193 b 440 293 521 269 490 293 m 332 556 l 332 447 l 425 447 b 497 503 474 447 497 471 b 418 556 497 535 474 556 "},"г":{"ha":614,"x_min":0,"x_max":0,"o":"m 604 722 l 604 540 l 332 540 l 332 0 l 64 0 l 64 722 "},"д":{"ha":883,"x_min":0,"x_max":0,"o":"m 53 182 b 103 304 76 200 96 226 l 142 722 l 801 722 l 801 182 l 899 182 l 899 -194 l 650 -194 l 650 0 l 228 0 l 228 -194 l -19 -194 l -19 182 m 364 331 b 268 182 358 258 321 211 l 539 182 l 539 540 l 379 540 l 364 331 "},"е":{"ha":863,"x_min":0,"x_max":0,"o":"m 815 229 b 435 -21 782 88 650 -21 b 40 367 196 -21 40 131 b 431 743 40 601 193 743 b 821 303 669 743 821 592 l 313 303 b 444 163 325 197 372 163 b 543 229 499 163 535 190 m 428 575 b 313 444 367 575 325 540 l 546 444 b 428 575 538 536 493 575 "},"ж":{"ha":1226,"x_min":0,"x_max":0,"o":"m 297 722 l 450 464 l 479 464 l 479 722 l 747 722 l 747 464 l 775 464 l 929 722 l 1208 722 l 989 389 l 1226 0 l 921 0 l 781 282 l 747 282 l 747 0 l 479 0 l 479 282 l 446 282 l 304 0 l 0 0 l 239 389 l 18 722 "},"з":{"ha":807,"x_min":0,"x_max":0,"o":"m 419 743 b 747 551 644 743 747 658 b 592 383 747 467 701 408 b 769 206 707 369 769 300 b 418 -21 769 81 667 -21 b 38 253 196 -21 75 93 l 301 253 b 413 158 321 188 357 158 b 496 231 465 158 496 189 b 381 297 496 271 465 297 l 350 297 l 350 449 l 392 449 b 481 510 451 449 481 472 b 407 565 481 542 453 565 b 303 490 353 565 318 538 l 40 490 b 419 743 69 636 211 743 "},"и":{"ha":849,"x_min":0,"x_max":0,"o":"m 64 0 l 64 722 l 332 722 l 332 360 l 517 675 l 517 722 l 785 722 l 785 0 l 517 0 l 517 361 l 332 43 l 332 0 "},"й":{"ha":849,"x_min":0,"x_max":0,"o":"m 421 797 b 179 983 292 799 194 844 l 372 983 b 421 939 376 950 399 939 b 469 983 443 939 465 950 l 663 983 b 421 797 642 844 539 797 m 64 0 l 64 722 l 332 722 l 332 360 l 517 675 l 517 722 l 785 722 l 785 0 l 517 0 l 517 361 l 332 43 l 332 0 "},"к":{"ha":865,"x_min":0,"x_max":0,"o":"m 64 0 l 64 722 l 332 722 l 332 464 l 367 464 l 565 722 l 850 722 l 571 383 l 871 0 l 549 0 l 358 282 l 332 282 l 332 0 "},"л":{"ha":886,"x_min":0,"x_max":0,"o":"m 822 722 l 822 0 l 554 0 l 554 542 l 386 542 l 364 269 b 14 0 349 88 261 0 l 14 181 b 113 286 76 181 106 203 l 150 722 "},"м":{"ha":1017,"x_min":0,"x_max":0,"o":"m 422 42 l 311 400 l 311 0 l 64 0 l 64 722 l 388 722 l 510 304 l 622 722 l 953 722 l 953 0 l 692 0 l 692 401 l 586 42 "},"н":{"ha":849,"x_min":0,"x_max":0,"o":"m 332 722 l 332 476 l 517 476 l 517 722 l 785 722 l 785 0 l 517 0 l 517 294 l 332 294 l 332 0 l 64 0 l 64 722 "},"о":{"ha":876,"x_min":0,"x_max":0,"o":"m 40 364 b 438 743 40 624 204 743 b 836 364 671 743 836 624 b 438 -21 836 104 672 -21 b 40 364 208 -21 40 103 m 315 364 b 439 157 315 214 360 157 b 563 364 522 157 563 211 b 438 565 563 517 519 565 b 315 364 354 565 315 514 "},"п":{"ha":849,"x_min":0,"x_max":0,"o":"m 785 722 l 785 0 l 517 0 l 517 540 l 332 540 l 332 0 l 64 0 l 64 722 "},"р":{"ha":893,"x_min":0,"x_max":0,"o":"m 529 -21 b 333 60 453 -21 385 10 l 333 -250 l 64 -250 l 64 722 l 272 722 l 317 636 b 540 743 368 701 443 743 b 853 371 726 743 853 615 b 529 -21 853 118 717 -21 m 583 367 b 457 553 583 499 532 553 b 326 369 381 553 326 493 b 453 169 326 221 382 169 b 583 367 526 169 583 229 "},"с":{"ha":843,"x_min":0,"x_max":0,"o":"m 806 271 b 425 -21 769 106 647 -21 b 40 354 176 -21 40 115 b 429 743 40 594 189 743 b 806 468 632 743 778 631 l 528 468 b 433 564 518 528 476 564 b 317 353 364 564 317 510 b 425 158 317 211 367 158 b 528 271 476 158 517 200 "},"т":{"ha":722,"x_min":0,"x_max":0,"o":"m 10 722 l 713 722 l 713 540 l 494 540 l 494 0 l 226 0 l 226 540 l 10 540 "},"у":{"ha":828,"x_min":0,"x_max":0,"o":"m 829 722 l 568 1 b 281 -271 494 -203 419 -271 b 138 -251 240 -271 192 -264 l 138 -71 b 236 -87 194 -85 221 -87 b 313 0 275 -87 293 -67 l 268 0 l -1 722 l 285 722 l 417 192 l 558 722 "},"ф":{"ha":1317,"x_min":0,"x_max":0,"o":"m 967 -21 b 792 46 901 -21 840 3 l 792 -250 l 524 -250 l 524 46 b 349 -21 474 3 414 -21 b 40 371 167 -21 40 118 b 342 743 40 615 161 743 b 524 672 417 743 476 717 l 524 1000 l 792 1000 l 792 672 b 974 743 838 717 899 743 b 1275 371 1154 743 1275 615 b 967 -21 1275 118 1149 -21 m 308 367 b 428 168 308 231 358 168 b 540 367 494 168 540 222 b 424 553 540 490 494 553 b 308 367 354 553 308 497 m 1007 367 b 892 553 1007 497 961 553 b 775 367 821 553 775 490 b 888 168 775 222 821 168 b 1007 367 957 168 1007 231 "},"х":{"ha":847,"x_min":0,"x_max":0,"o":"m 569 382 l 849 0 l 526 0 l 410 197 l 290 0 l -1 0 l 271 379 l 11 722 l 326 722 l 429 549 l 525 722 l 813 722 "},"ц":{"ha":867,"x_min":0,"x_max":0,"o":"m 785 181 l 882 181 l 882 -194 l 633 -194 l 633 0 l 64 0 l 64 722 l 332 722 l 332 181 l 517 181 l 517 722 l 785 722 "},"ч":{"ha":833,"x_min":0,"x_max":0,"o":"m 322 722 l 322 419 b 404 331 322 360 353 331 b 501 469 469 331 501 392 l 501 722 l 769 722 l 769 0 l 501 0 l 501 221 b 308 147 456 175 392 147 b 54 426 144 147 54 243 l 54 722 "},"ш":{"ha":1181,"x_min":0,"x_max":0,"o":"m 64 0 l 64 722 l 332 722 l 332 181 l 456 181 l 456 722 l 724 722 l 724 181 l 849 181 l 849 722 l 1117 722 l 1117 0 "},"щ":{"ha":1199,"x_min":0,"x_max":0,"o":"m 64 0 l 64 722 l 332 722 l 332 181 l 456 181 l 456 722 l 724 722 l 724 181 l 849 181 l 849 722 l 1117 722 l 1117 181 l 1214 181 l 1214 -194 l 967 -194 l 967 0 "},"ъ":{"ha":988,"x_min":0,"x_max":0,"o":"m 503 525 l 635 525 b 947 263 840 525 947 425 b 604 0 947 104 831 0 l 235 0 l 235 542 l 10 542 l 10 722 l 503 722 m 503 361 l 503 163 l 547 163 b 682 263 638 163 682 200 b 553 361 682 328 646 361 "},"ы":{"ha":1174,"x_min":0,"x_max":0,"o":"m 840 0 l 840 722 l 1108 722 l 1108 0 m 332 722 l 332 525 l 464 525 b 776 263 668 525 776 425 b 433 0 776 104 660 0 l 64 0 l 64 722 m 332 361 l 332 163 l 376 163 b 511 263 467 163 511 200 b 382 361 511 328 475 361 "},"ь":{"ha":817,"x_min":0,"x_max":0,"o":"m 332 722 l 332 525 l 464 525 b 776 263 668 525 776 425 b 433 0 776 104 660 0 l 64 0 l 64 722 m 332 361 l 332 163 l 376 163 b 511 263 467 163 511 200 b 382 361 511 328 475 361 "},"э":{"ha":842,"x_min":0,"x_max":0,"o":"m 315 258 b 419 158 326 199 368 158 b 526 307 474 158 517 200 l 372 307 l 372 438 l 522 438 b 418 564 511 532 474 564 b 315 481 367 564 325 529 l 38 481 b 421 743 64 625 211 743 b 801 357 661 743 801 596 b 417 -21 801 122 663 -21 b 38 258 197 -21 72 107 "},"ю":{"ha":1222,"x_min":0,"x_max":0,"o":"m 332 722 l 332 476 l 425 476 b 797 743 465 657 608 743 b 1181 364 1021 743 1181 624 b 797 -21 1181 103 1022 -21 b 417 294 597 -21 443 81 l 332 294 l 332 0 l 64 0 l 64 722 m 689 364 b 799 157 689 213 729 157 b 907 364 872 157 907 210 b 797 564 907 515 868 564 b 689 364 725 564 689 514 "},"я":{"ha":851,"x_min":0,"x_max":0,"o":"m 6 0 l 208 251 b 69 465 117 289 69 364 b 408 722 69 622 178 722 l 788 722 l 788 0 l 519 0 l 519 222 l 468 222 l 303 0 m 519 386 l 519 560 l 460 560 b 333 472 374 560 333 531 b 458 386 333 413 368 386 "},"ё":{"ha":863,"x_min":0,"x_max":0,"o":"m 815 229 b 435 -21 782 88 650 -21 b 40 367 196 -21 40 131 b 431 743 40 601 193 743 b 821 303 669 743 821 592 l 313 303 b 444 163 325 197 372 163 b 543 229 499 163 535 190 m 428 575 b 313 444 367 575 325 540 l 546 444 b 428 575 538 536 493 575 m 138 813 l 138 1013 l 378 1013 l 378 813 m 468 813 l 468 1013 l 708 1013 l 708 813 "},"ђ":{"ha":869,"x_min":0,"x_max":0,"o":"m 76 775 l 17 775 l 17 956 l 76 956 l 76 1000 l 344 1000 l 344 956 l 486 956 l 486 775 l 344 775 l 344 663 b 543 743 392 714 458 743 b 800 463 704 743 800 647 l 800 -22 b 546 -271 800 -175 715 -271 b 404 -253 497 -271 443 -264 l 404 -65 b 471 -75 432 -72 456 -75 b 531 -14 513 -75 531 -60 l 531 463 b 450 558 531 531 501 558 b 344 426 383 558 344 501 l 344 0 l 76 0 "},"ѓ":{"ha":614,"x_min":0,"x_max":0,"o":"m 326 1017 l 596 1017 l 372 803 l 176 803 m 604 722 l 604 540 l 332 540 l 332 0 l 64 0 l 64 722 "},"є":{"ha":842,"x_min":0,"x_max":0,"o":"m 804 258 b 425 -21 769 107 647 -21 b 40 354 176 -21 40 115 b 429 743 40 594 189 743 b 803 481 632 743 776 629 l 525 481 b 431 564 517 531 475 564 b 318 438 374 564 332 529 l 469 438 l 469 307 l 314 307 b 422 158 324 200 368 158 b 526 258 475 158 515 197 "},"ѕ":{"ha":813,"x_min":0,"x_max":0,"o":"m 406 156 b 501 207 472 156 501 174 b 368 274 501 240 475 256 b 56 510 151 311 56 374 b 401 743 56 649 171 743 b 763 508 597 743 735 650 l 501 508 b 397 568 490 544 456 568 b 322 524 340 568 322 550 b 454 458 322 492 347 478 b 768 232 650 422 768 369 b 407 -21 768 83 650 -21 b 31 219 199 -21 60 78 l 293 219 b 406 156 303 183 343 156 "},"і":{"ha":399,"x_min":0,"x_max":0,"o":"m 57 797 l 57 1000 l 342 1000 l 342 797 m 65 0 l 65 722 l 333 722 l 333 0 "},"ї":{"ha":399,"x_min":0,"x_max":0,"o":"m -85 813 l -85 1013 l 156 1013 l 156 813 m 246 813 l 246 1013 l 486 1013 l 486 813 m 65 0 l 65 722 l 333 722 l 333 0 "},"ј":{"ha":404,"x_min":0,"x_max":0,"o":"m -60 -65 b 8 -75 -32 -72 -8 -75 b 68 -12 50 -75 68 -60 l 68 722 l 336 722 l 336 -22 b 82 -271 336 -175 251 -271 b -60 -253 33 -271 -21 -264 m 61 797 l 61 1000 l 344 1000 l 344 797 "},"љ":{"ha":1306,"x_min":0,"x_max":0,"o":"m 821 722 l 821 525 l 953 525 b 1265 263 1157 525 1265 425 b 922 0 1265 104 1149 0 l 553 0 l 553 542 l 386 542 l 364 269 b 14 0 349 88 261 0 l 14 181 b 113 286 76 181 106 203 l 150 722 m 821 361 l 821 163 l 865 163 b 1000 263 956 163 1000 200 b 871 361 1000 328 964 361 "},"њ":{"ha":1264,"x_min":0,"x_max":0,"o":"m 778 722 l 778 525 l 910 525 b 1222 263 1115 525 1222 424 b 879 0 1222 104 1106 0 l 511 0 l 511 294 l 332 294 l 332 0 l 64 0 l 64 722 l 332 722 l 332 476 l 511 476 l 511 722 m 778 361 l 778 163 l 807 163 b 958 263 907 163 958 193 b 828 361 958 328 922 361 "},"ћ":{"ha":869,"x_min":0,"x_max":0,"o":"m 76 775 l 17 775 l 17 956 l 76 956 l 76 1000 l 344 1000 l 344 956 l 486 956 l 486 775 l 344 775 l 344 663 b 543 743 392 714 458 743 b 800 463 704 743 800 647 l 800 0 l 531 0 l 531 463 b 450 558 531 531 501 558 b 344 425 383 558 344 500 l 344 0 l 76 0 "},"ќ":{"ha":865,"x_min":0,"x_max":0,"o":"m 431 1017 l 700 1017 l 476 803 l 281 803 m 64 0 l 64 722 l 332 722 l 332 464 l 367 464 l 565 722 l 850 722 l 571 383 l 871 0 l 549 0 l 358 282 l 332 282 l 332 0 "},"ў":{"ha":828,"x_min":0,"x_max":0,"o":"m 829 722 l 568 1 b 281 -271 494 -203 419 -271 b 138 -251 240 -271 192 -264 l 138 -71 b 236 -87 194 -85 221 -87 b 313 0 275 -87 293 -67 l 268 0 l -1 722 l 285 722 l 417 192 l 558 722 m 414 797 b 172 983 285 799 188 844 l 365 983 b 414 939 369 950 392 939 b 463 983 436 939 458 950 l 656 983 b 414 797 635 844 532 797 "},"џ":{"ha":849,"x_min":0,"x_max":0,"o":"m 549 0 l 549 -194 l 300 -194 l 300 0 l 64 0 l 64 722 l 332 722 l 332 182 l 517 182 l 517 722 l 785 722 l 785 0 "},"Ѣ":{"ha":1149,"x_min":0,"x_max":0,"o":"m 267 790 l 7 790 l 7 1000 l 821 1000 l 821 790 l 557 790 l 557 681 l 653 681 b 1108 340 972 681 1108 569 b 661 0 1108 115 968 0 l 267 0 m 557 486 l 557 194 l 663 194 b 815 340 758 194 815 247 b 656 486 815 439 757 486 "},"ѣ":{"ha":853,"x_min":0,"x_max":0,"o":"m 368 626 l 368 525 l 500 525 b 813 263 706 525 813 425 b 469 0 813 104 696 0 l 100 0 l 100 626 l -6 626 l -6 808 l 100 808 l 100 906 l 368 906 l 368 808 l 511 808 l 511 626 m 368 361 l 368 163 l 413 163 b 547 263 504 163 547 200 b 418 361 547 328 511 361 "},"Ѳ":{"ha":1115,"x_min":0,"x_max":0,"o":"m 557 -21 b 47 499 303 -21 47 113 b 557 1021 47 878 301 1021 b 1068 500 814 1021 1068 886 b 557 -21 1068 121 813 -21 m 557 183 b 769 407 651 183 744 239 l 346 407 b 557 183 371 238 467 183 m 557 818 b 349 604 464 818 375 763 l 767 604 b 557 818 739 764 647 818 "},"ѳ":{"ha":876,"x_min":0,"x_max":0,"o":"m 40 364 b 438 743 40 624 204 743 b 836 364 671 743 836 624 b 438 -21 836 104 672 -21 b 40 364 208 -21 40 103 m 439 157 b 561 293 510 157 550 193 l 315 293 b 439 157 329 194 371 157 m 438 565 b 315 440 368 565 329 532 l 560 440 b 438 565 547 533 506 565 "},"Ѵ":{"ha":978,"x_min":0,"x_max":0,"o":"m 978 1000 l 651 0 l 329 0 l 0 1000 l 300 1000 l 496 247 l 694 1000 "},"ѵ":{"ha":821,"x_min":0,"x_max":0,"o":"m 822 722 l 564 0 l 256 0 l -1 722 l 289 722 l 417 218 l 542 722 "},"Ґ":{"ha":757,"x_min":0,"x_max":0,"o":"m 750 1188 l 750 794 l 369 794 l 369 0 l 79 0 l 79 1000 l 482 1000 l 482 1188 "},"ґ":{"ha":615,"x_min":0,"x_max":0,"o":"m 357 722 l 357 904 l 606 904 l 606 540 l 332 540 l 332 0 l 64 0 l 64 722 "},"Ғ":{"ha":803,"x_min":0,"x_max":0,"o":"m 796 794 l 415 794 l 415 600 l 626 600 l 626 408 l 415 408 l 415 0 l 125 0 l 125 408 l 0 408 l 0 600 l 125 600 l 125 1000 l 796 1000 "},"ғ":{"ha":622,"x_min":0,"x_max":0,"o":"m 611 722 l 611 540 l 339 540 l 339 444 l 486 444 l 486 263 l 339 263 l 339 0 l 71 0 l 71 263 l 3 263 l 3 444 l 71 444 l 71 722 "},"Җ":{"ha":1529,"x_min":0,"x_max":0,"o":"m 358 1000 l 565 603 l 611 603 l 611 1000 l 900 1000 l 900 603 l 946 603 l 1153 1000 l 1464 1000 l 1185 524 l 1386 199 l 1535 199 l 1535 -194 l 1267 -194 l 1267 0 l 1171 0 l 953 407 l 900 407 l 900 0 l 611 0 l 611 407 l 558 407 l 338 0 l 0 0 l 326 524 l 47 1000 "},"җ":{"ha":1242,"x_min":0,"x_max":0,"o":"m 297 722 l 450 464 l 479 464 l 479 722 l 747 722 l 747 464 l 775 464 l 929 722 l 1208 722 l 989 389 l 1114 182 l 1254 182 l 1254 -194 l 1007 -194 l 1007 0 l 921 0 l 781 282 l 747 282 l 747 0 l 479 0 l 479 282 l 446 282 l 304 0 l 0 0 l 239 389 l 18 722 "},"Ҙ":{"ha":939,"x_min":0,"x_max":0,"o":"m 706 -197 b 474 -372 706 -299 625 -372 b 233 -192 332 -372 247 -300 l 410 -192 b 471 -243 414 -217 429 -243 b 529 -196 510 -243 529 -221 b 397 -139 529 -160 492 -139 l 406 -17 b 35 285 188 4 49 133 l 324 285 b 467 178 332 219 379 178 b 600 306 544 178 600 224 b 458 431 600 392 540 431 l 364 431 l 364 607 l 453 607 b 581 722 525 607 581 640 b 465 824 581 783 538 824 b 331 733 392 824 344 792 l 50 733 b 478 1021 75 899 232 1021 b 875 760 728 1021 875 917 b 699 531 875 647 811 565 b 896 290 815 504 896 414 b 564 -14 896 128 768 11 l 565 -49 b 706 -197 661 -69 706 -124 "},"ҙ":{"ha":807,"x_min":0,"x_max":0,"o":"m 653 -197 b 421 -372 653 -299 572 -372 b 181 -192 279 -372 194 -300 l 357 -192 b 418 -243 361 -217 376 -243 b 476 -196 457 -243 476 -221 b 344 -139 476 -160 439 -139 l 353 -17 b 38 253 172 3 71 108 l 301 253 b 413 158 321 188 357 158 b 496 231 465 158 496 189 b 381 297 496 271 465 297 l 350 297 l 350 449 l 392 449 b 481 510 451 449 481 472 b 407 565 481 542 453 565 b 303 490 353 565 318 538 l 40 490 b 419 743 69 636 211 743 b 747 551 644 743 747 656 b 592 383 747 467 701 408 b 769 206 707 369 769 300 b 511 -14 769 97 690 7 l 513 -49 b 653 -197 608 -69 653 -124 "},"Қ":{"ha":1064,"x_min":0,"x_max":0,"o":"m 1010 1000 l 675 531 l 915 199 l 1069 199 l 1069 -194 l 801 -194 l 801 0 l 707 0 l 433 407 l 369 407 l 369 0 l 79 0 l 79 1000 l 369 1000 l 369 603 l 428 603 l 693 1000 "},"қ":{"ha":872,"x_min":0,"x_max":0,"o":"m 64 0 l 64 722 l 332 722 l 332 463 l 365 463 l 565 722 l 850 722 l 571 383 l 728 181 l 886 181 l 886 -194 l 639 -194 l 639 0 l 547 0 l 357 282 l 332 282 l 332 0 "},"Ҝ":{"ha":1128,"x_min":0,"x_max":0,"o":"m 776 0 l 508 399 l 506 399 l 506 129 l 404 129 l 404 407 l 368 407 l 368 0 l 79 0 l 79 1000 l 368 1000 l 368 603 l 404 603 l 404 821 l 506 821 l 506 615 l 763 1000 l 1079 1000 l 746 531 l 1128 0 "},"ҝ":{"ha":926,"x_min":0,"x_max":0,"o":"m 64 0 l 64 722 l 332 722 l 332 463 l 361 463 l 361 557 l 446 557 l 446 469 l 628 722 l 911 722 l 653 383 l 932 0 l 611 0 l 446 263 l 446 74 l 361 74 l 361 282 l 332 282 l 332 0 "},"Ҡ":{"ha":1288,"x_min":0,"x_max":0,"o":"m 942 0 l 665 407 l 599 407 l 599 0 l 310 0 l 310 794 l 14 794 l 14 1000 l 599 1000 l 599 603 l 661 603 l 929 1000 l 1239 1000 l 899 529 l 1288 0 "},"ҡ":{"ha":1036,"x_min":0,"x_max":0,"o":"m 503 464 l 538 464 l 736 722 l 1021 722 l 742 383 l 1042 0 l 719 0 l 529 282 l 503 282 l 503 0 l 235 0 l 235 542 l 10 542 l 10 722 l 503 722 "},"Ң":{"ha":1064,"x_min":0,"x_max":0,"o":"m 963 1000 l 963 199 l 1074 199 l 1074 -194 l 806 -194 l 806 0 l 674 0 l 674 407 l 369 407 l 369 0 l 79 0 l 79 1000 l 369 1000 l 369 604 l 674 604 l 674 1000 "},"ң":{"ha":867,"x_min":0,"x_max":0,"o":"m 332 722 l 332 476 l 517 476 l 517 722 l 785 722 l 785 181 l 882 181 l 882 -194 l 633 -194 l 633 0 l 517 0 l 517 294 l 332 294 l 332 0 l 64 0 l 64 722 "},"Ҫ":{"ha":1061,"x_min":0,"x_max":0,"o":"m 646 -365 b 426 -192 508 -365 426 -301 b 526 -21 426 -128 463 -65 b 47 503 242 -15 47 164 b 546 1021 47 838 238 1021 b 1010 654 790 1021 971 892 l 721 654 b 546 822 696 775 629 822 b 347 503 431 822 347 732 b 539 178 347 269 433 178 b 724 383 644 178 713 242 l 1017 383 b 775 24 994 201 918 89 b 600 -167 682 -19 600 -90 b 660 -236 600 -215 631 -236 b 708 -200 683 -236 701 -224 l 892 -200 b 646 -365 867 -287 797 -365 "},"ҫ":{"ha":843,"x_min":0,"x_max":0,"o":"m 621 21 b 449 -167 540 -18 449 -83 b 508 -236 449 -215 479 -236 b 557 -200 532 -236 550 -224 l 740 -200 b 494 -365 715 -287 646 -365 b 275 -192 358 -365 275 -301 b 378 -19 275 -128 313 -64 b 40 354 158 -3 40 131 b 429 743 40 594 189 743 b 806 468 632 743 778 631 l 528 468 b 433 564 518 528 476 564 b 317 353 364 564 317 510 b 425 158 317 211 367 158 b 528 271 476 158 517 200 l 806 271 b 621 21 783 168 725 72 "},"Ү":{"ha":1006,"x_min":0,"x_max":0,"o":"m 364 0 l 364 400 l 0 1000 l 313 1000 l 508 619 l 721 1000 l 1006 1000 l 642 400 l 642 0 "},"ү":{"ha":821,"x_min":0,"x_max":0,"o":"m 275 -250 l 275 0 l -1 722 l 289 722 l 417 232 l 542 722 l 822 722 l 544 0 l 544 -250 "},"Ұ":{"ha":1006,"x_min":0,"x_max":0,"o":"m 364 0 l 364 339 l 197 339 l 197 532 l 283 532 l 0 1000 l 313 1000 l 508 619 l 721 1000 l 1006 1000 l 721 532 l 817 532 l 817 339 l 642 339 l 642 0 "},"ұ":{"ha":821,"x_min":0,"x_max":0,"o":"m 822 722 l 614 182 l 679 182 l 679 0 l 544 0 l 544 -250 l 275 -250 l 275 0 l 150 0 l 150 182 l 206 182 l -1 722 l 289 722 l 417 232 l 542 722 "},"Ҳ":{"ha":1058,"x_min":0,"x_max":0,"o":"m 679 529 l 901 199 l 1064 199 l 1064 -194 l 796 -194 l 796 0 l 692 0 l 506 314 l 322 0 l 7 0 l 364 518 l 31 1000 l 368 1000 l 539 725 l 707 1000 l 1011 1000 "},"ҳ":{"ha":865,"x_min":0,"x_max":0,"o":"m 569 382 l 715 182 l 882 182 l 882 -194 l 635 -194 l 635 0 l 526 0 l 410 197 l 290 0 l -1 0 l 271 379 l 11 722 l 326 722 l 429 549 l 525 722 l 813 722 "},"Ҹ":{"ha":1017,"x_min":0,"x_max":0,"o":"m 938 1000 l 938 0 l 647 0 l 647 378 b 542 310 615 349 581 325 l 542 129 l 440 129 l 440 285 b 417 283 432 285 424 283 b 65 647 185 283 65 390 l 65 1000 l 356 1000 l 356 629 b 440 489 356 553 383 504 l 440 821 l 542 821 l 542 490 b 647 700 622 517 647 594 l 647 1000 "},"ҹ":{"ha":833,"x_min":0,"x_max":0,"o":"m 451 557 l 451 344 b 501 472 486 367 501 414 l 501 722 l 769 722 l 769 0 l 501 0 l 501 221 b 451 183 486 206 469 193 l 451 74 l 367 74 l 367 153 b 308 147 353 149 326 147 b 54 426 144 147 54 243 l 54 722 l 322 722 l 322 419 b 367 338 322 376 339 349 l 367 557 "},"Һ":{"ha":999,"x_min":0,"x_max":0,"o":"m 79 0 l 79 1000 l 369 1000 l 369 611 b 622 710 438 672 525 710 b 951 344 840 710 951 600 l 951 0 l 661 0 l 661 363 b 528 508 661 457 618 508 b 369 340 432 508 369 438 l 369 0 "},"һ":{"ha":844,"x_min":0,"x_max":0,"o":"m 64 1000 l 332 1000 l 332 596 b 531 676 379 647 446 676 b 788 396 692 676 788 581 l 788 0 l 518 0 l 518 396 b 438 492 518 464 489 492 b 332 356 371 492 332 431 l 332 0 l 64 0 "},"Ӏ":{"ha":449,"x_min":0,"x_max":0,"o":"m 369 1000 l 369 0 l 79 0 l 79 1000 "},"Ӌ":{"ha":1039,"x_min":0,"x_max":0,"o":"m 938 1000 l 938 199 l 1049 199 l 1049 -194 l 781 -194 l 781 0 l 647 0 l 647 379 b 407 282 583 318 500 282 b 65 647 182 282 65 393 l 65 1000 l 356 1000 l 356 629 b 489 483 356 535 399 483 b 647 650 586 483 647 556 l 647 1000 "},"ӌ":{"ha":851,"x_min":0,"x_max":0,"o":"m 322 722 l 322 419 b 403 331 322 358 358 331 b 501 464 467 331 501 388 l 501 722 l 769 722 l 769 181 l 867 181 l 867 -194 l 618 -194 l 618 0 l 501 0 l 501 221 b 308 146 454 175 390 146 b 54 425 144 146 54 243 l 54 722 "},"ӏ":{"ha":397,"x_min":0,"x_max":0,"o":"m 333 0 l 64 0 l 64 1000 l 333 1000 "},"Ә":{"ha":1067,"x_min":0,"x_max":0,"o":"m 538 -21 b 47 567 213 -21 65 164 l 721 567 b 532 822 710 750 636 822 b 353 703 433 822 376 776 l 64 703 b 536 1021 107 899 276 1021 b 1019 506 839 1021 1019 833 b 538 -21 1019 164 814 -21 m 532 178 b 711 374 617 178 696 233 l 357 374 b 532 178 369 239 429 178 "},"ә":{"ha":861,"x_min":0,"x_max":0,"o":"m 46 493 b 435 743 79 638 213 743 b 821 356 674 743 821 593 b 426 -21 821 119 671 -21 b 40 421 183 -21 40 126 l 547 421 b 426 563 536 524 493 563 b 318 493 365 563 331 535 m 429 147 b 547 278 490 147 535 179 l 315 278 b 429 147 322 185 364 147 "},"Ӣ":{"ha":1042,"x_min":0,"x_max":0,"o":"m 319 1093 l 319 1271 l 721 1271 l 721 1093 m 963 1000 l 963 0 l 674 0 l 674 557 l 369 68 l 369 0 l 79 0 l 79 1000 l 369 1000 l 369 442 l 674 932 l 674 1000 "},"ӣ":{"ha":849,"x_min":0,"x_max":0,"o":"m 224 821 l 224 999 l 625 999 l 625 821 m 64 0 l 64 722 l 332 722 l 332 360 l 517 675 l 517 722 l 785 722 l 785 0 l 517 0 l 517 361 l 332 43 l 332 0 "},"Ө":{"ha":1115,"x_min":0,"x_max":0,"o":"m 557 -21 b 47 499 303 -21 47 113 b 557 1021 47 878 301 1021 b 1068 500 814 1021 1068 886 b 557 -21 1068 121 813 -21 m 557 183 b 769 407 651 183 744 239 l 346 407 b 557 183 371 238 467 183 m 557 818 b 349 604 464 818 375 763 l 767 604 b 557 818 739 764 647 818 "},"ө":{"ha":876,"x_min":0,"x_max":0,"o":"m 40 364 b 438 743 40 624 204 743 b 836 364 671 743 836 624 b 438 -21 836 104 672 -21 b 40 364 208 -21 40 103 m 439 157 b 561 293 510 157 550 193 l 315 293 b 439 157 329 194 371 157 m 438 565 b 315 440 368 565 329 532 l 560 440 b 438 565 547 533 506 565 "},"Ӯ":{"ha":907,"x_min":0,"x_max":0,"o":"m 265 1093 l 265 1271 l 667 1271 l 667 1093 m 621 256 b 313 -21 544 56 468 -21 b 167 -1 272 -21 222 -14 l 167 185 b 267 168 211 171 246 168 b 356 249 311 168 335 183 l 286 249 b 0 1000 190 499 94 749 l 292 1000 l 457 442 l 626 1000 l 906 1000 "},"ӯ":{"ha":828,"x_min":0,"x_max":0,"o":"m 829 722 l 568 1 b 281 -271 494 -203 419 -271 b 138 -251 240 -271 192 -264 l 138 -71 b 236 -87 194 -85 221 -87 b 313 0 275 -87 293 -67 l 268 0 l -1 722 l 285 722 l 417 192 l 558 722 m 217 821 l 217 999 l 618 999 l 618 821 "},"‒":{"ha":800,"x_min":0,"x_max":0,"o":"m 714 347 l 86 347 l 86 542 l 714 542 "},"–":{"ha":625,"x_min":0,"x_max":0,"o":"m 600 347 l 25 347 l 25 542 l 600 542 "},"—":{"ha":890,"x_min":0,"x_max":0,"o":"m 865 347 l 25 347 l 25 542 l 865 542 "},"―":{"ha":625,"x_min":0,"x_max":0,"o":"m 600 347 l 25 347 l 25 542 l 600 542 "},"‘":{"ha":375,"x_min":0,"x_max":0,"o":"m 35 697 b 353 1000 35 889 151 986 l 353 876 b 231 756 278 867 231 826 l 328 756 l 328 504 l 35 504 "},"’":{"ha":375,"x_min":0,"x_max":0,"o":"m 340 807 b 22 504 340 615 224 518 l 22 626 b 144 749 97 636 144 676 l 47 749 l 47 1000 l 340 1000 "},"‚":{"ha":375,"x_min":0,"x_max":0,"o":"m 340 58 b 22 -244 340 -133 224 -231 l 22 -122 b 144 0 97 -112 144 -72 l 47 0 l 47 251 l 340 251 "},"“":{"ha":740,"x_min":0,"x_max":0,"o":"m 44 697 b 363 1000 44 889 161 986 l 363 876 b 240 756 286 867 240 826 l 336 756 l 336 504 l 44 504 m 400 697 b 718 1000 400 889 517 986 l 718 876 b 596 756 642 867 596 826 l 692 756 l 692 504 l 400 504 "},"”":{"ha":740,"x_min":0,"x_max":0,"o":"m 340 807 b 22 504 340 615 224 518 l 22 626 b 144 749 97 636 144 676 l 47 749 l 47 1000 l 340 1000 m 696 807 b 378 504 696 615 579 518 l 378 626 b 500 749 453 636 500 676 l 403 749 l 403 1000 l 696 1000 "},"„":{"ha":731,"x_min":0,"x_max":0,"o":"m 696 58 b 378 -244 696 -133 579 -231 l 378 -122 b 500 0 453 -112 500 -72 l 403 0 l 403 251 l 696 251 m 340 58 b 22 -244 340 -133 224 -231 l 22 -122 b 144 0 97 -112 144 -72 l 47 0 l 47 251 l 340 251 "},"†":{"ha":833,"x_min":0,"x_max":0,"o":"m 543 1000 l 543 772 l 772 772 l 772 529 l 543 529 l 543 0 l 289 0 l 289 529 l 61 529 l 61 772 l 289 772 l 289 1000 "},"‡":{"ha":833,"x_min":0,"x_max":0,"o":"m 543 1000 l 543 822 l 772 822 l 772 579 l 543 579 l 543 439 l 772 439 l 772 196 l 543 196 l 543 0 l 289 0 l 289 196 l 60 196 l 60 439 l 289 439 l 289 579 l 60 579 l 60 822 l 289 822 l 289 1000 "},"•":{"ha":465,"x_min":0,"x_max":0,"o":"m 50 274 l 50 604 l 406 604 l 406 274 "},"…":{"ha":1263,"x_min":0,"x_max":0,"o":"m 906 0 l 906 251 l 1199 251 l 1199 0 m 64 0 l 64 251 l 357 251 l 357 0 m 485 0 l 485 251 l 778 251 l 778 0 "},"‰":{"ha":1731,"x_min":0,"x_max":0,"o":"m 1703 219 b 1456 -21 1703 72 1610 -21 b 1208 219 1300 -21 1208 72 b 1456 458 1208 365 1300 458 b 1703 219 1610 458 1703 365 m 1518 219 b 1456 324 1518 299 1492 324 b 1392 219 1419 324 1392 299 b 1456 114 1392 139 1419 114 b 1518 219 1492 114 1518 139 m 454 0 l 247 0 l 724 972 l 931 972 m 522 753 b 275 513 522 607 431 513 b 28 753 121 513 28 607 b 275 993 28 899 121 993 b 522 753 431 993 522 899 m 339 753 b 275 858 339 832 311 858 b 213 753 239 858 213 832 b 275 647 213 674 239 647 b 339 753 311 647 339 674 m 1153 219 b 906 -21 1153 72 1060 -21 b 658 219 750 -21 658 72 b 906 458 658 365 750 458 b 1153 219 1060 458 1153 365 m 968 219 b 906 324 968 299 942 324 b 842 219 869 324 842 299 b 906 114 842 139 869 114 b 968 219 942 114 968 139 "},"‹":{"ha":475,"x_min":0,"x_max":0,"o":"m 42 435 l 222 722 l 431 722 l 299 428 l 414 119 l 208 119 "},"›":{"ha":475,"x_min":0,"x_max":0,"o":"m 267 119 l 61 119 l 176 428 l 44 722 l 253 722 l 433 435 "},"⁄":{"ha":375,"x_min":0,"x_max":0,"o":"m -19 -125 l -224 -125 l 382 1097 l 588 1097 "},"⁴":{"ha":472,"x_min":0,"x_max":0,"o":"m 397 908 l 397 797 l 444 797 l 444 653 l 397 653 l 397 558 l 235 558 l 235 653 l 7 653 l 7 789 l 125 1094 l 296 1094 l 189 797 l 235 797 l 235 828 l 256 908 "},"€":{"ha":833,"x_min":0,"x_max":0,"o":"m 481 178 b 589 261 528 178 575 199 l 847 261 b 478 -21 819 86 681 -21 b 81 321 301 -21 132 74 l -10 321 l 21 463 l 65 463 b 64 489 64 472 64 483 b 65 521 64 494 64 511 l -10 521 l 21 663 l 79 663 b 471 993 124 881 258 993 b 842 710 675 993 815 883 l 585 710 b 476 794 569 772 524 794 b 344 663 413 794 367 758 l 583 663 l 553 521 l 329 521 b 328 489 328 511 328 494 b 329 463 328 483 328 472 l 542 463 l 511 321 l 344 321 b 481 178 369 211 421 178 "},"№":{"ha":1768,"x_min":0,"x_max":0,"o":"m 960 1000 l 960 0 l 672 0 l 326 617 l 326 0 l 79 0 l 79 1000 l 385 1000 l 713 413 l 713 1000 m 1099 715 b 1397 1019 1099 961 1256 1019 b 1696 715 1539 1019 1696 964 b 1397 404 1696 464 1539 404 b 1099 715 1256 404 1099 467 m 1328 715 b 1399 560 1328 599 1351 560 b 1468 715 1444 560 1468 599 b 1397 864 1468 831 1443 864 b 1328 715 1351 864 1328 831 m 1682 0 l 1115 0 l 1115 194 l 1682 194 "},"™":{"ha":1186,"x_min":0,"x_max":0,"o":"m 710 443 l 635 689 l 635 443 l 457 443 l 457 847 l 360 847 l 360 443 l 174 443 l 174 847 l 15 847 l 15 1000 l 700 1000 l 785 724 l 863 1000 l 1110 1000 l 1110 443 l 929 443 l 929 689 l 853 443 "},"Ω":{"ha":1117,"x_min":0,"x_max":0,"o":"m 614 185 b 776 499 704 186 776 274 b 558 818 776 740 667 818 b 340 497 447 818 340 739 b 501 185 340 271 417 185 l 501 0 l 64 0 l 64 194 l 183 194 b 49 529 104 271 49 389 b 558 1021 49 865 301 1021 b 1068 531 815 1021 1068 874 b 929 194 1068 392 1008 272 l 1053 194 l 1053 0 l 614 0 l 614 185 "},"℮":{"ha":1313,"x_min":0,"x_max":0,"o":"m 303 471 l 303 168 b 657 33 361 81 526 33 b 1018 169 788 33 940 79 l 1099 169 b 656 -21 997 51 849 -21 b 97 482 338 -21 97 190 b 656 993 97 774 349 993 b 1215 471 953 993 1215 781 m 1010 797 b 657 939 932 882 819 939 b 303 799 494 939 374 885 l 303 526 l 1010 526 "},"⅓":{"ha":1222,"x_min":0,"x_max":0,"o":"m 428 -125 l 224 -125 l 829 1097 l 1035 1097 m 83 419 l 83 565 l 188 565 l 188 781 l 83 722 l 83 888 l 196 956 l 369 956 l 369 565 l 460 565 l 460 419 m 715 368 b 933 519 738 453 814 519 b 1118 368 1033 519 1118 472 b 1050 258 1118 326 1093 282 b 1139 133 1096 242 1139 206 b 925 -37 1139 31 1047 -37 b 713 126 808 -37 728 36 l 882 126 b 918 97 883 108 900 97 b 957 140 944 97 957 114 b 899 189 957 175 938 189 l 863 189 l 863 315 l 907 315 b 943 357 928 315 943 332 b 913 394 943 381 935 394 b 878 368 896 394 883 385 "},"⅔":{"ha":1222,"x_min":0,"x_max":0,"o":"m 450 -125 l 246 -125 l 851 1097 l 1057 1097 m 61 796 b 281 971 78 899 160 971 b 481 799 397 971 481 906 b 324 565 481 703 389 636 l 478 565 l 478 422 l 85 422 l 85 554 l 226 694 b 296 801 263 729 296 761 b 265 836 296 824 285 836 b 226 796 246 836 232 822 m 736 368 b 954 519 758 453 835 519 b 1139 368 1054 519 1139 472 b 1071 258 1139 326 1114 282 b 1160 133 1117 242 1160 206 b 946 -37 1160 31 1068 -37 b 733 126 829 -37 749 36 l 903 126 b 939 97 904 108 921 97 b 978 140 965 97 978 114 b 919 189 978 175 958 189 l 883 189 l 883 315 l 928 315 b 964 357 949 315 964 332 b 933 394 964 381 956 394 b 899 368 917 394 904 385 "},"←":{"ha":833,"x_min":0,"x_max":0,"o":"m 353 608 l 806 608 l 806 411 l 353 411 l 553 158 l 300 158 l 28 510 l 300 861 l 553 861 "},"↑":{"ha":833,"x_min":0,"x_max":0,"o":"m 519 576 l 519 121 l 314 121 l 314 576 l 65 381 l 65 626 l 417 899 l 768 626 l 768 381 "},"→":{"ha":833,"x_min":0,"x_max":0,"o":"m 481 411 l 28 411 l 28 608 l 481 608 l 281 861 l 533 861 l 806 510 l 533 158 l 281 158 "},"↓":{"ha":833,"x_min":0,"x_max":0,"o":"m 314 443 l 314 899 l 519 899 l 519 443 l 768 639 l 768 393 l 417 121 l 65 393 l 65 639 "},"↔":{"ha":1250,"x_min":0,"x_max":0,"o":"m 353 608 l 897 608 l 697 861 l 950 861 l 1222 510 l 950 158 l 697 158 l 897 411 l 353 411 l 553 158 l 300 158 l 28 510 l 300 861 l 553 861 "},"↕":{"ha":833,"x_min":0,"x_max":0,"o":"m 519 785 l 519 233 l 768 429 l 768 185 l 417 -87 l 65 185 l 65 429 l 313 233 l 313 785 l 65 589 l 65 835 l 417 1107 l 768 835 l 768 589 "},"↖":{"ha":833,"x_min":0,"x_max":0,"o":"m 439 651 l 765 326 l 618 181 l 307 492 l 271 182 l 86 361 l 142 803 l 583 858 l 758 689 "},"↗":{"ha":833,"x_min":0,"x_max":0,"o":"m 546 492 l 235 181 l 89 326 l 414 651 l 96 689 l 269 858 l 711 803 l 767 361 l 582 182 "},"↘":{"ha":833,"x_min":0,"x_max":0,"o":"m 414 379 l 89 706 l 235 851 l 546 540 l 582 850 l 767 671 l 711 229 l 269 174 l 96 343 "},"↙":{"ha":833,"x_min":0,"x_max":0,"o":"m 307 540 l 618 851 l 765 706 l 439 381 l 758 343 l 583 174 l 142 229 l 86 671 l 271 850 "},"∂":{"ha":818,"x_min":0,"x_max":0,"o":"m 143 1046 b 778 449 518 1015 778 786 b 417 -21 778 151 661 -21 b 40 325 203 -21 40 85 b 351 674 40 535 164 674 b 471 636 393 674 447 658 b 142 868 421 788 279 838 m 407 492 b 321 325 346 492 321 439 b 414 161 321 221 347 161 b 499 354 468 161 499 218 b 407 492 499 439 471 492 "},"∆":{"ha":1028,"x_min":0,"x_max":0,"o":"m -4 0 l 363 1000 l 663 1000 l 1032 0 m 343 192 l 669 192 l 508 749 "},"∏":{"ha":917,"x_min":0,"x_max":0,"o":"m 900 772 l 839 772 l 839 0 l 556 0 l 556 772 l 361 772 l 361 0 l 78 0 l 78 772 l 17 772 l 17 972 l 900 972 "},"∑":{"ha":876,"x_min":0,"x_max":0,"o":"m 358 799 l 615 379 l 358 -40 l 844 -40 l 844 -239 l 35 -239 l 35 -54 l 301 379 l 35 814 l 35 1000 l 844 1000 l 844 799 "},"−":{"ha":833,"x_min":0,"x_max":0,"o":"m 731 347 l 103 347 l 103 542 l 731 542 "},"∕":{"ha":375,"x_min":0,"x_max":0,"o":"m -19 -125 l -224 -125 l 382 1097 l 588 1097 "},"∙":{"ha":394,"x_min":0,"x_max":0,"o":"m 56 306 l 56 549 l 338 549 l 338 306 "},"√":{"ha":890,"x_min":0,"x_max":0,"o":"m 233 0 l -10 689 l 264 689 l 389 244 l 618 1114 l 1032 1114 l 1032 915 l 829 915 l 554 0 "},"∞":{"ha":1018,"x_min":0,"x_max":0,"o":"m 304 739 b 507 640 385 739 454 703 b 718 739 561 707 638 739 b 996 481 910 739 996 624 b 714 222 996 339 910 222 b 513 319 635 222 564 258 b 300 222 457 256 379 222 b 22 481 108 222 22 339 b 304 739 22 624 108 739 m 704 396 b 767 481 740 396 767 424 b 707 567 767 538 739 567 b 607 479 671 567 631 546 b 704 396 614 435 657 396 m 315 567 b 251 481 278 567 251 538 b 311 396 251 424 279 396 b 410 482 346 396 386 417 b 315 567 403 526 361 567 "},"∫":{"ha":833,"x_min":0,"x_max":0,"o":"m 103 -28 b 214 -40 160 -39 188 -40 b 282 28 260 -40 282 -22 l 282 1039 b 550 1293 282 1213 383 1293 b 731 1275 628 1293 676 1286 l 731 1086 b 619 1099 674 1097 646 1099 b 551 1031 574 1099 551 1081 l 551 19 b 283 -235 551 -154 450 -235 b 103 -217 206 -235 157 -228 "},"≈":{"ha":833,"x_min":0,"x_max":0,"o":"m 536 456 b 283 529 429 456 365 529 b 103 461 225 529 175 507 l 103 660 b 297 715 143 685 217 715 b 550 643 404 715 468 643 b 731 711 608 643 658 665 l 731 511 b 536 456 690 488 617 456 m 536 172 b 283 244 429 172 365 244 b 103 178 225 244 175 222 l 103 376 b 297 432 143 400 217 432 b 550 358 404 432 468 358 b 731 426 608 358 658 381 l 731 228 b 536 172 690 203 617 172 "},"≠":{"ha":833,"x_min":0,"x_max":0,"o":"m 731 210 l 386 210 l 294 53 l 85 53 l 176 210 l 103 210 l 103 404 l 290 404 l 336 482 l 103 482 l 103 676 l 450 676 l 539 828 l 749 828 l 658 676 l 731 676 l 731 482 l 546 482 l 500 404 l 731 404 "},"≤":{"ha":833,"x_min":0,"x_max":0,"o":"m 103 613 l 731 869 l 731 643 l 396 529 l 731 450 l 731 224 l 103 439 m 731 0 l 103 0 l 103 193 l 731 193 "},"≥":{"ha":833,"x_min":0,"x_max":0,"o":"m 731 439 l 103 224 l 103 450 l 436 529 l 103 643 l 103 869 l 731 613 m 103 193 l 731 193 l 731 0 l 103 0 "},"⋆":{"ha":833,"x_min":0,"x_max":0,"o":"m 417 1022 l 438 957 l 465 1019 l 481 953 l 514 1013 l 522 944 l 561 1001 l 564 933 l 608 986 l 604 917 l 653 967 l 643 899 l 694 942 l 679 875 l 736 914 l 714 850 l 774 883 l 744 821 l 808 849 l 774 789 l 839 811 l 800 754 l 867 771 l 822 718 l 890 728 l 842 679 l 910 683 l 857 639 l 925 636 l 869 599 l 938 589 l 876 556 l 944 540 l 881 514 l 946 492 l 881 469 l 944 443 l 876 428 l 938 394 l 869 385 l 925 347 l 857 344 l 910 300 l 842 304 l 890 256 l 822 265 l 867 213 l 800 229 l 839 172 l 774 194 l 808 135 l 744 163 l 774 100 l 714 133 l 736 69 l 679 108 l 694 42 l 643 85 l 653 17 l 604 67 l 608 -3 l 564 50 l 561 -18 l 522 39 l 514 -29 l 481 31 l 465 -36 l 438 26 l 417 -39 l 394 26 l 367 -36 l 351 31 l 319 -29 l 310 39 l 271 -18 l 268 50 l 225 -3 l 228 67 l 181 17 l 189 85 l 138 42 l 153 108 l 97 69 l 119 133 l 58 100 l 88 163 l 25 135 l 58 194 l -7 172 l 32 229 l -35 213 l 10 265 l -58 256 l -10 304 l -78 300 l -25 344 l -94 347 l -36 385 l -106 394 l -44 428 l -111 443 l -49 469 l -114 492 l -49 514 l -111 540 l -44 556 l -106 589 l -36 599 l -94 636 l -25 639 l -78 683 l -10 679 l -58 728 l 10 718 l -35 771 l 32 754 l -7 811 l 58 789 l 25 849 l 88 821 l 58 883 l 119 850 l 97 914 l 153 875 l 138 942 l 189 899 l 181 967 l 228 917 l 225 986 l 268 933 l 271 1001 l 310 944 l 319 1013 l 351 953 l 367 1019 l 394 957 "},"▯":{"ha":844,"x_min":0,"x_max":0,"o":"m 64 1000 l 781 1000 l 781 0 l 64 0 m 588 193 l 588 807 l 257 807 l 257 193 "},"◊":{"ha":833,"x_min":0,"x_max":0,"o":"m 518 0 l 294 0 l 47 485 l 296 972 l 518 972 l 785 485 m 411 758 l 289 485 l 411 214 l 542 485 "},"ﬀ":{"ha":968,"x_min":0,"x_max":0,"o":"m 814 540 l 814 0 l 546 0 l 546 540 l 382 540 l 382 0 l 114 0 l 114 540 l 8 540 l 8 722 l 114 722 l 114 753 b 389 1007 114 926 218 1007 b 633 972 472 1007 560 994 b 810 1021 676 1004 736 1021 b 986 996 875 1021 932 1010 l 986 808 b 879 826 928 822 901 826 b 814 758 833 826 814 808 l 814 722 l 947 722 l 947 540 m 547 801 b 458 813 518 808 479 813 b 382 757 404 813 385 796 l 382 722 l 546 722 l 546 750 b 547 801 546 768 546 785 "},"ﬁ":{"ha":876,"x_min":0,"x_max":0,"o":"m 639 807 b 468 826 581 818 514 826 b 382 753 403 826 382 804 l 382 722 l 813 722 l 813 0 l 543 0 l 543 540 l 382 540 l 382 0 l 114 0 l 114 540 l 8 540 l 8 722 l 114 722 l 114 761 b 399 1021 114 935 217 1021 b 639 993 490 1021 585 1004 "},"ﬂ":{"ha":882,"x_min":0,"x_max":0,"o":"m 549 0 l 549 818 b 464 826 514 824 485 826 b 382 753 401 826 382 803 l 382 722 l 476 722 l 476 540 l 382 540 l 382 0 l 114 0 l 114 540 l 8 540 l 8 722 l 114 722 l 114 761 b 394 1021 114 935 218 1021 b 565 1001 457 1021 515 1013 b 818 1013 649 1006 733 1010 l 818 0 "},"ﬃ":{"ha":1303,"x_min":0,"x_max":0,"o":"m 831 1021 b 1071 993 922 1021 1018 1004 l 1071 807 b 900 826 1013 818 946 826 b 814 753 832 826 814 803 l 814 722 l 1239 722 l 1239 0 l 976 0 l 976 540 l 814 540 l 814 0 l 546 0 l 546 540 l 382 540 l 382 0 l 114 0 l 114 540 l 8 540 l 8 722 l 114 722 l 114 753 b 388 1007 114 921 210 1007 b 639 969 472 1007 563 994 b 831 1021 686 1003 749 1021 m 382 722 l 546 722 l 546 750 b 547 801 546 768 546 785 b 457 813 511 808 479 813 b 382 744 400 813 382 794 "},"ﬄ":{"ha":1314,"x_min":0,"x_max":0,"o":"m 826 1021 b 997 1001 889 1021 947 1013 l 1250 1013 l 1250 0 l 981 0 l 981 818 b 896 826 946 824 917 826 b 814 757 842 826 814 806 l 814 722 l 914 722 l 914 540 l 814 540 l 814 0 l 546 0 l 546 540 l 382 540 l 382 0 l 114 0 l 114 540 l 8 540 l 8 722 l 114 722 l 114 753 b 389 1007 114 926 218 1007 b 633 972 472 1007 560 994 b 826 1021 676 1004 736 1021 m 547 801 b 458 813 518 807 479 813 b 382 757 404 813 385 796 l 382 722 l 546 722 l 546 750 b 547 801 546 768 546 785 "}}}
